<svg id="Слой_1" data-name="Слой 1" xmlns="http://www.w3.org/2000/svg" xmlns:xlink="http://www.w3.org/1999/xlink" viewBox="0 0 425.2 425.2"><defs><style>.cls-1{fill:#23ccab;}.cls-2,.cls-3,.cls-4{stroke-miterlimit:10;}.cls-2{fill:url(#Безымянный_градиент_43);stroke:url(#Безымянный_градиент_9);}.cls-3{fill:#0a0909;}.cls-3,.cls-4{stroke:#0c0b0b;}.cls-4{fill:none;}</style><linearGradient id="Безымянный_градиент_43" x1="230.52" y1="247.72" x2="309.15" y2="79.09" gradientTransform="translate(-4.2 4.26) rotate(-1.14)" gradientUnits="userSpaceOnUse"><stop offset="0.12" stop-color="#cce0f4"/><stop offset="0.12" stop-color="#cedeeb"/><stop offset="0.16" stop-color="#dcd0b6"/><stop offset="0.19" stop-color="#e7c48a"/><stop offset="0.21" stop-color="#f0bc68"/><stop offset="0.24" stop-color="#f6b54f"/><stop offset="0.27" stop-color="#fab140"/><stop offset="0.29" stop-color="#fbb03b"/><stop offset="0.7" stop-color="#603813"/></linearGradient><radialGradient id="Безымянный_градиент_9" cx="247.97" cy="166.75" r="100.18" gradientTransform="translate(-4.2 4.26) rotate(-1.14)" gradientUnits="userSpaceOnUse"><stop offset="0" stop-color="#ff7bac"/><stop offset="0.22" stop-color="#ff7bac" stop-opacity="0.76"/><stop offset="0.6" stop-color="#ff7bac" stop-opacity="0.36"/><stop offset="0.87" stop-color="#ff7bac" stop-opacity="0.1"/><stop offset="1" stop-color="#ff7bac" stop-opacity="0"/></radialGradient></defs><path class="cls-1" d="M79.33,377.53c20.37-.9,38.32-14.5,50.38-30.93s19.46-35.72,28.31-54.08a57.27,57.27,0,0,1,5.54-9.69,75.84,75.84,0,0,1,8.33-8.68,179.1,179.1,0,0,0,31-39.47c4.39-7.59,8.21-17.15,3.89-24.77l1,2.64L191,167.7c-1.74-4.68-3.49-9.37-5.37-14q-4.46-11-9.84-21.64l.08.51c-6.52-11.24-11.68-18.39-18.28-32.57C114.29,182.94,67.5,291.32,31.34,377.59c17.32.89,32.15.6,49.45.25l11.53-16.08"/><path class="cls-2" d="M320.49,286.86c0-5.12,0-10.37-1.68-15.21-1.27-3.6-3.42-6.81-5.17-10.19a81.24,81.24,0,0,1-5.17-13.32c-4.85-15.68-7.89-31.85-10.91-48q-1.49-7.89-3-15.76c-2.53-13.48-5.58-27.4-3.43-40.94a74.23,74.23,0,0,1-17.45-15.13c-8.47-10-14.1-22.13-19.63-34L242.16,68.6a63.62,63.62,0,0,1-4.28-12.69c-1.14-4.94-2.61-6-4.8-11a.53.53,0,0,0-1,0c-3.17,6.4-3.63,6.32-7.4,12.11l-2.95,4.53c-15.4,23.65-30.81,47.31-46.47,70.79l33.23,81.09,2.38-1.88"/><path class="cls-3" d="M211.77,210.82a128.72,128.72,0,0,0,11.36-10.08c3.35-3.62,8.52-6.35,10.42-7.84,4.3,2.6,9.8,8.18,14.39,12.29,2.25,2,4.78,3.91,7.19,5.75a91.41,91.41,0,0,0,8.66,6.12c1.74,1,3.54,1.95,5.32,2.91,8.24,4.41,16,9.59,23.81,14.76,4.23,9,8.69,17.76,12.92,26.72,1.16,2.46,2.32,4.92,3.58,7.33,2.73,5.2,5.93,10.13,9.12,15.05l10.75,16.57-.37-.41c4.21,7.69,11.37,14.29,16.29,21.66a175.85,175.85,0,0,0,25.52,29.9c8.43,8,15.58,19.73,24,27.86C291,382.32,188.31,377,80.86,381.29l-.07-3.6c14.56-18.44,23.68-37.09,38.24-55.53l10.61-13.43,14.67-18.58c5.79-7.32,11.57-14.65,17.62-21.76,14.32-16.8,27.5-34.13,42.52-50.31a42.1,42.1,0,0,1,7.43-7.23"/><path class="cls-4" d="M210.92,211.51l.85-.69"/></svg>