<svg id="Слой_1" data-name="Слой 1" xmlns="http://www.w3.org/2000/svg" xmlns:xlink="http://www.w3.org/1999/xlink" viewBox="0 0 1244.86 595.72">
  <defs>
    <linearGradient id="Безымянный_градиент_11" data-name="Безымянный градиент 11" x1="173.01" y1="393.67" x2="64.5" y2="305.8" gradientUnits="userSpaceOnUse">
      <stop offset="0" stop-color="#fff"/>
      <stop offset="0.55" stop-color="#15e2c2"/>
      <stop offset="0.74" stop-color="#00dfbc"/>
    </linearGradient>
    <linearGradient id="Безымянный_градиент_43" data-name="Безымянный градиент 43" x1="238.51" y1="332.64" x2="320.66" y2="156.49" gradientTransform="translate(-6.64 12.09) rotate(-1.14)" gradientUnits="userSpaceOnUse">
      <stop offset="0.12" stop-color="#cce0f4"/>
      <stop offset="0.12" stop-color="#cedeeb"/>
      <stop offset="0.16" stop-color="#dcd0b6"/>
      <stop offset="0.19" stop-color="#e7c48a"/>
      <stop offset="0.21" stop-color="#f0bc68"/>
      <stop offset="0.24" stop-color="#f6b54f"/>
      <stop offset="0.27" stop-color="#fab140"/>
      <stop offset="0.29" stop-color="#fbb03b"/>
      <stop offset="0.7" stop-color="#603813"/>
    </linearGradient>
    <radialGradient id="Безымянный_градиент_9" data-name="Безымянный градиент 9" cx="256.75" cy="248.07" r="104.63" gradientTransform="translate(-6.64 12.09) rotate(-1.14)" gradientUnits="userSpaceOnUse">
      <stop offset="0" stop-color="#ff7bac"/>
      <stop offset="0.22" stop-color="#ff7bac" stop-opacity="0.76"/>
      <stop offset="0.6" stop-color="#ff7bac" stop-opacity="0.36"/>
      <stop offset="0.87" stop-color="#ff7bac" stop-opacity="0.1"/>
      <stop offset="1" stop-color="#ff7bac" stop-opacity="0"/>
    </radialGradient>
  </defs>
  <g>
    <path d="M79.8,475.91c21.28-.94,40-15.15,52.63-32.32S152.75,406.28,162,387.1A59.45,59.45,0,0,1,167.79,377a78.53,78.53,0,0,1,8.7-9.08,187,187,0,0,0,32.36-41.23c4.58-7.93,8.58-17.91,4.06-25.87l1,2.76-17.49-46.85c-1.83-4.89-3.66-9.79-5.62-14.63q-4.65-11.52-10.28-22.6l.09.53c-6.81-11.74-12.2-19.21-19.1-34C116.33,272.64,67.45,385.85,29.67,476c18.1.93,33.59.62,51.66.26l12-16.8" style="fill: url(#Безымянный_градиент_11)"/>
    <g>
      <path d="M331.72,381.2c0-5.36,0-10.84-1.76-15.89-1.32-3.76-3.57-7.12-5.4-10.66a83.79,83.79,0,0,1-5.4-13.91c-5.07-16.37-8.24-33.26-11.4-50.11l-3.09-16.46c-2.63-14.07-5.82-28.62-3.58-42.76a78,78,0,0,1-18.23-15.81C274,205.1,268.13,192.48,262.35,180L249.9,153.2a67.22,67.22,0,0,1-4.48-13.26c-1.18-5.16-2.73-6.28-5-11.51a.55.55,0,0,0-1,0c-3.32,6.68-3.79,6.6-7.73,12.65l-3.08,4.73c-16.1,24.71-32.19,49.42-48.55,74l34.72,84.7,2.48-2" style="stroke-miterlimit: 10;fill: url(#Безымянный_градиент_43);stroke: url(#Безымянный_градиент_9)"/>
      <path d="M218.15,301.76A132,132,0,0,0,230,291.23c3.51-3.78,8.91-6.64,10.89-8.19,4.5,2.72,10.24,8.55,15,12.84,2.36,2.11,5,4.08,7.51,6a96,96,0,0,0,9.05,6.39c1.82,1.08,3.7,2,5.56,3,8.6,4.6,16.74,10,24.87,15.42,4.41,9.36,9.08,18.55,13.49,27.91,1.21,2.57,2.43,5.14,3.75,7.66,2.85,5.42,6.19,10.57,9.52,15.71l11.23,17.31-.38-.42c4.39,8,11.88,14.92,17,22.62a183.54,183.54,0,0,0,26.66,31.24c8.81,8.37,16.28,20.6,25,29.1-108.32,3-215.6-2.57-327.84,2l-.08-3.76c15.21-19.27,24.74-38.75,40-58l11.09-14,15.32-19.4c6-7.65,12.09-15.31,18.41-22.73,14.95-17.55,28.73-35.66,44.41-52.55a44,44,0,0,1,7.76-7.56" style="fill: #0a0909;stroke: #0c0b0b;stroke-miterlimit: 10"/>
      <path d="M217.26,302.48l.89-.72" style="fill: none;stroke: #0c0b0b;stroke-miterlimit: 10"/>
    </g>
  </g>
  <g>
    <path d="M495.46,384.77a1.51,1.51,0,0,1-.08.67.53.53,0,0,0,0,.46.82.82,0,0,1,.13.38v.42a3.38,3.38,0,0,1-.26.92,1.57,1.57,0,0,0-.08,1.09c.06.06.08.23.08.51v1c-.05.61-.08,1.76-.08,3.44v5.21a5.84,5.84,0,0,1-.17,1.76v35.87a3.14,3.14,0,0,1-.67-.63,1.58,1.58,0,0,0-1-.63,1.24,1.24,0,0,0-.33,0,1.09,1.09,0,0,1-.26,0c-.28.11-.56.24-.84.38l-.71.38a1.22,1.22,0,0,1-.38.17l-.92.17-.51-.17a2.11,2.11,0,0,1-.67-.67,1.79,1.79,0,0,0-.5-.59l-.25-.09a6.6,6.6,0,0,0-2.19,1.35.36.36,0,0,1-.25.08l-.59.09q.17-3.54,0-15.38c0-.5,0-1.21,0-2.14s0-1.61,0-2.06c0-1,0-2.38-.09-4.11s-.09-3.31-.12-4.71,0-2.74,0-4q0-2.94.12-7.64c.09-3.14.13-5,.13-5.63h-3.11q-3.87,0-10.08-.34L471,397l-.42,28.73-.25,6.05c-.17,0-.33-.17-.47-.51s-.32-.5-.54-.5a3.08,3.08,0,0,0-1,.21,9.16,9.16,0,0,0-1.09.46l-.51.25a4.69,4.69,0,0,1-.92.17,3.87,3.87,0,0,1-.59-.17,2.33,2.33,0,0,1-.54-.54,2.06,2.06,0,0,0-.8-.63,4.09,4.09,0,0,0-2.19,1.26.49.49,0,0,1-.33.08l-.76-.08-.5.16q.33-5.3.33-32.17c0-.22.17-1.51.51-3.86.11-.73.22-1.93.33-3.62s.17-2.63.17-2.85l-.17-.59a2.47,2.47,0,0,1,.13-.42.88.88,0,0,0,0-.59l-.17-.42v-3.1l.17-1.18a1.33,1.33,0,0,0-.25-.84,1.09,1.09,0,0,1-.42-1v-.84l-.17-.84v-.25a1.69,1.69,0,0,1,.84-.13l1.3.13a15.14,15.14,0,0,0,2.65-.08,80.8,80.8,0,0,1,8.86.25c5,.28,7.74.42,8.36.42l6.26.08q5.33.09,6.68,0v1.18c0,.16,0,.56-.09,1.17s-.08,1.12-.08,1.52A2.66,2.66,0,0,1,495.46,384.77Z"/>
    <path d="M516.8,384.09a1.41,1.41,0,0,1,1.34.59,1.25,1.25,0,0,1,.42.67l.09.67.42,1.43a2.3,2.3,0,0,0,.58,1.18l.42,1a1.07,1.07,0,0,0,.76.33l.34,0a2.09,2.09,0,0,1,.33,0,2,2,0,0,0,.51-.21c.28-.14.56-.27.84-.38a2,2,0,0,1,.67-.17c.17,0,.25,0,.25.09s-.22.42-.67.75a3,3,0,0,1-1.18,1.09l-1.43,1.35a7.87,7.87,0,0,0-2.26,2.94,3.57,3.57,0,0,0-.42,1.59v.34a7,7,0,0,0,.16,1.18,14,14,0,0,1,1.6-2.52,11.15,11.15,0,0,0,1.51-1.93q2.94-2.94,3.95-2.69a12.68,12.68,0,0,0-4.54,4.37,26.6,26.6,0,0,0-3,6.29,44.37,44.37,0,0,0-.92,5.55,13.54,13.54,0,0,0-.09,1.85,14.86,14.86,0,0,0,.34,3.44,5.55,5.55,0,0,0,.5,1.85,13.07,13.07,0,0,0,1.09,2.69,8.1,8.1,0,0,0,1.35,1.68,5.23,5.23,0,0,0,1.34,1.09,3.5,3.5,0,0,0,1.68.67,11.59,11.59,0,0,0,2.27.42,16.78,16.78,0,0,1,2.44-.25,3,3,0,0,0,1.34-.42.59.59,0,0,0,.21,0l.29-.09a2.5,2.5,0,0,1,.42,0l.26-.17a4.9,4.9,0,0,0,1.93-1,9,9,0,0,0,1.93-1.52,18.65,18.65,0,0,0,2.94-4.45,23.51,23.51,0,0,0,1.85-9.41v-1.26a18.36,18.36,0,0,0-.76-4.53l-.17-.59a18.32,18.32,0,0,0-2.43-4.12l-1.09-1.09a1.92,1.92,0,0,0-.68-.5l-.5-.42-1.09-.51-.84-.08-1.18.17a9.28,9.28,0,0,0-1.85.25l-2,.59c-.56.05-.84,0-.84-.09a1.18,1.18,0,0,0,.17-.25l.16-.25c.06-.06.09-.25.09-.59a1.35,1.35,0,0,0-.34-.5,3.71,3.71,0,0,0-1.26-1.18c-.67-.22-1-.45-1-.67a1.38,1.38,0,0,0-.42-.67v-.34a.85.85,0,0,1,.17-.59l.25-.21.42-.29.51-.34a3.74,3.74,0,0,0,.92-.67v-.59a1.32,1.32,0,0,0-.84-.67l-1.85-.92c-.16-.06-.25-.25-.25-.59l-.08-.84c0-.11-.09-.22-.25-.34l1.68-.33c.84-.17,1.56-.34,2.18-.51l2.77-.67h3.53a12.07,12.07,0,0,1,3.11.51,9.45,9.45,0,0,1,3.27,1.51l1.35.67,1.17,1.09a20,20,0,0,1,2.36,1.93,23.83,23.83,0,0,1,3.36,4.88,38.9,38.9,0,0,1,1.93,4.45l.25.75a31,31,0,0,1,1,5.46c.11,1.35.17,2.38.17,3.11l-.09,2.19a33.65,33.65,0,0,1-1.76,8.9,31.49,31.49,0,0,1-4.45,8.4,20.89,20.89,0,0,1-3.36,3.7A21.19,21.19,0,0,1,535.7,430a19.41,19.41,0,0,1-2.69,1.09l-.92.34-1.18.25a19.38,19.38,0,0,1-4.87.76,4.74,4.74,0,0,1-1.09.08,11.93,11.93,0,0,1-2.36-.25l-.25-.08h-.5a18.91,18.91,0,0,1-4.29-1.18,25.62,25.62,0,0,1-3.94-2.1,24.51,24.51,0,0,1-3.11-3.19,18.42,18.42,0,0,1-2.35-3.61,23.47,23.47,0,0,1-1.52-3.7,26.77,26.77,0,0,1-1.26-7.48l-.08-1.68a43.59,43.59,0,0,1,.42-5.62,46.14,46.14,0,0,1,2-7.06,57.83,57.83,0,0,1,3.44-6.64,30.5,30.5,0,0,1,5.21-5.62Z"/>
    <path d="M588.2,424.5a93.47,93.47,0,0,1,4.45,9.74c-.22,0-.43-.17-.63-.5s-.35-.51-.46-.51a2.22,2.22,0,0,0-1,.42c-.17.17-.37.38-.59.63a7.52,7.52,0,0,0-.54.68c-.14.19-.24.29-.3.29a2,2,0,0,1-1.43.59,8.68,8.68,0,0,0-1.59-.84q-.76.08-1.68,2.1a1.06,1.06,0,0,1-.76.33.93.93,0,0,0-.75.42,187.38,187.38,0,0,0-8.15-17.13l-3.36-6.3q-2.52,5.71-4,9.83-1.51,4.44-3.36,8.48c-.06-.06-.09-.25-.09-.59,0-.5-.33-.81-1-.92h-2.1a1.84,1.84,0,0,1-1.42-.67,6.57,6.57,0,0,1-.26-.76,2,2,0,0,0-.33-.76,1.37,1.37,0,0,0-.84-.25,4.19,4.19,0,0,0-1,.17,4.34,4.34,0,0,1-1,.17l-1.51-.51c.62-1.4,1.44-3.34,2.48-5.84s1.75-4.24,2.14-5.25l1.93-4.87c1-2.68,2.32-5.88,3.95-9.57a178.3,178.3,0,0,1-10.58-22.18,2.81,2.81,0,0,1,2.18-1.17,10.07,10.07,0,0,0,2.6-.42,5.34,5.34,0,0,0,.59-.13,1.55,1.55,0,0,0,.76-.38,1.22,1.22,0,0,0,.33-.67v-1c0-.33.06-.5.17-.5l.42.5a7,7,0,0,1,.93,2,10.84,10.84,0,0,0,1.09,2.1,3.27,3.27,0,0,0,1.76,1.26l-1.26-3.45c0-.11-.22-.54-.5-1.3a5.67,5.67,0,0,1-.42-1.89,41.41,41.41,0,0,0,1.93,4.2,35,35,0,0,1,1.93,4.12q1.51,3.19,3.45,6.72a32.43,32.43,0,0,1,1.84-3.53c1.8-3.47,3.92-7.17,6.39-11.09a3.65,3.65,0,0,1,2.18,1.26l1.85,1.77a4.59,4.59,0,0,1,.63.42,1.45,1.45,0,0,0,.8.33.91.91,0,0,0,.5-.08,8.15,8.15,0,0,1,1.18-.67c.11,0,.17.08.17.25a.64.64,0,0,1-.09.42,6.15,6.15,0,0,1-1.09,1.76l-.92,1.85a5.36,5.36,0,0,0-.17.76,1.91,1.91,0,0,0,.17.75,2.16,2.16,0,0,1,.16.51l1-1.47c.42-.65.71-1.11.88-1.39a5.4,5.4,0,0,1,1.85-2.19c-.22.34-.8,1.38-1.72,3.11s-1.67,3.08-2.23,4a117.93,117.93,0,0,0-5.21,10.58l-.42,1c-.16.28-.61,1.31-1.34,3.1l4.62,8.66Q584.58,417.19,588.2,424.5Z"/>
    <path d="M605.84,384.09a1.41,1.41,0,0,1,1.34.59,1.25,1.25,0,0,1,.42.67l.09.67.42,1.43a2.3,2.3,0,0,0,.58,1.18l.42,1a1.07,1.07,0,0,0,.76.33l.34,0a2.09,2.09,0,0,1,.33,0,2.11,2.11,0,0,0,.51-.21,9,9,0,0,1,.84-.38,2,2,0,0,1,.67-.17c.17,0,.25,0,.25.09s-.23.42-.67.75a3,3,0,0,1-1.18,1.09l-1.43,1.35a7.87,7.87,0,0,0-2.26,2.94,3.44,3.44,0,0,0-.42,1.59v.34a7,7,0,0,0,.16,1.18,14,14,0,0,1,1.6-2.52,11.15,11.15,0,0,0,1.51-1.93q2.94-2.94,4-2.69a12.68,12.68,0,0,0-4.54,4.37,26.6,26.6,0,0,0-3,6.29,44.37,44.37,0,0,0-.92,5.55,13.54,13.54,0,0,0-.09,1.85,14.86,14.86,0,0,0,.34,3.44,5.55,5.55,0,0,0,.5,1.85,13.07,13.07,0,0,0,1.09,2.69,8.1,8.1,0,0,0,1.35,1.68,5.23,5.23,0,0,0,1.34,1.09,3.5,3.5,0,0,0,1.68.67,11.59,11.59,0,0,0,2.27.42,16.55,16.55,0,0,1,2.44-.25,3.07,3.07,0,0,0,1.34-.42.59.59,0,0,0,.21,0l.29-.09a2.39,2.39,0,0,1,.42,0l.26-.17a4.9,4.9,0,0,0,1.93-1,9,9,0,0,0,1.93-1.52,18.65,18.65,0,0,0,2.94-4.45,23.51,23.51,0,0,0,1.85-9.41v-1.26a18.36,18.36,0,0,0-.76-4.53l-.17-.59a18.32,18.32,0,0,0-2.43-4.12l-1.09-1.09a1.92,1.92,0,0,0-.68-.5l-.5-.42-1.09-.51-.84-.08-1.18.17a9.28,9.28,0,0,0-1.85.25l-2,.59c-.56.05-.84,0-.84-.09a1.18,1.18,0,0,0,.17-.25l.16-.25c.06-.06.09-.25.09-.59a1.35,1.35,0,0,0-.34-.5,3.71,3.71,0,0,0-1.26-1.18c-.67-.22-1-.45-1-.67a1.38,1.38,0,0,0-.42-.67v-.34a.85.85,0,0,1,.17-.59l.25-.21.42-.29.51-.34a3.74,3.74,0,0,0,.92-.67v-.59a1.32,1.32,0,0,0-.84-.67l-1.85-.92c-.16-.06-.25-.25-.25-.59l-.08-.84c0-.11-.09-.22-.25-.34l1.68-.33c.84-.17,1.56-.34,2.18-.51l2.77-.67h3.53a12.07,12.07,0,0,1,3.11.51,9.53,9.53,0,0,1,3.27,1.51l1.35.67,1.17,1.09a20,20,0,0,1,2.36,1.93,23.83,23.83,0,0,1,3.36,4.88,38.9,38.9,0,0,1,1.93,4.45l.25.75a31,31,0,0,1,1,5.46c.11,1.35.17,2.38.17,3.11l-.09,2.19a33.65,33.65,0,0,1-1.76,8.9,31.49,31.49,0,0,1-4.45,8.4,20.89,20.89,0,0,1-3.36,3.7,21.19,21.19,0,0,1-4.37,2.85,19.41,19.41,0,0,1-2.69,1.09l-.92.34-1.18.25a19.38,19.38,0,0,1-4.87.76,4.8,4.8,0,0,1-1.09.08,11.93,11.93,0,0,1-2.36-.25l-.25-.08h-.5a18.91,18.91,0,0,1-4.29-1.18,25.62,25.62,0,0,1-3.94-2.1,24.51,24.51,0,0,1-3.11-3.19,18.42,18.42,0,0,1-2.35-3.61,23.47,23.47,0,0,1-1.52-3.7,26.77,26.77,0,0,1-1.26-7.48l-.08-1.68a43.59,43.59,0,0,1,.42-5.62,46.14,46.14,0,0,1,2-7.06,57.83,57.83,0,0,1,3.44-6.64,30.5,30.5,0,0,1,5.21-5.62Z"/>
    <path d="M691.18,432.65c.11,1.51.25,4.75.42,9.74a1.84,1.84,0,0,1-.88-.55,1.25,1.25,0,0,0-.8-.46,1.65,1.65,0,0,0-.8.21,3,3,0,0,0-.67.51c-.2.19-.32.29-.38.29a4.76,4.76,0,0,1-1,.17c-.34,0-.54,0-.59-.09l-.34-.33a5.23,5.23,0,0,0-.5-.46.86.86,0,0,0-.59-.21,7.84,7.84,0,0,0-2.1,1.09,1.51,1.51,0,0,1-.67.17h-.51c-.33,0-.53,0-.58.08l-.51-10.5h-3.11c-1.28,0-3.16-.06-5.62-.17h-.34a9.14,9.14,0,0,0-1.55,0c-.48,0-1.17,0-2.06.08s-1.6.05-2.1.05c-2.63-.17-6.08-.26-10.33-.26a22.71,22.71,0,0,0-2.27-.16l-.09,9.32-.84.17-.67.17a3.11,3.11,0,0,0-.84.29l-.67.34a1,1,0,0,1-.34.12,5.74,5.74,0,0,1-.84.25l-.5-.16-1.43-1.18c-.33,0-1,.42-1.93,1.26l-.5.17-.68-.09a.64.64,0,0,0-.42.09c0-.4,0-1.14,0-2.23s0-1.95,0-2.56q0-3.52.25-6V427.1l.09-4.87a43,43,0,0,1,4.45.08c2-1.12,3.53-3.78,4.53-8,1-4.36,1.54-6.72,1.6-7.05.62-4,.92-6.19.92-6.64,0-.22.17-1.51.51-3.86.11-.73.22-1.93.33-3.61s.17-2.64.17-2.86l-.17-.59a2.47,2.47,0,0,1,.13-.42.88.88,0,0,0,0-.59l-.17-.42v-3.1l.17-1.18a1.33,1.33,0,0,0-.25-.84,1.08,1.08,0,0,1-.42-1v-.84l-.17-.84v-.25a1.69,1.69,0,0,1,.84-.13l1.3.13a15.14,15.14,0,0,0,2.65-.08H663c1.79.05,4,.11,6.55.16l7.73.17c2.57.06,4.76.11,6.55.17h2.77v1.17c0,.17,0,.57-.08,1.18s-.09,1.12-.09,1.51a2.36,2.36,0,0,1,.09.84c0,.4,0,.62-.09.67a.55.55,0,0,0,.05.47.76.76,0,0,1,.12.37v.43a3.24,3.24,0,0,1-.25.92,1.47,1.47,0,0,0-.08,1.09,1,1,0,0,1,.08.51v1c-.06.62-.08,1.77-.08,3.45v4.62a5.84,5.84,0,0,1-.17,1.76v17.3c0,1.69.08,3.45.25,5.3.62,0,1.47,0,2.56-.05l2.23,0,.08,9.08Zm-15.29-41.33-3.1-.26-6.14-.25c0,1-.25,3.36-.58,7.06q-.26,2.78-1.43,9.74c-.17.9-.44,2.22-.8,3.95s-.6,3-.71,3.78a27.29,27.29,0,0,1-2.36,7.22l-.16.26c1.79.11,3,.16,3.52.16,1.35,0,3.5.15,6.47.42,2.47,0,4.29,0,5.46-.08q-.16-4.36-.17-6.47c0-1,0-2.38-.08-4.11s-.1-3.31-.13-4.71,0-2.74,0-4c0-1.9,0-4.3.13-7.18S675.89,392.1,675.89,391.32Z"/>
    <path d="M738.22,415.85a18.25,18.25,0,0,1-3.53,8.48,18.91,18.91,0,0,1-6.84,5.59,36.52,36.52,0,0,1-8.53,2.89,45.92,45.92,0,0,1-9.41.93h-6.55a1.79,1.79,0,0,0,1.26-.34.32.32,0,0,1,.09-.25.27.27,0,0,0,.08-.17,3.87,3.87,0,0,0-.17-.59,5.85,5.85,0,0,0-.63-.92,2.89,2.89,0,0,1-.46-.67l-.25-.76L703,430a7.65,7.65,0,0,1-.76.5.79.79,0,0,1-.59.25,1.55,1.55,0,0,1-.38-.08,1.58,1.58,0,0,0-.46-.08c-.17,0-.28,0-.33.08q0-11.67.08-14.11l.59-13.95c0-.84.05-2.53.17-5.08s.16-4.52.16-5.92V387c0-1.34,0-3.53-.16-6.55a2.94,2.94,0,0,1,1.51-.34l.75.09a7.82,7.82,0,0,1,.89.12,6.27,6.27,0,0,0,1.13.13H706l.92.08a1.16,1.16,0,0,0,.84-.5,1,1,0,0,0,.25-.51,4.41,4.41,0,0,1,.17-.54c.06-.14.11-.21.17-.21s.22.17.33.5a6,6,0,0,1,.42,1.18h2.27l-.42,16.38,4,.16,5.88,1.18c5.71,1.91,9.63,3.68,11.76,5.34a15.84,15.84,0,0,1,5,7.68l.08.34.5,2.1Zm-10.5,1.34a4.67,4.67,0,0,0,.34-1.93l-.17-1.18c-.06-.05-.08-.19-.08-.42v-.25l-.09-.42-.17-.51a6.7,6.7,0,0,0-3.86-4.15,36.15,36.15,0,0,0-8.15-2.06,33,33,0,0,0-4.79-.5l-.5,19.15a19.75,19.75,0,0,0,2.18-.09q8.33-.49,12.27-3.78a11.32,11.32,0,0,0,1.8-1.93A7.11,7.11,0,0,0,727.72,417.19Zm18.57-36.88c.22-.39,1.14-.44,2.77-.16s2.55.41,2.77.41a3,3,0,0,0,1.09-.54,8.09,8.09,0,0,1,1.39-.76.7.7,0,0,1,.88.21,8,8,0,0,1,.13,2,13,13,0,0,0,0,2,3.37,3.37,0,0,0,.38.71,2.55,2.55,0,0,0,.54.55,4.4,4.4,0,0,1,.51.42c0-.51,0-1.26,0-2.27a18.36,18.36,0,0,1,0-2.36,2.84,2.84,0,0,1,.5-1.42q0,1.17.21,3.78a33.16,33.16,0,0,1,.13,4.11q-.09,2.1-.09,6.26v6.26c0,1.29,0,2.66-.12,4.12s-.2,3.06-.34,4.83-.24,3.15-.29,4.15a118,118,0,0,0-.68,12.18v8.49a1.9,1.9,0,0,0-1.09-.88,2,2,0,0,0-1.22-.05l-1.13.34-.5.25a4.47,4.47,0,0,1-1.77,0l-.54-.63a1.89,1.89,0,0,0-.8-.63c-.51-.11-1.38.22-2.61,1a1.29,1.29,0,0,1-1,.17,1.71,1.71,0,0,0-1,.08q.09-5.62.59-16.38c.11-1.57.2-3.88.25-6.93s.14-5.36.25-6.93q.67-20.58.68-22.34Z"/>
    <path d="M797.36,368.89v84h-5.63v-84Z"/>
    <path d="M852,389.55c-.06.62-.09,1.54-.09,2.77v6.56a6,6,0,0,1-.16,1.76v17.3a44.79,44.79,0,0,0,.33,5.63V424q.26,2.52.42,7.23a1.84,1.84,0,0,1-.88-.55,1.27,1.27,0,0,0-.8-.46,1.62,1.62,0,0,0-.8.21,3.34,3.34,0,0,0-.67.5c-.2.2-.32.3-.38.3a4.73,4.73,0,0,1-1,.17c-.33,0-.53,0-.58-.09L847,431c-.17-.17-.33-.33-.5-.47a.91.91,0,0,0-.59-.21,7.73,7.73,0,0,0-2.1,1.1,1.53,1.53,0,0,1-.67.16h-.51a1.09,1.09,0,0,0-.59.09q-.33-7.39-.5-14.79c0-1,0-2.38-.08-4.11s-.1-3.31-.13-4.71,0-2.74,0-4q0-.25.25-14.61h-3.11q-4.11,0-13.35-.68l-.76-.08-.17-.67a9.17,9.17,0,0,1,.17-1l.08-.42v-.34a25.37,25.37,0,0,0,.59-2.52l.17-1.17a1.33,1.33,0,0,0-.25-.84l-.84-.68q0-.17.42-.33a1.82,1.82,0,0,0,.38,0,1.73,1.73,0,0,1,.29-.05l.76.09a2.38,2.38,0,0,0,.84.08,1.69,1.69,0,0,0,.67-.08,1.17,1.17,0,0,0,.54-.29,2.89,2.89,0,0,0,.38-.47,3.86,3.86,0,0,1,.34-.42c-2.41-.33-3.78-.56-4.12-.67l-.25-.08q.16-.25,1.14-.09a9.56,9.56,0,0,0,1.13.17h5.21c1.51,0,4-.05,7.47-.17,4.26,0,7.53,0,9.83-.08,1.06-.11,2.63-.22,4.7-.34s3.64-.22,4.71-.33q2.36-.25,6.72-.42a1.2,1.2,0,0,1-.59.54c-.22.09-.34.21-.34.38a1.73,1.73,0,0,0,.17.76,7,7,0,0,0,.25.88c.12.31.23.57.34.8l.08.25a2.29,2.29,0,0,1,.09.84c0,.39,0,.62-.09.67s-.14.3-.42.55-.42.46-.42.63v.42a1.29,1.29,0,0,0,.17.63l.42.71a3.82,3.82,0,0,1,.34.67,1,1,0,0,1,.08.51v.59Q865.31,387.79,852,389.55Z"/>
    <path d="M913.11,382.58a4.49,4.49,0,0,1,1.59-2.35c-1,2.35-2.1,4.84-3.27,7.48-.11.33-.76,2.05-1.93,5.16s-2,5.39-2.52,6.85q-.42,1.33-3.87,9c-.39.84-1,2-1.76,3.61s-1.35,2.71-1.68,3.44a38.59,38.59,0,0,1-5.13,8.49q-3.94,4.78-7.43,6.21a19.67,19.67,0,0,1-7.52,1.43h-4.2a.72.72,0,0,1,.3-.63,1.33,1.33,0,0,1,.63-.25,1.88,1.88,0,0,0,.58-.17.28.28,0,0,0,.17-.38,2.33,2.33,0,0,0-.54-.54,2.66,2.66,0,0,1-.55-.55c-.5-.22-.76-.42-.76-.59a1.27,1.27,0,0,1-.33-.76.79.79,0,0,1,.25-.58l1.18-.51a1.26,1.26,0,0,0,.67-.33l.42-.34q0-.33-.84-.84l-1.6-.92a1.16,1.16,0,0,1-.25-.84l.08-.26a.69.69,0,0,0-.33-.5h3.69a11.65,11.65,0,0,0,10.08-6.13.45.45,0,0,0,.17-.34l-8.82-13.77a195,195,0,0,1-9.24-19.74,2.89,2.89,0,0,1,2.19-1.18,9.3,9.3,0,0,0,2.6-.42,3.83,3.83,0,0,0,.59-.13,1.6,1.6,0,0,0,.75-.37,1.3,1.3,0,0,0,.34-.67v-1c0-.34.06-.51.17-.51l.42.51a6.71,6.71,0,0,1,.92,2,11.41,11.41,0,0,0,1.09,2.1,3.34,3.34,0,0,0,1.77,1.26l-1.26-3.44c-.06-.11-.23-.55-.51-1.3a5.72,5.72,0,0,1-.42-1.89,45.13,45.13,0,0,0,1.94,4.2,35.79,35.79,0,0,1,1.93,4.11q3.36,7.23,10.25,20a1.33,1.33,0,0,1,.16-.42,53.85,53.85,0,0,0,2.61-6.22c.17-.5.67-1.71,1.51-3.61q.75-1.85,3.78-9.75,2.94-7.05,4.12-9.4a3.67,3.67,0,0,1,2.26,1l2,1.6a3.49,3.49,0,0,0,.63.38,2.07,2.07,0,0,0,.88.29l.51-.17a1.52,1.52,0,0,0,.33-.21,2.48,2.48,0,0,0,.3-.25,1.64,1.64,0,0,1,.25-.21.43.43,0,0,1,.21-.08c.11,0,.17.08.17.25s.11.31,0,.42c-.4.84-.7,1.46-.93,1.85a6.44,6.44,0,0,0-.75,1.93,5.36,5.36,0,0,0-.17.76l.5,1.26c.23-.4.52-.94.88-1.64S913,382.81,913.11,382.58Z"/>
    <path d="M961.74,394.17l.09.76v1a11.66,11.66,0,0,1-.67,3.44,11.3,11.3,0,0,1-1.35,3.19,13.45,13.45,0,0,1-2.18,2.78,24.42,24.42,0,0,0-2,1.93,21.6,21.6,0,0,1-4.45,2.52,22.78,22.78,0,0,1-4.45,1.85c-1,.39-3.75,1.2-8.4,2.43-.11,0-2.1.37-6,1.09h-.16c-.12,2.58-.17,4.57-.17,6a24.27,24.27,0,0,0,.08,2.68V425a2.78,2.78,0,0,1,.09.72c0,.25,0,.56,0,.92s0,.69,0,1a49.11,49.11,0,0,0,1,8.14,1.77,1.77,0,0,0-1-.84,1.69,1.69,0,0,0-1.14,0c-.33.13-.67.29-1,.46l-.42.25a6.93,6.93,0,0,1-1.77.08,1.06,1.06,0,0,1-.38-.42,2.25,2.25,0,0,0-.46-.54.78.78,0,0,0-.5-.21c-.45-.12-1.32.25-2.61,1.09a1.2,1.2,0,0,1-.88.25,2.88,2.88,0,0,0-1,.17c0-.39,0-.91,0-1.55s0-1.11,0-1.39V405.09q.26-5,.25-9.49v-2.52c0-.22-.06-1-.17-2.35l-.17-8.23,3.28-.17q.25-.42,6.22-1.51a27,27,0,0,1,5.62-1,44,44,0,0,1,4.54-.34c2.07,0,3.7.06,4.87.17a23.77,23.77,0,0,1,5.13,1.18,7.59,7.59,0,0,1,2.6,1.26,10.09,10.09,0,0,1,2.6,1.68,9,9,0,0,1,2.44,2.6,10.71,10.71,0,0,1,1.6,3.36,11.52,11.52,0,0,1,.92,3.19ZM951,396l.09-.42-.09-.84-.25-1.26-1.93-2.1c-.56-.22-1.35-.47-2.35-.75a10.51,10.51,0,0,0-2.94-.51h-3.78a10.81,10.81,0,0,0-2.78.51,41.48,41.48,0,0,0-4.2.67v.08q.09,2.52.09,7.73v5.12l2.94-.5a32.17,32.17,0,0,0,5-1.18,15.71,15.71,0,0,0,2.31-.8c1-.41,1.73-.68,2.06-.79a7.09,7.09,0,0,0,2.94-1.6,8.76,8.76,0,0,0,2.44-2.18l.33-.51Z"/>
    <path d="M1012,381.32c.23,0,.34.9.34,2.69,0,.34,0,.76-.08,1.26V386q-.18,2.19-.42,6.64t-.42,6.72q-.42,5.72-1.43,13.94-.84,8.74-.84,13v9c-.11-.05-.25-.28-.42-.67s-.39-.59-.67-.59a1.86,1.86,0,0,0-.34,0l-.25.05c-.28.11-.56.24-.84.38s-.52.26-.72.37a1.21,1.21,0,0,1-.37.17c-.56.11-.87.17-.93.17l-.5-.17a1.77,1.77,0,0,1-.67-.67,2,2,0,0,0-.51-.59l-.25-.08a6.58,6.58,0,0,0-2.18,1.34.34.34,0,0,1-.26.09l-.75-.09a.83.83,0,0,0-.59.17q0-8.31.67-17.56l1.18-16.21Q996,407.36,991.27,413t-7.35,8.65a39.57,39.57,0,0,0-3.28,4.08l.25,5.71c-.16,0-.32-.17-.46-.5s-.32-.51-.54-.51a3.08,3.08,0,0,0-1,.21,11.17,11.17,0,0,0-1.09.46l-.51.26a4.56,4.56,0,0,1-.92.16,3.29,3.29,0,0,1-.59-.16,2.66,2.66,0,0,1-.55-.55,2,2,0,0,0-.79-.63,4.05,4.05,0,0,0-2.19,1.26c0,.06-.17.08-.33.08l-.76-.08-.5.17q-.18-2.94-.34-16.89-.09-4.78-.08-14.53,0-5.62.75-23.6a3.12,3.12,0,0,1,1.26-.26l4.79.76a1.21,1.21,0,0,0,.84-.42,4,4,0,0,0,.21-.5,4.28,4.28,0,0,1,.25-.55q.13-.21.21-.21c.11,0,.2.2.25.59l.09.42-.09.59v3a2,2,0,0,0,.3.8,2.84,2.84,0,0,0,.5.54l.38.34c.06-.5.1-1.27.13-2.31a14.1,14.1,0,0,1,.21-2.43,3.79,3.79,0,0,1,.5-1.39v6c0,1,0,1.68-.08,2.19q-.09,2.1-.09,6.38l-.17,19.32q2.94-3.43,11-12.22t10.41-11.55l.51-7.06a3.29,3.29,0,0,1,1.26-.25,9,9,0,0,1,1.93.3,9.65,9.65,0,0,0,1.76.29l1.1.17a1.14,1.14,0,0,0,.84-.51,1.37,1.37,0,0,0,.29-.5,5,5,0,0,1,.25-.55q.13-.21.21-.21c.06,0,.17.2.34.59v4.37a2.29,2.29,0,0,0,.59,1,2.91,2.91,0,0,1,.5.59C1011.53,382.19,1011.69,381.32,1012,381.32Z"/>
    <path d="M1058,405.09q2.85,2.87,2.85,9.41a33.09,33.09,0,0,1-.92,8,14.26,14.26,0,0,1-3.15,5.08,13.55,13.55,0,0,1-3.57,2.73,18.71,18.71,0,0,1-4.79,1.94,27.33,27.33,0,0,1-5,.42,25.2,25.2,0,0,1-4.53-.34,32.44,32.44,0,0,1-4.29-1.09,50,50,0,0,1-7.89-3.11,59.63,59.63,0,0,1-6.89-4.2,3.2,3.2,0,0,0,.67-.59c.34-.45.56-.67.67-.67a13.54,13.54,0,0,0,1.85-.09c.67-.16,1.06-.41,1.18-.75a2.25,2.25,0,0,0-.42-.92,2.31,2.31,0,0,1-.38-.59,2.4,2.4,0,0,0-.38-.59c0-.39.31-.78.93-1.18l.92-.42a4.16,4.16,0,0,0,1.34-.5.88.88,0,0,0,.34-.76c0-.11-.14-.3-.42-.58a1.71,1.71,0,0,1-.5-1,64.79,64.79,0,0,0,6.13,3.69,41.94,41.94,0,0,0,6.3,2.69,27.47,27.47,0,0,0,4.45.76l1,.08a11.23,11.23,0,0,0,3-.42,6.61,6.61,0,0,0,3-1.68,5.59,5.59,0,0,0,1.09-2.65,9.73,9.73,0,0,0-.17-4.36,4.83,4.83,0,0,0-2.69-3.4,13.46,13.46,0,0,0-6-1.1l-.26-.75-4.19,1.34a1.11,1.11,0,0,1,.46-.88c.3-.25.29-.46,0-.63a7.08,7.08,0,0,0-.59-.67l-.59-.59-.17-.17a1.62,1.62,0,0,1-.5-1.17,1.25,1.25,0,0,1,.29-.59,1.32,1.32,0,0,0,.3-.67l-.26-.59.59-3.11,3.95-1.34c1.68-.73,2.69-1.18,3-1.35l2.78-1.18a1.65,1.65,0,0,0,1.09-1.38,4.67,4.67,0,0,0-.25-2.56,5.49,5.49,0,0,0-4.71-3.36,4.59,4.59,0,0,0-1.18-.09,9.35,9.35,0,0,0-2.68.34c-.17.06-.62.15-1.35.29a14,14,0,0,0-1.59.38c-.39.17-.91.37-1.56.59s-1.1.39-1.38.5a33.34,33.34,0,0,0-5.8,2.94c-.22-.28-.14-.57.25-.88a8.07,8.07,0,0,1,1.77-1,7.15,7.15,0,0,0,1.59-.84l2.36-1a3.39,3.39,0,0,0,1.38-.55,11.22,11.22,0,0,1,1.22-.63,1.76,1.76,0,0,1-.42-.12,4.68,4.68,0,0,0-.67-.21l-.09-.09h-.33a4.34,4.34,0,0,0-1.26.25,13.58,13.58,0,0,0-3.11,1.43,24.21,24.21,0,0,1-3.11,1.51,3.5,3.5,0,0,1-.84.25.47.47,0,0,1,.09-.33l1.34-1.26a1.25,1.25,0,0,0,.34-.92.86.86,0,0,0-.09-.51l-.75-.67a8.71,8.71,0,0,0-1.85-1.85A2.13,2.13,0,0,1,1024,385l.25-.67c1.12-.68,2.8-1.54,5-2.61,1.68-.67,3.55-1.31,5.63-1.93a23.11,23.11,0,0,1,6.46-1,14.66,14.66,0,0,1,3.7.42,22.56,22.56,0,0,1,3.44,1,31.82,31.82,0,0,1,3.36,2,15.25,15.25,0,0,1,2.69,2.43c.22.28.56.74,1,1.39s.78,1.13,1,1.47l1.51,3a.27.27,0,0,0,.08.17,15.53,15.53,0,0,1,.51,4.28,7.59,7.59,0,0,1-.76,3,8.45,8.45,0,0,1-1.17,2.14,12,12,0,0,1-2.78,2.18,1.53,1.53,0,0,1-.58.42A11.13,11.13,0,0,1,1058,405.09Z"/>
    <path d="M1114.2,384q.42.17,1.34,24.23t.93,28.52a1.32,1.32,0,0,1-.38-.63c-.14-.36-.32-.54-.55-.54a6.8,6.8,0,0,0-.75.16,8.83,8.83,0,0,0-1.85.93,1.82,1.82,0,0,1-.92.17l-.51-.17a2.77,2.77,0,0,1-.59-.67,1.2,1.2,0,0,0-.67-.59l-.25-.09c-.34,0-1,.45-2,1.35l-1.68.17q-.16-8.82-.5-17.31l-.76-19.49c-.16.23-.4.55-.71,1a7.71,7.71,0,0,1-.8,1l-1.09,1.27-.17.25-1,1.17-7.3,6.47-2.78-3-2.77-3.19-2.69-2.86a27.07,27.07,0,0,1-1.93-2.1l-1.17-1.43q.08.76.75,11.59l1.35,21.42c-.23,0-.41-.16-.55-.5s-.29-.5-.46-.5a1.66,1.66,0,0,0-.67.08,4.7,4.7,0,0,0-1.85.84c-.56.11-.87.17-.93.17a3.92,3.92,0,0,1-.58-.17,2.24,2.24,0,0,1-.55-.55,1.63,1.63,0,0,0-.63-.54.48.48,0,0,0-.34-.09,1.29,1.29,0,0,0-.63.17,8.48,8.48,0,0,0-.75.51,5.41,5.41,0,0,0-.63.5l-.51.17-.67-.09a.64.64,0,0,0-.42.09q-.58-13.18-.84-16.05c-.22-3.41-.61-8.15-1.17-14.19q-1.1-12-1.18-23.44a2.59,2.59,0,0,1,1.18-.25l1.26.08a9.4,9.4,0,0,0,2.35.42l1,.09a1,1,0,0,0,.92-.51,1.35,1.35,0,0,0,.29-.46c.09-.19.16-.36.21-.5s.12-.21.17-.21.2.17.25.5a4.84,4.84,0,0,1,.17,1.51v1.1a7.46,7.46,0,0,0,.17,1.34,1.83,1.83,0,0,0,.29.71,1.92,1.92,0,0,0,.55.51,4.79,4.79,0,0,1,.42.29v-1.51a4.4,4.4,0,0,1-.76-1.85l.84,1.09c0-.16,0-.6-.08-1.3a6.87,6.87,0,0,1,0-1.59,1.2,1.2,0,0,1,.42-.8c0,.17.08,1.68.25,4.53l.93,1.18,2.35,2.94c.78,1,1.62,2,2.52,3s1.92,2.17,3.06,3.4l2.65,2.86c.11.11.31.34.59.67a4.9,4.9,0,0,0,.75.76l.42.58c0,.12,0,.17.09.17v.09l.25-.09.17-.25.5-.5a5,5,0,0,0,.84-1.09,21.21,21.21,0,0,0,1.85-2.27,30.21,30.21,0,0,0,3.19-5c.51-.84,1.18-2.05,2-3.61s1.34-2.5,1.51-2.78v-1.34a2.89,2.89,0,0,1,.84-.17l3.19-.5c2.19-.34,3.42-.51,3.7-.51.11,0,.17.17.17.51v3.53c0,1.28.22,1.93.67,1.93a.51.51,0,0,0,.33-.13,1.38,1.38,0,0,0,.3-.29C1114.24,384.07,1114.26,384,1114.2,384Zm-32.76.17a1.78,1.78,0,0,0,.8.17h.63c-.23-.28-.49-.65-.8-1.1l-.71-1C1081.41,382.75,1081.44,383.39,1081.44,384.18Z"/>
  </g>
  <g>
    <path d="M521.58,330.14a5.79,5.79,0,0,1,.26-1.44c.18-.62.7-.66,1.58-.13-3,0-5.13-.49-6.44-1.45s-3-2.15-5.13-3.55h2.89a5.4,5.4,0,0,0-2.49-2.1c-1.15-.53-2.33-1-3.56-1.45s-2.41-.88-3.55-1.32-1.8-1-2-1.71c-.35-1.22-.57-2.06-.66-2.49s-.83-.66-2.23-.66h-.53l-1.05.52c-.18,0-.39-.3-.66-.92s-.57-1.31-.92-2.1a17.44,17.44,0,0,1-.79-2.1,6.47,6.47,0,0,1-.26-1.19c-3.16-.35-5.17-1.05-6.05-2.1s-2.1-2.72-3.68-5h-.79a.73.73,0,0,0-.26.53v.79l-2.11-3.95h.53a5.43,5.43,0,0,1,3.16.92,4.94,4.94,0,0,0,2.89.92l1.05-.52h2.63a20.8,20.8,0,0,0-3.16-3,6.23,6.23,0,0,0-3.68-1.71c-.52,0-.75.27-.65.79s-.14.79-.66.79a2.51,2.51,0,0,1-2.11-1.05h2.11q-1.32-1.57-3.42-3.82c-1.41-1.48-2.89-2.05-4.47-1.7l.79-.53a12.15,12.15,0,0,1-3.29-1.32,3,3,0,0,1-2-2.63v-.52a10.09,10.09,0,0,0,2.5,1.44,27.43,27.43,0,0,0,2.76,1.19h1.05a20.29,20.29,0,0,0-6.84-5.92,29.67,29.67,0,0,0-8.42-3.55c-.17,0-.26-.17-.26-.53a.23.23,0,0,0-.26-.26l.52-.79c-1.4-1.4-2.85-2.76-4.33-4.07a43,43,0,0,0-4.61-3.55l-4.21-2.77a18.25,18.25,0,0,0-2.89-1.71h-1.31v17.36l-.53.53.26.26a.76.76,0,0,0,.27.53v.52c0,.18,0,.66.13,1.45s.17,1.62.26,2.5.17,1.71.26,2.5.14,1.27.14,1.44a18.5,18.5,0,0,1-.27,2.24,9,9,0,0,1-.52,2.23,4.11,4.11,0,0,1-.79,1.06l-.79.79a.72.72,0,0,0-.26.52c0,.18,0,.62.13,1.32s0,1.13-.13,1.31q-.8,6.57-7.11,7.63v-.53c.18-.35.49-.88.93-1.58a4.24,4.24,0,0,0,.65-1.31v-.53a5.6,5.6,0,0,1-1.44-1.31c-.62-.7-1-1.05-1.19-1.05a2.06,2.06,0,0,0-.65.13,2.52,2.52,0,0,1-.66.13,8,8,0,0,0,.26,2.23,7.4,7.4,0,0,1,.26,2v.79L434,306v-5c0-.35-.35-.75-1.05-1.18a3.49,3.49,0,0,0-1.58-.66,4.17,4.17,0,0,0-.79.13c-.35.09-.52.22-.52.4L428.22,297v-5.66a8.1,8.1,0,0,1,.52-3,2.54,2.54,0,0,0,2.37,1.58,2.78,2.78,0,0,0,2.24-1.19,9.27,9.27,0,0,0,1.44-2.76,21.16,21.16,0,0,0,.79-3.16,16.46,16.46,0,0,0,.26-2.36,2.27,2.27,0,0,0-1.31-2.37l1.05-.79v-7.63l1.05,5.26c.53-1.75.92-3.15,1.19-4.2s.52-2.06.79-3a12.94,12.94,0,0,1,.65-2v-.26a73.24,73.24,0,0,0,.53-1.58,92.88,92.88,0,0,0-.79-12.1,92.66,92.66,0,0,1-.79-12.1v-.79c0-.17.17-.39.53-.65s.52-.48.52-.66l-1.05-.53a35.68,35.68,0,0,1-1.31-7.36,14,14,0,0,0-2.37-6.84v8.94h-3.16a2.37,2.37,0,0,0,1.58-1.71,11.83,11.83,0,0,0,.26-2.5v-.26a16.71,16.71,0,0,0-.26-2.37c-.18-1.05-.35-2.19-.53-3.41s-.35-2.37-.52-3.42a15.18,15.18,0,0,1-.26-2.11v1.58a11.55,11.55,0,0,0-.14-1.18,10.57,10.57,0,0,1-.13-1.45,1,1,0,0,1,.92-.53h.92a3.42,3.42,0,0,0,.53-1.44,9.41,9.41,0,0,0,.26-1.71c0-.53-.09-1.58-.26-3.16s-.79-2.45-1.84-2.63a1.86,1.86,0,0,0,2.1-2.1,5.38,5.38,0,0,0-.39-1.84,1.45,1.45,0,0,0-1.45-1,.78.78,0,0,0-.26-.53,2.45,2.45,0,0,0-.13-.66,2.84,2.84,0,0,1-.13-.92,2.28,2.28,0,0,1-.27-1,4.2,4.2,0,0,1,.27-1.05,4.62,4.62,0,0,0,.26-1.05,27.48,27.48,0,0,0-.4-4.34c-.26-1.67-1.36-2.33-3.28-2l2.63-2.36h-.79c-2.28.52-4.12.92-5.53,1.18a26.34,26.34,0,0,0-3.94,1.05c-1.23.44-2.1.75-2.63.92-.88.36-1.41.75-1.58,1.19s-.7.65-1.58.65a2.65,2.65,0,0,1-2.23-1.31,1.51,1.51,0,0,0-2.24-.53,23.53,23.53,0,0,1-.39-3.94c-.09-1.93-.13-3.24-.13-3.95v-.52a.24.24,0,0,0,.26-.27c0-.35.09-.52.26-.52L416,177a18.64,18.64,0,0,1,6.44-2.76c.17,0,.66-.05,1.45-.14l2.63-.26a11.45,11.45,0,0,0,2.63-.53,3.16,3.16,0,0,0,1.71-1.18,15.89,15.89,0,0,0,1.57-2.89c.35-.88,1.67-1.32,3.95-1.32h.79a10.86,10.86,0,0,1,1.84.27,8.15,8.15,0,0,1,1.84.52l-.53.27a99.9,99.9,0,0,1,13.81.39q6.45.66,13.55,1.71a11.68,11.68,0,0,1,5.91,2.37,13.57,13.57,0,0,0,5.66,2.63,14.26,14.26,0,0,0,3.68.65,11.38,11.38,0,0,1,3.42.66l.53.53.26.26a53.14,53.14,0,0,0,10.12,3.81,23.79,23.79,0,0,1,9.6,5.13l.79-1.58a16,16,0,0,0,4.74,5.92,45.91,45.91,0,0,1,5.52,5.13v.53a1.11,1.11,0,0,0,.13.52,1.18,1.18,0,0,1,.13.53c.18,0,.35.26.53.79a2.86,2.86,0,0,0,.52,1.05.87.87,0,0,0,.79-.4.9.9,0,0,1,.79-.39,8,8,0,0,0,1.45,3.42,19.81,19.81,0,0,0,2,2.89,4.39,4.39,0,0,0,.26,1.05,4.24,4.24,0,0,1,.27,1.06c.87,3,1.84,5.91,2.89,8.81a27.12,27.12,0,0,1,1.58,9.33V226a60.49,60.49,0,0,0-.66,6.7,52.37,52.37,0,0,1-.66,6.45,38.87,38.87,0,0,1-1.57,6.18A16.86,16.86,0,0,1,522.9,251a4,4,0,0,0-2.37,2.24c-.53,1.14-1,2.15-1.32,3a2.35,2.35,0,0,1-1.31.66,4.94,4.94,0,0,0-1.32.39v-1.84l3.16-3.15a9.43,9.43,0,0,1-1.45-.14c-.61-.08-1-.13-1.18-.13a3.39,3.39,0,0,0-2.5.92,3,3,0,0,1-2.23.92l-.53-.26-.26-.79c.87,0,1.35-.3,1.44-.92a13.53,13.53,0,0,0,.14-2,7.06,7.06,0,0,0-3.82.92,6.42,6.42,0,0,1-3.55.92,1.19,1.19,0,0,1-1.05-.39.88.88,0,0,0-.79-.4h-.26c-.36,0-.53.26-.53.79l.53.53a1.12,1.12,0,0,0-.53.13,1.79,1.79,0,0,1-.79.13,2.26,2.26,0,0,1-1.05.26h-.79a4.57,4.57,0,0,1-1.31-.52l-1.06-.53H485.29l-2.11-.79.53-1h5v-1.32h-8.16a2.67,2.67,0,0,1,1.71-1.05,3.59,3.59,0,0,0,1.45-.52l-.53-.53H472.93v-.26a3.14,3.14,0,0,0-2.24.65c-.44.44-1.45.66-3,.66v-1.05h-3.42q0,.53-.27.66c-.17.09,0,.31.53.66a.78.78,0,0,0-.53.26l-.52.52a3.47,3.47,0,0,0,.92,2.37,14.67,14.67,0,0,0,2.1,2,7,7,0,0,1,1.84,2.11,3,3,0,0,1,.4,2.23,38,38,0,0,0,3.81,2.76,15.91,15.91,0,0,1,3.55,3l-1.05.79a5.56,5.56,0,0,0,1.84,3.15q3.94,3.17,8,6.18t8,5.92a11.34,11.34,0,0,1,2.63,3.42,3.9,3.9,0,0,0,3.42,2.37.87.87,0,0,0,.79-.4.9.9,0,0,1,.79-.39,4.72,4.72,0,0,1,1.45.79l2.76,1.84c1.05.7,2,1.36,2.89,2a18.55,18.55,0,0,0,1.84,1.19,43.74,43.74,0,0,0,5.53,3.28,13.73,13.73,0,0,1,4.73,3.82c.35.88.79,1.31,1.32,1.31a3.42,3.42,0,0,0,.78-.13c.35-.09.53-.22.53-.39v-3.95c.53,1,1,2,1.32,2.89s.69,1.84,1,2.9h.79v-1.32c0-.35-.09-1.31-.27-2.89a12,12,0,0,0-.52-2.89h.79c0,.17.17.3.52.39s.53.22.53.39c.52,1.23.92,2.2,1.18,2.9a8.32,8.32,0,0,1,.4,2.89v1.05c0,.53-.18.79-.53.79a12.47,12.47,0,0,1,.92,2.89c.26,1.23.74,1.85,1.45,1.85v-1.06h.79a39.42,39.42,0,0,0,.79,5.53,23.39,23.39,0,0,1,.65,3.81c.09,1.14.22,1.71.4,1.71a2,2,0,0,0,.52.92,6.72,6.72,0,0,1,.79,1.18,1.8,1.8,0,0,1-.52,1.32,1.75,1.75,0,0,0-.53,1.31,10.48,10.48,0,0,0,1.45,4.61c1,1.84,1.62,3.19,2,4.07a.87.87,0,0,0-.26.66.9.9,0,0,1-.27.66H535l-.52-1.05a2,2,0,0,1-.26-.79,1.8,1.8,0,0,1-1.85,1.44,3.69,3.69,0,0,1-2.36-.39,13.72,13.72,0,0,0,2.36,1.58c1.23.7,1.85,1.48,1.85,2.36a15.27,15.27,0,0,0-4.61.92,25.67,25.67,0,0,1-3,.92,4.77,4.77,0,0,1-3.42-1.57A5.07,5.07,0,0,1,521.58,330.14ZM423.22,190.75a1.94,1.94,0,0,1-1.32,1.71,5,5,0,0,1-2.1.66q0-2.37,3.42-2.89ZM434.53,215a.47.47,0,0,0-.53.53.46.46,0,0,0,.53.52c.35,0,.52-.13.52-.39S434.88,215.13,434.53,215Zm2.1,40.5c0,.36,0,1.23-.13,2.63s-.57,2.11-1.45,2.11a12.51,12.51,0,0,1,.53-3.42c.35-1.23.7-2.54,1.05-3.95Zm0,20.52c-.35,0-.52.22-.52.65s.17.66.52.66.53-.22.53-.66S437,276,436.63,276Zm5-58.39a11.75,11.75,0,0,1,.53,3.42q.25,3.15.65,7.1t.79,7.63a32,32,0,0,0,.66,4.47q.25,1.32.66,3.81c.26,1.67.48,2.5.65,2.5h.53v-2.63a8.88,8.88,0,0,0,2.1-.26,9.27,9.27,0,0,0,1.58-.13,8.14,8.14,0,0,1,1.32-.14,6.33,6.33,0,0,0,1.71-.39c.79-.26,1.66-.53,2.63-.79s1.84-.53,2.63-.79a4.19,4.19,0,0,0,1.44-.66,1.21,1.21,0,0,0,.66-.26,1.3,1.3,0,0,1,.66-.26,43.41,43.41,0,0,0,9.34-.4q3.81-.65,9.07-1.71,5.77-1,11.83-1.84A43.86,43.86,0,0,0,502,233.49a19.37,19.37,0,0,0,8-5.92q3.15-3.94,3.16-11.57a36.38,36.38,0,0,0-.4-4.47c-.26-1.93-.92-3.24-2-3.94a.76.76,0,0,1-.53-.27c-.52-.52-.79-.7-.79-.52a1,1,0,0,1-.26-1.19c.17-.43-.09-.65-.79-.65h-.26c-.53,0-1,.44-1.32,1.31a5.08,5.08,0,0,1,1.32,1.18,4.66,4.66,0,0,0,1.31,1.19l.27.52-.27.27a14.61,14.61,0,0,1-2.49-1.32c-1.15-.7-2.33-1.44-3.56-2.23l-3.28-2.11c-1-.61-1.45-1.09-1.45-1.44h.53a6.06,6.06,0,0,1,3.42,1.31A5.73,5.73,0,0,0,505.8,205h.53c.17,0,.3-.18.39-.53a3.4,3.4,0,0,0,.13-.79v-.52a26.19,26.19,0,0,1-5.12-2.37q-3.3-1.84-5.13-2.63h.52a8,8,0,0,1,4.61,1,20.36,20.36,0,0,0,3.81,2.1v-.52c0-.88-.88-1.8-2.63-2.76a18.19,18.19,0,0,1-3.16-2l1.58-.78a2,2,0,0,0-1.84-.79,3,3,0,0,0-1.32.26,3.81,3.81,0,0,1-3-2.24c-.44-1.13-1.62-1.71-3.55-1.71l-1.05.53a2,2,0,0,1-.79.26,5.12,5.12,0,0,1-2.63-1,6.86,6.86,0,0,0-1.58-.79v-.79h-3.16a.7.7,0,0,0,.79-.79,6.88,6.88,0,0,0,1.58-.26,7.49,7.49,0,0,1,1.58-.26c0-.17-.75-.48-2.24-.92a34.9,34.9,0,0,0-5-1.05c-1.84-.27-3.6-.53-5.26-.79a25.51,25.51,0,0,0-3.55-.4,4.67,4.67,0,0,0-2.11.4,4.77,4.77,0,0,1-2.1.39h-1a.73.73,0,0,1-.53-.26l-.53-1.05-.52,1.05L459,186.55a3.16,3.16,0,0,0-.79-.53c-.35-.17-.53-.35-.53-.53h-.79a4.5,4.5,0,0,1-1.57.66,10,10,0,0,1-1.58.4h-.53a3.3,3.3,0,0,1-1.05-.4,4,4,0,0,1-1-.66h-.27a7.28,7.28,0,0,0-2,.53,28.08,28.08,0,0,0-3,1.32l-2.9,1.44c-.87.44-1.31.75-1.31.92Zm7.63,27.88h.79v-1.05Zm2.63,5h.79l-.79-1.85-.79,1.06Zm0-6.58c-.36,0-.53.26-.53.79s.17.79.53.79.52-.26.52-.79S452.24,243.88,451.89,243.88Zm11.57,28.93a.47.47,0,0,0-.53.53.46.46,0,0,0,.53.52.46.46,0,0,0,.52-.52A.46.46,0,0,0,463.46,272.81Zm4.21-99.15c.35-.35,0-.53-1.06-.53s-1.49.18-1.31.53c.17.18.61.26,1.31.26S467.67,173.84,467.67,173.66Zm2.1,8.68c-.35,0-1.18,0-2.5.13s-2,.31-2,.66v1.31a10.21,10.21,0,0,0,3.42-.66,17.56,17.56,0,0,0,3.15-1.44Zm8.94,1.58h1.84l-1.84-.79Zm2.63,102.3c-.17-.17-.26-.08-.26.27s.09.44.26.26A.33.33,0,0,0,481.34,286.22Zm-.26,2.37a1,1,0,0,0,.79,1.05,4.17,4.17,0,0,0,1.31.27l.27-.27c0-.52-.31-.83-.92-.92A12.47,12.47,0,0,0,481.08,288.59Zm2.1-6.84a38.56,38.56,0,0,0,5,5.13q3.15,2.76,6.05,2.76c0-.35-.49-1-1.45-1.84s-2-1.75-3.15-2.63-2.28-1.66-3.42-2.37a5.89,5.89,0,0,0-2.5-1.05Zm7.63,19.73c.35.35.88.92,1.58,1.71a2.9,2.9,0,0,0,2.1,1.18h.27q0-.27.78-1.05a4.51,4.51,0,0,0-3.94-1.84Zm.79-5.53a.53.53,0,1,0,.53.53A.47.47,0,0,0,491.6,296Zm6.57,6.84a5.75,5.75,0,0,1-1.18,1.58,1.44,1.44,0,0,1-.52.26h-.4c-.18,0-.35.27-.53.79h3.95a.85.85,0,0,0-.53-.79,2.07,2.07,0,0,0-.79-.26l.53-1.05Zm1.58,7.89a.46.46,0,0,0-.52.53.46.46,0,0,0,.52.52.46.46,0,0,0,.53-.52A.47.47,0,0,0,499.75,310.68Zm.79-1.31c-.35,0-.52.21-.52.65s.17.66.52.66.53-.22.53-.66S500.89,309.37,500.54,309.37Zm.53-3.42a2.35,2.35,0,0,0,.92,1.84,3,3,0,0,0,2,.79h.53c-.36-.36-.84-.88-1.45-1.58A2.64,2.64,0,0,0,501.07,306Zm2.63,5.26c0-.35-.09-.53-.27-.53s-.26.18-.26.53.09.52.26.52S503.7,311.56,503.7,311.21Zm1.84-1.84c0-.36-.13-.53-.4-.53s-.3.17-.13.53a.24.24,0,0,0,.27.26A.23.23,0,0,0,505.54,309.37Zm2.1,7.62v-.78h-2.1Zm-1.31-115.72a.53.53,0,1,0,.52.53A.47.47,0,0,0,506.33,201.27Zm3.42,114.41c0,.87.61,1.31,1.84,1.31h.26a.69.69,0,0,0,.79-.78,1.28,1.28,0,0,0-.92-.27,1.3,1.3,0,0,1-.92-.26Zm6-65.22a1.07,1.07,0,0,0-1.06.52h1.06Zm3.41,76q-.78,0-.78.66t.78.66c.35,0,.53-.22.53-.66S519.56,326.46,519.21,326.46Zm1.06-5.26a2.26,2.26,0,0,0,.79,1.58l1.31,1.32V323C522.37,321.81,521.67,321.2,520.27,321.2Z"/>
    <path d="M590.75,305.42a.78.78,0,0,1-.53-.26.23.23,0,0,1-.26-.26c0-1.06.7-1.76,2.11-2.11a4.63,4.63,0,0,1-1.85-.66,2.63,2.63,0,0,0-1.57-.39,2.37,2.37,0,0,1-.92,1.84,3.32,3.32,0,0,1-2.24.79h-.79a5.41,5.41,0,0,0-1.05-2.1c-.7-1.06-1.14-1.76-1.32-2.11a7.17,7.17,0,0,0-3.41-1.31,36,36,0,0,1-4.21-1.05,1.09,1.09,0,0,1-.66-.4,1.09,1.09,0,0,0-.66-.39,4.57,4.57,0,0,0-1.31.52,2.34,2.34,0,0,1-1.05.27h-.79a2,2,0,0,1-1.84-.79,55.28,55.28,0,0,1-5.13,2.49,14.06,14.06,0,0,1-5.39.93,4.46,4.46,0,0,1,2.36-3.69A30,30,0,0,1,565.5,294c1.93-.79,3.64-1.44,5.13-2s2.24-1,2.24-1.32h1.84a4,4,0,0,1,2,.4,2.79,2.79,0,0,0,1.45.39,1.78,1.78,0,0,0,1-.39,2.15,2.15,0,0,1,1.31-.4,3.05,3.05,0,0,1,1.71.66,2.84,2.84,0,0,0,1.45.66,10.48,10.48,0,0,0,1.18-.13,4.81,4.81,0,0,0,1.45-.4,1.11,1.11,0,0,1,.26-.79.53.53,0,0,1,.13-.39.53.53,0,0,0,.14-.39A10.73,10.73,0,0,1,588,290a2.53,2.53,0,0,0,1.45-.13c.17,0,.48-.27.92-.79s.74-.79.92-.79h.26c.17,0,.26,0,.26-.13s.09-.14.27-.14v.53c1,0,2.67-.09,4.86-.26s4.47-.44,6.84-.79,4.56-.75,6.57-1.19a8.67,8.67,0,0,0,3.82-1.44c2.27-1.93,4.69-5.13,7.23-9.6a138.17,138.17,0,0,0,7.1-14.47,146.28,146.28,0,0,0,5.39-14.72q2.1-7,2.11-10.13a24.37,24.37,0,0,0-8,1.32c-2.54.87-5.21,1.84-8,2.89-.52,0-1.49,0-2.89.13s-2.94.22-4.6.39-3.25.31-4.74.4-2.49.13-3,.13h-.79a58.18,58.18,0,0,1-17.75-2.89,73.15,73.15,0,0,1-17-7.89,65.55,65.55,0,0,1-14.07-12,48.78,48.78,0,0,1-9.33-15.38c-.36-1.06-.88-2.46-1.58-4.21s-1.36-3.51-2-5.26-1.19-3.33-1.71-4.74a11.27,11.27,0,0,0-1-2.36c-.36-1.06-.79-2.46-1.32-4.21a15.84,15.84,0,0,1-.79-4.47,29.76,29.76,0,0,1,.26-3.42c.18-1.4.7-2.11,1.58-2.11h.27a.72.72,0,0,0,.52.27,1.09,1.09,0,0,0,.79.26,5.94,5.94,0,0,0,2.5-.53,6.25,6.25,0,0,1,2.5-.52,2.28,2.28,0,0,1,2,.92,10.81,10.81,0,0,1,1.18,2.23q2.1,5.79,4.34,11.58a99.16,99.16,0,0,0,5.13,11.17A70.11,70.11,0,0,0,565.11,208a42,42,0,0,0,9.07,8.55,15,15,0,0,0,3.42,2.1q2.63,1.32,5.39,2.63t5.13,2.63a23.87,23.87,0,0,1,2.63,1.58q5,.53,9.86,1.32a63.9,63.9,0,0,0,10.13.78,32.73,32.73,0,0,0,12.23-2,31.63,31.63,0,0,0,10.12-7.23,35.2,35.2,0,0,1,4.74-4,11.2,11.2,0,0,0,3.94-5c.18-1.05.35-2.81.53-5.26s.35-5,.52-7.76.35-5.35.53-7.89.26-4.34.26-5.39a24.87,24.87,0,0,0,.27-4.74,24.81,24.81,0,0,0-.27-4.73,1.46,1.46,0,0,1,1.19-.66c.61-.08,1-.13,1.18-.13h1.84l1,.79a.8.8,0,0,0,.53-.26c.35-.35.61-.53.79-.53h.26a10.23,10.23,0,0,1,3.42.79,4.63,4.63,0,0,1,2.63,1.84c0,.88,0,2.72.13,5.52s.13,4.65.13,5.53q0,10-.52,19.59a183.53,183.53,0,0,1-2.11,19.33,36.32,36.32,0,0,1-1.58,6.44,37.83,37.83,0,0,0-1.57,6.18q-1.58,7.89-3.69,15.52l-4.2,15.26a3.23,3.23,0,0,1-1.84,2.1,2,2,0,0,0-1.32,2.1v.27c.7,1.05,1.4,1.57,2.11,1.57,0,1.06-1,2.63-2.9,4.74a25,25,0,0,0-3.68,4.73c-.18,0-.22.18-.13.53a4.05,4.05,0,0,1,.13.79,19.16,19.16,0,0,1-1.71,1.44,2.76,2.76,0,0,0-1.18,2.24,4,4,0,0,0-4,2.1A19.62,19.62,0,0,0,627,296h.53a2,2,0,0,0,1.18-.52,7,7,0,0,1,1.19-.79v.53l-3.16,3.15a2.8,2.8,0,0,0-2.1.79c-2.46,1.58-4.65,2.89-6.58,3.95a33.05,33.05,0,0,1-5.78,2.49,43.08,43.08,0,0,1-6.05,1.45,45.44,45.44,0,0,1-7.37.53c-1.57,0-2.94,0-4.07-.14a10.51,10.51,0,0,1-4.08-1.44ZM572.87,296a.53.53,0,1,0,.52.53A.47.47,0,0,0,572.87,296Zm10.78-2.1c-.35,0-.53.13-.53.39s.18.4.53.4C584.18,294.64,584.18,294.38,583.65,293.85Zm1.84-.53c-.35,0-.53.23-.53.66s.18.66.53.66.53-.22.53-.66S585.84,293.32,585.49,293.32Zm2.89,0a2.5,2.5,0,0,0-1.57.66c-.53.44-1,.84-1.32,1.19a.23.23,0,0,0,.26.26h1.06a4.23,4.23,0,0,0,1.7-.4c.62-.26.75-.83.4-1.71Zm-2.89,10c.17.52.44.52.79,0Zm40.24-78.9a.53.53,0,1,0,0,1.05c.53,0,.79-.17.79-.53S626.26,224.42,625.73,224.42ZM627,292.8c-.17,0-.26.18-.26.52s.09.53.26.53a.53.53,0,1,0,0-1.05Zm.79-69.43c-.35,0-.52.26-.52.79s.17.78.52.78.53-.26.53-.78S628.18,223.37,627.83,223.37Zm4.47,2.1c.7.35,1,1.1.79,2.24s.44,1.71,1.84,1.71c.53,0,.7-.62.53-1.85s.44-2.1,1.84-2.63c.17-.87.09-1.35-.26-1.44a4.19,4.19,0,0,0-1-.13,7.4,7.4,0,0,0-3.69,1l.79.52Zm.79,3.95c-.35,0-.52.22-.52.65s.17.66.52.66q.27,0,.27-.66C633.36,229.64,633.27,229.42,633.09,229.42Zm.27,57.07c.17-.35.13-.53-.14-.53s-.3.18-.13.53Zm2.1-65a1.77,1.77,0,0,1-.79.39c-.35.09-.53.22-.53.39v.53Zm2.63,1.31c-.35,0-.53.26-.53.79s.18.79.53.79.53-.26.53-.79S638.44,222.84,638.09,222.84Z"/>
    <path d="M779.32,278.07c-.18-.35-.49-1-.92-2s-.75-1.62-.92-2c-.18,0-.27-.05-.27-.14s-.09-.13-.26-.13a.23.23,0,0,1-.26-.26h-1.84a14.57,14.57,0,0,0-.79-1.32,2.54,2.54,0,0,1-.53-1.31h-6.31a1.77,1.77,0,0,0-1.58-.79,5.06,5.06,0,0,0-1.57.26,16.88,16.88,0,0,1-2-.39,18.77,18.77,0,0,0-2-.4,2,2,0,0,0-.79.27c-.35.17-.53.35-.53.52H752l.52-.79a50.11,50.11,0,0,1-9.6-.39,67.72,67.72,0,0,0-9.07-.66,4.05,4.05,0,0,0-.79.13c-.35.09-.53.23-.53.4h-7.36l-2.1-1.05a6.27,6.27,0,0,0-2.11-.79h-1.84a13.34,13.34,0,0,1-1.84-.4,14.24,14.24,0,0,0-1.84-.39c-.88,0-2.63-.09-5.26-.26s-4.3-.27-5-.27c-.17,0-.26,0-.26-.13s-.09-.13-.26-.13a.76.76,0,0,1-.53-.26h-1.05a.78.78,0,0,1-.53.26.76.76,0,0,0-.52.26v-.52h-.79l-4.47,4.2v-1.31a77.33,77.33,0,0,1,.52-1c-.17-2.28-1.49-3.42-3.94-3.42q-2.12,0-4.6,2.76a9.63,9.63,0,0,0-2.77,5.13h.79a1.06,1.06,0,0,1-.52,1.05,1.05,1.05,0,0,0-.53,1.05.93.93,0,0,0-1.05,1.05l.53.79c-.36.18-.75,1.1-1.19,2.76a27.26,27.26,0,0,0-.66,2.77.7.7,0,0,1,.79.79l-.52.52a.76.76,0,0,0-.27.53v.26c-.17,0-.26.75-.26,2.24a15.12,15.12,0,0,1-.26,3.28v.79c.52-.17,1.49-.43,2.89-.79a4.54,4.54,0,0,0,2.63-1.31,13.23,13.23,0,0,0,2.76-4.34c.44-1.32,1.62-2.41,3.55-3.29a.54.54,0,0,0,.13.4.53.53,0,0,1,.14.39,1,1,0,0,1-.27.79,1.11,1.11,0,0,0-.26.79h1.32a5.82,5.82,0,0,1-.79,2.76,9.26,9.26,0,0,1-1.32,2l.53.53c.17.17,0,.66-.53,1.44a12.11,12.11,0,0,1-1.31,1.71c0,.18-.18.36-.53.53a3,3,0,0,0-.79.53c-.18,0-.39.22-.66.65a5,5,0,0,1-.65.92c-.18,0-.27-.08-.27-.26l-.26-.26h-.26c-.53,0-.84.18-.92.52a4.35,4.35,0,0,0-.14,1.06,10.64,10.64,0,0,0,.14,1.44c.08.62.39.92.92.92h.52a.74.74,0,0,0,.53-.26l.52-.53v.79q0,3.17-3.15,6.18a14,14,0,0,0-3.95,5.66h-5.26a1.23,1.23,0,0,1-1.31,1.05c-1.23,0-1.84-.35-1.84-1.05a2.15,2.15,0,0,1,.39-1.32,1.71,1.71,0,0,0,.4-1.05c0-.88-.36-1.23-1.05-1v-4.47a11.16,11.16,0,0,1-2.77-.26c-.61-.18-.83-1.23-.65-3.16a9,9,0,0,1,.65-1.84,7.11,7.11,0,0,0,.66-2.11,3.73,3.73,0,0,0-1.18-3.41c-1-.88-1.45-1.41-1.45-1.58a1.53,1.53,0,0,1,.26-1.05,2.69,2.69,0,0,0,.27-1.58,9.53,9.53,0,0,0-.27-2.37,10.06,10.06,0,0,1-.26-2.37v-.26a7.16,7.16,0,0,0,1.32-.92,7.31,7.31,0,0,1,1.31-.92c0-.35.26-.74.79-1.18a6.84,6.84,0,0,1,1.32-.92c0-.18.34-.18,1.05,0s1.13.17,1.31,0a10.16,10.16,0,0,0,1.32-3.42,15.5,15.5,0,0,1,1.31-3.69,33,33,0,0,1,3.16-4.2,7.39,7.39,0,0,0,1.84-5,2.72,2.72,0,0,0-2.24-2.76,13.33,13.33,0,0,0-3.55-.66l1.32-2.63c.35.35.79,0,1.31-.92a3.15,3.15,0,0,1,1.84-1.71h6.32c.52,0,1.09-.39,1.71-1.18a27,27,0,0,0,1.84-2.76c.61-1.06,1.18-2.06,1.71-3a9.2,9.2,0,0,1,1.31-2,4.16,4.16,0,0,1,2.5-1.45,3.73,3.73,0,0,0,2.5-1.71,10.06,10.06,0,0,1-.79-.92,2,2,0,0,1-.53-.92v-.52q1.05-1.84,1.71-3a19,19,0,0,1,1.45-2.23,4.69,4.69,0,0,1,1.31-1.32h.79c0,.18.09.26.27.26l.26.27a7.73,7.73,0,0,0,.53.92,1.31,1.31,0,0,1,.26.65c-.18,0-.53.27-1.05.79s-.88.79-1.06.79a19.12,19.12,0,0,0-.78,2.11,10.09,10.09,0,0,0-.53,1.84,5.31,5.31,0,0,1-.79,2c-.53,1-.88,1.62-1,2a2,2,0,0,0-2.37.53,9.41,9.41,0,0,0,.26,1.71,8.81,8.81,0,0,1,.27,1.71v.52l-.53,1.06a4.62,4.62,0,0,0,.26,1,4.2,4.2,0,0,1,.27,1.05,4.05,4.05,0,0,1-.13.79,4.21,4.21,0,0,0-.14,1.05c.88,0,1.32,0,1.32.13s.26-.13.79-.66a20.91,20.91,0,0,1,2.63-3.15l1.84-1.84a20.27,20.27,0,0,0,3-5.66,20.83,20.83,0,0,1,2.76-5.39,66.89,66.89,0,0,0,4.61-5.26q2.76-3.42,5.92-3.42a5.53,5.53,0,0,1-1.85,3.95c-1.22,1.23-2.54,2.5-3.94,3.81l-4,3.68a4.77,4.77,0,0,0-1.84,3.29,5.14,5.14,0,0,0,2.76-1.31q1.71-1.32,3.56-2.77t3.81-2.76a6.64,6.64,0,0,1,3.55-1.31v.26l.53.26a.72.72,0,0,0,.52.27,2.34,2.34,0,0,1-.39.92c-.27.44-.49.83-.66,1.18l-5.52,5.52a2.16,2.16,0,0,1-1.32.79v-.79l4.47-4.47v-.52a7.73,7.73,0,0,0-6.18,3,38.2,38.2,0,0,0-4.08,5.92q-.26-.79-.78-.66a4.33,4.33,0,0,1-1.06.13v1.84h.79l1.05.53v.26a3.47,3.47,0,0,1-1.05,2.24,6.17,6.17,0,0,0-1.31,2c1.4,1.41,3.46,2.06,6.18,2a26.5,26.5,0,0,1,7.23.66h32.61a11.83,11.83,0,0,1,4.74-1.18c1.75-.09,3.33-.13,4.73-.13a2.12,2.12,0,0,1,.79.26c.35.17.53.35.53.52.69-.52,1.31-1,1.84-1.44a2.14,2.14,0,0,0,.79-1.71,8.48,8.48,0,0,0-2.63-5.92,17.8,17.8,0,0,1-5.53-9.6,18.73,18.73,0,0,1-.79-4.47.78.78,0,0,1,.27-.53.53.53,0,0,1,.13-.39.53.53,0,0,0,.13-.39,5.75,5.75,0,0,0-1.32-2.63,21.81,21.81,0,0,0-1.84-2.37,24.86,24.86,0,0,1-1.31-3.16,17.07,17.07,0,0,0-1.18-2.76,7.81,7.81,0,0,0-1.71-2.1,6.25,6.25,0,0,0-3.42-1.19v-.52l.52-.53a5.93,5.93,0,0,0-.26-1.45,5.39,5.39,0,0,1-.26-1.18c0-.17-.31-.39-.92-.66a4.41,4.41,0,0,1-1.19-.65,12.51,12.51,0,0,1-.65-3.42c-.27-2.11-.62-4.34-1.06-6.71a54.32,54.32,0,0,0-1.57-6.44c-.62-1.93-1.28-2.9-2-2.9l-.26.27a.7.7,0,0,0-.79.79h-.26c-.53,0-.84-.22-.92-.66a3.26,3.26,0,0,1,0-1.32,7.18,7.18,0,0,0,.13-1.31c0-.44-.26-.66-.79-.66h-5.26a.46.46,0,0,1-.53-.52v-.79a3.26,3.26,0,0,1,1.71-2.9,3.46,3.46,0,0,0,1.71-3.15.24.24,0,0,0-.26-.27,2.54,2.54,0,0,0-1.84-.78c.87-2.28,1.58-4,2.1-5.26a54.51,54.51,0,0,0,1.84-5.26,5.79,5.79,0,0,0-.92-3.42,8.4,8.4,0,0,1-1.18-3.95.23.23,0,0,0,.26-.26l.27.26.52.53.26.26a5.09,5.09,0,0,0,3-1,5.45,5.45,0,0,1,3.29-1.05c1.58,0,2.93,1,4.07,2.89a21.9,21.9,0,0,1,2.24,4.73,15.68,15.68,0,0,1,1.31,3.82,21.07,21.07,0,0,1,.79,3.81,1.79,1.79,0,0,0-.79,1.58,12.86,12.86,0,0,0,2.37,6.84,9.11,9.11,0,0,1,1.58,7.1l5.26,10.25v1.32c0,.88-.57,1.49-1.71,1.84a10.51,10.51,0,0,1-3,.53,3.09,3.09,0,0,1-2.89-1.32,10.34,10.34,0,0,1-1.18-3,20.65,20.65,0,0,0-.92-3,2.05,2.05,0,0,0-2.11-1.31,34.24,34.24,0,0,0,.79,7.62c.53,2.29,2.28,4.21,5.26,5.79-.7.18-1,.31-.79.39s.27.31.27.66h.52c.7,0,1-.17,1-.52v1.84h1.58v-2.37a2,2,0,0,1,.79,1.45,9.41,9.41,0,0,1,.26,1.71l-.52.52a.76.76,0,0,0-.26.53.24.24,0,0,1-.27.26,4.67,4.67,0,0,0,1,2,18,18,0,0,0,1.32,1.71c0,.18.17.44.53.79a.8.8,0,0,1,.26.53l-.79.79v.26a4.52,4.52,0,0,0,.92,2.63,19.36,19.36,0,0,0,2.24,2.63c.87.88,1.75,1.71,2.63,2.5a17.41,17.41,0,0,1,2.1,2.23c.53.88.66,1.36.39,1.45s-.22.83.14,2.24a17.56,17.56,0,0,0,1.57,4.34,64.09,64.09,0,0,0,3.16,5.78q1.85,3,3.55,5.79t2.5,4.07a5.71,5.71,0,0,0,3.94,2.63,5.54,5.54,0,0,1,4,3.16v1.58a2.81,2.81,0,0,0,.66,1.44,3.55,3.55,0,0,0,1.18,1.19c0,.17.26.44.79.79a7.37,7.37,0,0,1,1,.79,8.26,8.26,0,0,1,1.32,4.47,5.79,5.79,0,0,0,1.84,4.21,5,5,0,0,0,.92.65,2.45,2.45,0,0,1,.92.92c1.58.71,2.36,1.36,2.36,2s.79.92,2.37.92V276h.26a6.73,6.73,0,0,0,1.85.79,10.49,10.49,0,0,1,1.31.52,2.84,2.84,0,0,0,1.45-1.45,4.33,4.33,0,0,0,.66-1.7,1.16,1.16,0,0,0,1.18,1.05,10.16,10.16,0,0,1,2.1.26,5.46,5.46,0,0,1,2.37,1.32A10,10,0,0,1,814,280.7a7.21,7.21,0,0,0,.26,1.32,8.47,8.47,0,0,1,.26,1.31,31.85,31.85,0,0,1,1.71,3.29c.79,1.67,1.27,2.67,1.45,3a5,5,0,0,0,1.57,1.45,2.19,2.19,0,0,1,1.06,2,.87.87,0,0,1-.4.79,1.2,1.2,0,0,0-.39,1l.26.27.53.52a.72.72,0,0,0,.52.26,7.63,7.63,0,0,0,.27,1.32c.17.7.35,1.05.52,1.05a1.75,1.75,0,0,0,1.19.79,5.39,5.39,0,0,0,1.18.26v4.21h-1a5.15,5.15,0,0,0,.65,2.5,5.05,5.05,0,0,1,.66,2.5,1,1,0,0,1-.13.66c-.09.08-.13.3-.13.65v.79c-.18,0-.26.09-.26.27a.72.72,0,0,0-.27.52,2,2,0,0,0,.27.79,2.39,2.39,0,0,1,.26,1.05,4.36,4.36,0,0,0-2.5,2.63,4.89,4.89,0,0,0,.13,3.68c0-.17-.17-.35-.52-.52s-.62-.18-.79,0a3.21,3.21,0,0,0-2.11,2.37,11.67,11.67,0,0,0-.52,3.15q-.79-.27-.66-.39a1,1,0,0,0,.13-.66h-1.31v1.84a.76.76,0,0,0,.26.53c0,.17,0,.26.13.26s.13.09.13.26a.24.24,0,0,0,.27.27,4.63,4.63,0,0,1-.4,1.18,4,4,0,0,0-.39,1.45,7,7,0,0,0-3.29-2.9,6.88,6.88,0,0,1-3.29-2.89,11.33,11.33,0,0,1-1.58-5.92,11.3,11.3,0,0,0-1.57-5.92l-1.06-.26a2.27,2.27,0,0,1-1.31-2,2.68,2.68,0,0,0-.79-2,41.33,41.33,0,0,1-5.26-6.32,29.87,29.87,0,0,0-5.52-6h-.53c-.18,0-.26-.09-.26-.27,0-.35,0-1-.13-2.1a7.07,7.07,0,0,0-.4-2.11l-1-.52a2.76,2.76,0,0,1-.79-.53,2.8,2.8,0,0,1-.79-2.1v-2.37c0-.35-.44-.92-1.31-1.71a11,11,0,0,0-1.84-1.44,30,30,0,0,0-3-2.24A16,16,0,0,0,779.32,278.07Zm-106.78,1.05c-.35,0-.53.27-.53.79s.18.79.53.79.53-.26.53-.79S672.89,279.12,672.54,279.12Zm20-7.1a4.47,4.47,0,0,1-1.18,3.29,4.44,4.44,0,0,0-1.19,3.29,5.93,5.93,0,0,0-2.63.65,14.54,14.54,0,0,0-2.36,1.45v-.53q2.1-2.62,3.28-4.2a25.23,25.23,0,0,1,2.37-2.77C691.61,272.42,692.18,272,692.53,272Zm.52,11.05c-.87,0-1.35.22-1.44.65a8.94,8.94,0,0,0-.13,1.71,1.26,1.26,0,0,0,1.18-.78A3.57,3.57,0,0,0,693.05,283.07Zm6.84-.79q0,3.42-3.15,3.42h-.53a4.91,4.91,0,0,0,1.71-2.24A1.82,1.82,0,0,1,699.89,282.28Zm14.73-48.92a.47.47,0,0,0-.53.53.53.53,0,0,0,1.06,0A.47.47,0,0,0,714.62,233.36ZM728,207.85c1.93,0,3.25-.26,4-.79a5.19,5.19,0,0,1,3.15-.79v.79a1,1,0,0,0,.27.79l.52.53a4.8,4.8,0,0,1-1.31,1.31,5.43,5.43,0,0,1-2.11,1.05,7.57,7.57,0,0,1-2.89-.66A2.28,2.28,0,0,1,728,207.85Zm4-6.58-.26-.52a3.14,3.14,0,0,1,2.23-3,10.43,10.43,0,0,1,3.81-.92,4.22,4.22,0,0,1-.13,1.06,1.15,1.15,0,0,1-.65.78c-.18,0-.27-.08-.27-.26l-.26-.26h-.53c-.17,0-.26,0-.26.13s-.09.13-.26.13l-.27.26v.53a.7.7,0,0,0,.79.79v.79c-.17,0-.3.17-.39.52s-.22.53-.4.53l-.26.26c-.35,0-.61-.26-.79-.79a3.27,3.27,0,0,0-.79-1.31Zm.52,7.63c0-.17-.13-.26-.39-.26s-.31.09-.13.26C732.33,209.25,732.5,209.25,732.5,208.9Zm9.21,58.91c-.35-.17-.53-.08-.53.27a.46.46,0,0,0,.53.52C741.88,268.43,741.88,268.17,741.71,267.81Zm16.57.79c.35-.35,0-.52-1.18-.52s-1.63.17-1.45.52A2.37,2.37,0,0,0,758.28,268.6Zm0-49.44h1.31a3.85,3.85,0,0,0-1.31-1.84Zm6.31,5.26a12.58,12.58,0,0,0-1.31-7.76,20.62,20.62,0,0,1-2.37-7.76h.26c.35,0,.61.31.79.92a1.06,1.06,0,0,0,1,.92V208.9a11.27,11.27,0,0,0,1.32,2.37c.7,1,1.44,2.15,2.23,3.29a38.49,38.49,0,0,1,2.11,3.41,6.4,6.4,0,0,1,.92,2.5,4.23,4.23,0,0,1,.13,2c-.09,1-.13,1.62-.13,2a7.05,7.05,0,0,0,2.37,3.94,5.61,5.61,0,0,1,1.84,4.47c-1.23,0-2.15-.92-2.77-2.76a10,10,0,0,0-2-3.81h-1a4.71,4.71,0,0,0-1-.66,4,4,0,0,1-1.05-.66A1.8,1.8,0,0,0,764.59,224.42Zm3.42,45.5a12.18,12.18,0,0,0,2.89-.27c.7-.17,1.06-1,1.06-2.36-.88,0-1.41-.13-1.58-.4s-.71-.39-1.58-.39H768Zm25.51,37.61a2,2,0,0,0,.79-.27,1.5,1.5,0,0,1,1.05-.52,54.24,54.24,0,0,0,3.68,7.1h-1.31a17.7,17.7,0,0,1-1.58-1.84c-.35-.53-.7-1-1-1.45a13.9,13.9,0,0,0-1.05-1.18,78.22,78.22,0,0,1-.53-1.05.24.24,0,0,1-.26-.27v-.52ZM795.36,296c-.35,0-.52.23-.52.66s.17.66.52.66.53-.22.53-.66S795.71,296,795.36,296Zm9.73,10.79a.79.79,0,0,0,0,1.58c.35,0,.53-.27.53-.79S805.44,306.74,805.09,306.74Zm6.84-22.36a1.63,1.63,0,0,0,.66.4,8.58,8.58,0,0,1,.92.39v-1.84a2.15,2.15,0,0,0-1.58.53v.52Zm5.26,16.05a8.8,8.8,0,0,0,2,4.86,22.5,22.5,0,0,1,2.5,4.08,2.34,2.34,0,0,0,.4-1.19,12.15,12.15,0,0,0,.13-1.44c0-.88-.75-2.07-2.24-3.55a16.24,16.24,0,0,1-2.76-3.29Z"/>
    <path d="M842.44,276.23l.52.53.27-.53a1.23,1.23,0,0,0-.79-1.32V266c0-.7,0-1.88.13-3.55s.13-3.46.13-5.39,0-3.77.13-5.52.13-3,.13-3.68h.53a.24.24,0,0,0,.26-.27,2.88,2.88,0,0,0-1.84-2.89,19.75,19.75,0,0,0-3.94-.26h-3.68c-.36-.35-1.06-1.14-2.11-2.37s-1.4-2-1-2.37l3.16-3.15a.74.74,0,0,1-.53-.27c-.18,0-.26-.08-.26-.26,0-.53.43-.92,1.31-1.18s1.84-.53,2.89-.79a14.37,14.37,0,0,0,2.9-1.05,2.32,2.32,0,0,0,1.31-2.24,87.62,87.62,0,0,0-1.71-17.23,86.2,86.2,0,0,1-1.71-17,2.58,2.58,0,0,1,.53-1.84,2.56,2.56,0,0,0,.53-1.84H838v-.53h-1.58l.26-.52a2.16,2.16,0,0,0,.79-1.32V186l.53.53q1-3.42,3.15-3.42v.79a3.74,3.74,0,0,1,1.45.13c.09.09.74-.13,2-.66l-1.58-.53,1.58-.52h8.16a14.54,14.54,0,0,1,2.36-1.45,5.54,5.54,0,0,1,2.37-.66,6.85,6.85,0,0,1,2.37.4,6,6,0,0,0,2.1.39,11.84,11.84,0,0,0,4.6-.92,17.46,17.46,0,0,1,4.87-1.18,1.86,1.86,0,0,1,1.84-1.32,19,19,0,0,1,5,.66,18.45,18.45,0,0,0,5,.66h.53a.8.8,0,0,0,.53-.26l.52-.53h.53a15.33,15.33,0,0,1,2.36.39,14.8,14.8,0,0,0,2.37.4,3.43,3.43,0,0,0,1.58-.4,3.54,3.54,0,0,1,1.58-.39,1.57,1.57,0,0,1,1,.26,6.55,6.55,0,0,1,.79,1.32,6.09,6.09,0,0,1,2.23-.26,6.15,6.15,0,0,1,2.24.26,14.41,14.41,0,0,1,1.58.26,11.61,11.61,0,0,0,1.58.26l1.05-.52a5.12,5.12,0,0,1,2.63,1,6,6,0,0,1,2.1,2.1,5.68,5.68,0,0,1,4.6-.13,17.56,17.56,0,0,1,4.08,2.37c1.23,1,2.32,1.89,3.29,2.76s1.71,1.14,2.23.79a10.88,10.88,0,0,0,1.45,2.89A5.88,5.88,0,0,1,925,195a2.55,2.55,0,0,1-1.45,2.37,5.71,5.71,0,0,1-2.76.79c-.17,0-.79-.57-1.84-1.71s-1.75-1.88-2.1-2.24c-.7-.17-1.32-.3-1.84-.39s-.79-.57-.79-1.45a5.44,5.44,0,0,0-1.45.27,6.44,6.44,0,0,1-1.18.26h-.53a18,18,0,0,1-4.08-.92c-2-.61-3.2-1.36-3.55-2.24a21.19,21.19,0,0,1-5.52-.13,27,27,0,0,0-5.26-.39,2.8,2.8,0,0,0-2.1.79,2.88,2.88,0,0,1-2.11.78,4.33,4.33,0,0,1-2.76-.92,3.84,3.84,0,0,0-3-.65,17.72,17.72,0,0,0-2.5.39,5.38,5.38,0,0,0-2.5.92L879,191h-2.63v-.53a13.67,13.67,0,0,1-1.58-.26c-.88-.17-1.41-.53-1.58-1a10.21,10.21,0,0,0-1.32,1.84h-6.31c-.17-.35-.79-.53-1.84-.53s-1.58.44-1.58,1.32H858l.52-.79c-.7-.18-1.27-.31-1.71-.4a11.72,11.72,0,0,0-2-.13,14.19,14.19,0,0,0-3.42.92c-1.75.62-2.63,1.19-2.63,1.71v.53c0,.17.17.26.53.26a.23.23,0,0,1,.26.26,5.07,5.07,0,0,0-.92,1.32,3.13,3.13,0,0,0-.4,1.31,27.54,27.54,0,0,0,.66,5.53c.44,2.1.83,4.12,1.19,6q.52,3.42,1.18,9.07c.43,3.77.92,7.14,1.45,10.12h2.63a20.92,20.92,0,0,0,2.1-.39c1.22-.26,2.54-.53,3.94-.79a34.1,34.1,0,0,0,3.82-.92,10.27,10.27,0,0,1,2.23-.53H868l19.46-5a12.69,12.69,0,0,1,6.71-2.37,24.51,24.51,0,0,0,7.23-1.58,11.29,11.29,0,0,0,2-.66,12.94,12.94,0,0,0,2.5-1.18c0-.17.4-.43,1.18-.79a5.7,5.7,0,0,1,1.45-.52H909a.23.23,0,0,0,.26.26.73.73,0,0,0,.53.26c.87,0,1.22-.17,1.05-.52s.09-.7.79-1.06a16,16,0,0,1,2.1-1.31q1.85-1,4.08-2.1c1.49-.7,2.85-1.32,4.07-1.85a11.61,11.61,0,0,1,2.11-.78,13.06,13.06,0,0,1,2.1.13,11.75,11.75,0,0,1,2.11.65,4.67,4.67,0,0,1-2.11,4.08,25.76,25.76,0,0,0-3.42,2.76,4.88,4.88,0,0,0-.92,2.11c-.26,1.05-.74,1.66-1.44,1.84v-2.11l-2.37.79c.17,0,.3.18.39.53a3.54,3.54,0,0,1,.14.79v.79l-.53.26-.53-.26a2.07,2.07,0,0,1-.79.26h-.52a1.54,1.54,0,0,1-.79-.4c-.35-.26-.53-.48-.53-.65-.35,0-.52.26-.52.79a.76.76,0,0,1,.26.52c0,.36.09.53.26.53a1.81,1.81,0,0,0-2.1.26,3.84,3.84,0,0,0-1,1.84,6.58,6.58,0,0,1,2.63,1.84,2.39,2.39,0,0,0-1.19,2.11c-.09,1-.57,1.58-1.44,1.58h-7.89v-.53h2.89c-.18-.35-.39-.74-.66-1.18a1.28,1.28,0,0,0-1.18-.66l-3,1.71a13.63,13.63,0,0,1-2.37,1.05,6.58,6.58,0,0,1-2,.39l-.53-.52c-.35-.35-.53-.61-.53-.79h-.52a2.58,2.58,0,0,0-1.45.79,7.55,7.55,0,0,1-2.76,1.31c-.88.36-1.32.71-1.32,1.06a1.16,1.16,0,0,0,1.32,1.31h12.1a7.51,7.51,0,0,0-.92.53,9.44,9.44,0,0,1-.92.52c.87.53,1.71,1,2.5,1.45a5,5,0,0,0,2.49.66h1.06a25.75,25.75,0,0,1,1.05-.53l.52.26a.76.76,0,0,0,.53.27l.53.52a.74.74,0,0,0,.52.27,3,3,0,0,0,1.32.26,6,6,0,0,0,1.84.26,8,8,0,0,1,2.1,1.32l2.63,2.1a23.3,23.3,0,0,0,2.63,1.84,4.47,4.47,0,0,0,2.11.79l3.94,3.42v1.58l3.68,1.58c-.17.35.31,1.18,1.45,2.49s1.71,2.24,1.71,2.77c0,.17,0,.7.13,1.57s.13,1.58.13,2.11c0,.17,0,.7-.13,1.58s-.13,1.49-.13,1.84l-.26.26a.24.24,0,0,1-.27.26,14.34,14.34,0,0,0-.66,2,9.46,9.46,0,0,0-.39,2l-2.1-1.84v2.1c-1.06-1.93-1.93-3.5-2.63-4.73s-1.36-2.41-2-3.55-1-1.89-1.18-2.24a18.67,18.67,0,0,0-5.13-4.08,46.39,46.39,0,0,0-5.65-2.49,2.11,2.11,0,0,1-.66-.14,2.45,2.45,0,0,0-.66-.13l-.79-.79-1,.79a22.15,22.15,0,0,1-5.13-.66,23.68,23.68,0,0,0-5.39-.65h-2.37a3,3,0,0,1-2.36,1.31c-1.05,0-1.58-.43-1.58-1.31-.35,0-1,0-2.1-.13S890.39,246,890,246c-.52,0-1.31.05-2.37.14s-1.66.13-1.84.13A14.91,14.91,0,0,1,884,247a3,3,0,0,1-1.31.26.76.76,0,0,0-.53.26c-.35-.17-.92-.48-1.71-.92a3.4,3.4,0,0,1-1.44-1.18H868.74l-.53.52a.74.74,0,0,1-.52.27h-6.05l-.53,1.31-.52-1.31c-.36.7-1.23,1-2.63.79s-2.11.35-2.11,1.57a4.2,4.2,0,0,1,1,.27,2.93,2.93,0,0,1,1.06.52v.27c0,.88-.49,1.36-1.45,1.44a2.18,2.18,0,0,0-2,1.45v3.68c0,.18-.18.44-.53.79s-.62.53-.79.53v.52c0,1.05.44,1.58,1.32,1.58a62.91,62.91,0,0,1-.4,6.84,28.19,28.19,0,0,1-1.44,6.57.47.47,0,0,1,.52.53,7.77,7.77,0,0,1-.39,1.84c-.27.88-.57,1.32-.92,1.32h-.53a4.21,4.21,0,0,1-1-.14,4.71,4.71,0,0,0-1.05-.13,1.53,1.53,0,0,1-1.06-.26v-.53a5,5,0,0,0-2.1,1.32,29.09,29.09,0,0,1-2.37,1.84h.79a3.38,3.38,0,0,0-1.31-.79,1.2,1.2,0,0,1-.79-1.31Zm-3.16,31.3a4.58,4.58,0,0,1,.79-2.11,26.79,26.79,0,0,1,3.95-5,7.18,7.18,0,0,1,1.57-1.32,15.19,15.19,0,0,1,3.29-1.05,3.79,3.79,0,0,0,2.5-2.11l-.53-.52,1.32-.53-.79-.79c-.35,0-1.23.09-2.63.27a3.25,3.25,0,0,1-3.16-1.06v-1.57a2.69,2.69,0,0,1,.66-2,3.06,3.06,0,0,0,.66-2.23,2.12,2.12,0,0,0-.26-.79l-.53-1.05a32.07,32.07,0,0,1,3-1.58,8.36,8.36,0,0,1,3.56-.79,10.11,10.11,0,0,0,1,3.16,9.59,9.59,0,0,1,.79,3.68,9.09,9.09,0,0,0,.26,2.63l.53,1.58h1.84a26.28,26.28,0,0,0-3.95,3.28q-2.62,2.5-2.63,3.55a1.79,1.79,0,0,0,.13.79,1.15,1.15,0,0,1,.13.53,2.28,2.28,0,0,0,.27,1.05,2.84,2.84,0,0,0,.13.92,2.38,2.38,0,0,1,.13.66q-.27,1.3-2.89,3.42c-1.76,1.4-3,2.1-3.68,2.1a7.12,7.12,0,0,1-2.63-.92,7.2,7.2,0,0,0-2.9-.92ZM843,270.44c-.35,0-.52.23-.52.66s.17.66.52.66.53-.22.53-.66S843.31,270.44,843,270.44Zm0,3.69h.79c0-.7-.26-1.06-.79-1.06Zm2.11-2.37c-.36,0-.53.22-.53.66s.17.65.53.65.52-.21.52-.65S845.42,271.76,845.07,271.76Zm17.09,27.35c-1.75,0-2.63-.7-2.63-2.1s.57-2,1.71-1.71a13.82,13.82,0,0,0,3,.39v-1.31h-3.16l4.47-1.06c0,.53.17.79.53.79h.79A38.3,38.3,0,0,1,879,292h5.12c2,0,3.29.7,3.82,2.1.17-.35,1.14-1,2.89-2a19.09,19.09,0,0,1,2.89-1.45v1.06a1.09,1.09,0,0,0,.66-.4l.66-.66a4.87,4.87,0,0,1,3.55-1.18,20.24,20.24,0,0,0,4.86-.39c0-.53.88-.92,2.63-1.19a29.36,29.36,0,0,1,3.69-.39,2.34,2.34,0,0,1,.92.39,2.16,2.16,0,0,0,.92.4c.17.35.17.61,0,.79.7-.35,1.62-.83,2.76-1.45s2.28-1.27,3.42-2a16.31,16.31,0,0,0,3-2.37,3.76,3.76,0,0,0,1.32-2.63h1v.79a16,16,0,0,1,2.24.13,6.53,6.53,0,0,1,2.23.92,37.82,37.82,0,0,0-5,4.21,7.85,7.85,0,0,1-5.78,2.37.74.74,0,0,1-.53-.27.76.76,0,0,1-.26-.52h-1.32l.53,1.31a4.25,4.25,0,0,0-1,.79l-1.32,1.32a12.39,12.39,0,0,1-4.86,1.71l-4.61.65-.78,1.32-.79-.53h-4.47c0,.18-.23.4-.66.66a2.4,2.4,0,0,1-1.19.39,1,1,0,0,1-.78-.26.73.73,0,0,1-.53-.26h-.53a1.11,1.11,0,0,1-.52-.13,1.18,1.18,0,0,0-.53-.13,26.46,26.46,0,0,0-7,1.05,45.84,45.84,0,0,0-6.7,2.36H866.11a7.67,7.67,0,0,1-1.84.92,7.2,7.2,0,0,1-2.11.66Zm3.42-2.37c-.35,0-.52.23-.52.66s.17.66.52.66.53-.22.53-.66S865.93,296.74,865.58,296.74Zm31.3-6.05c-.35,0-.53.27-.53.79s.18.79.53.79.53-.26.53-.79S897.23,290.69,896.88,290.69Zm.53-59.17c0-.35-.14-.53-.4-.53s-.31.18-.13.53a.23.23,0,0,0,.26.26C897.32,231.78,897.41,231.7,897.41,231.52Zm1.31,58.65-.53.52a.24.24,0,0,1,.27.27l.26-.27c.17,0,.44-.17.79-.52h-.79Zm.79.52c-.35,0-.53.27-.53.79s.18.79.53.79.53-.26.53-.79S899.86,290.69,899.51,290.69Zm1.84-59.17c.17-.35-.13-.53-.92-.53s-1.1.18-.92.53c0,.18.26.26.79.26A1.51,1.51,0,0,0,901.35,231.52Zm7.63-6.05c-.36,0-.53.22-.53.66s.17.66.53.66.52-.22.52-.66S909.33,225.47,909,225.47Zm5.78-14.73c0,.36.09.53.27.53s.26-.17.26-.53Zm12.89-4.21a.53.53,0,1,0,.53.53A.47.47,0,0,0,927.65,206.53ZM929,279.91a2,2,0,0,1,.26-.79,1.06,1.06,0,0,1,.13-.66.5.5,0,0,0,.13-.39c1.23,0,1.84.7,1.84,2.1a1.63,1.63,0,0,1-1.84,1.85,1.16,1.16,0,0,1-1.31-1.32Z"/>
    <path d="M943.69,237a82,82,0,0,1,6.45-32.48A70.42,70.42,0,0,1,970,178.13a23.36,23.36,0,0,1,3-1.84q2-1,3.81-2.24c1.22-.79,2.37-1.53,3.42-2.23a7.8,7.8,0,0,0,2.1-1.84,84.88,84.88,0,0,1,18.41-8.29,66.14,66.14,0,0,1,20.25-3.28h2.63a4.87,4.87,0,0,0,3.82,2.36,34.6,34.6,0,0,1,4.6.79v.79l.53.53.79.79c.17,0,.13.13-.14.39a1.07,1.07,0,0,0-.39.66v3.15a8.62,8.62,0,0,0,.39,2.9,6.53,6.53,0,0,1,.4,2.36c0,.18-.05.27-.13.27s-.13.09-.13.26v.26a3.2,3.2,0,0,0-.79,1.32,10.33,10.33,0,0,0-.53,1.84,5.7,5.7,0,0,0,.13,2.76c.26.79-.22,1.18-1.44,1.18a7.37,7.37,0,0,1-5.26-1.71,7.52,7.52,0,0,0-5.27-1.71H1020a20.62,20.62,0,0,1-2,.79,8.68,8.68,0,0,1-1.71.53c-.35,0-1,0-2,.13s-2,.13-3,.13a28.56,28.56,0,0,1-2.89-.13c-.88-.09-1.41-.13-1.58-.13a69.36,69.36,0,0,0-17.22,7.36,51.22,51.22,0,0,0-12.5,10.79,68.42,68.42,0,0,0-9.07,14.2,121.46,121.46,0,0,0-6.71,17.36,32,32,0,0,1-.26,6.83,63.5,63.5,0,0,0-.53,6.58q0,12.89,4.21,21.17t15.78,14.86a42.45,42.45,0,0,0,6.31,3,19.29,19.29,0,0,0,7.1,1.45c.18,0,.83-.08,2-.26s2.36-.4,3.68-.66,2.5-.53,3.55-.79,1.58-.48,1.58-.66a74.16,74.16,0,0,0,12.36-6.83q5.25-3.69,7.36-12.1.27,0,.66-2.76t.66-4.08a46,46,0,0,1,2.37-9.2,26.11,26.11,0,0,0,1.57-9.21q0-6.84-2.23-10.78t-4.87-9.21a106.92,106.92,0,0,1-6.05-13.15,39.37,39.37,0,0,1-2.36-13.94v-5.52l.78-1a7.54,7.54,0,0,0-.26,2.23,14.55,14.55,0,0,0,.26,2.77,9.63,9.63,0,0,0,.79,2.36,1.69,1.69,0,0,0,1.58,1.05h.53a.23.23,0,0,0,.26-.26c.35-1.4.66-3,.92-4.73a31.36,31.36,0,0,0,.4-4.47h.78a2.28,2.28,0,0,1,2.24,1.57,20.34,20.34,0,0,1,1,3.29c.27,1.14.57,2.24.92,3.29s1,1.58,1.84,1.58h.53a2,2,0,0,0,.79-.27,2.07,2.07,0,0,1,.79-.26,11.23,11.23,0,0,1,3.68,2,8.71,8.71,0,0,0,5.26,1.71h1.31l1.06-.52a4.75,4.75,0,0,1,3.28,2.1,9.26,9.26,0,0,1,1.19,3.29c.17,1.14.3,2.15.39,3s.48,1.32,1.19,1.32v-1h.79a13.56,13.56,0,0,1-.14,1.57c-.09.71-.31,1.15-.65,1.32l3.15,3.94a.76.76,0,0,0,.53-.26,1.37,1.37,0,0,0,.66-.26,1.31,1.31,0,0,1,.65-.26c.88,1.22,1.58,2.23,2.11,3s1.05,1.54,1.58,2.24a3.19,3.19,0,0,1,.78,1.57v6a2.45,2.45,0,0,1,1.58,2.24c0,1,.7,1.88,2.11,2.76a1.55,1.55,0,0,1,.78,1.31q0,1.06-1.44,1.32a2.48,2.48,0,0,0-2,1.84,16.11,16.11,0,0,1-.27,2.63,17.12,17.12,0,0,0-.26,2.63c0,2.63.13,5.31.39,8s.4,5.39.4,8a25.41,25.41,0,0,1-1,7.24,25,25,0,0,0-1,7.23,3.43,3.43,0,0,0,1,2.76,3.17,3.17,0,0,1,1,2.5c0,.52-.35,1-1,1.31a13.12,13.12,0,0,1-2.5.92c-1,.27-1.89.53-2.76.79a8.25,8.25,0,0,0-2.11.92,17.55,17.55,0,0,0-3.28,3.69,20.1,20.1,0,0,1-3.56,3.94,112,112,0,0,1-19.85,12.36,50.39,50.39,0,0,1-22.49,5.52,22.58,22.58,0,0,1-9.73-2.1,76,76,0,0,0-9.47-3.68h-2.36A41.27,41.27,0,0,1,962,286a55.3,55.3,0,0,1-10.52-14.2,64.9,64.9,0,0,1-5.92-17A88.83,88.83,0,0,1,943.69,237Zm89.69-17.88h.78a3.38,3.38,0,0,0,1.71-.53c.62-.35.75-1,.4-1.84l3.94-4.21-3.68-3.68c.35,1,.35,1.67,0,1.84a4.56,4.56,0,0,0-1.31,1.32,8.57,8.57,0,0,0-.66,3.28c-.09,1.5-.49,2.42-1.18,2.77l1.31.52Zm3.15-12.1c.17-.35.13-.53-.13-.53s-.31.18-.13.53c0,.35,0,.53.13.53S1036.53,207.41,1036.53,207.06Zm2.1-2.63c-.35,0-.52.22-.52.66s.17.66.52.66.53-.22.53-.66S1039,204.43,1038.63,204.43Z"/>
    <path d="M1103.33,259.13a1.11,1.11,0,0,0-.26.79.76.76,0,0,1-.26.53h-.53c-.7,0-1.14-.66-1.31-2s-.27-2.15-.27-2.5a1.87,1.87,0,0,0,2.11-2.11v-.26a16.11,16.11,0,0,1-1.71-2.37,17.27,17.27,0,0,0-1.71-2.36,5.75,5.75,0,0,0-1.05,2.1,3,3,0,0,0-1.58-2.76,3.72,3.72,0,0,0-3.16-.39v-1.32l4.21-2.1a2.26,2.26,0,0,0-.13,2,3.2,3.2,0,0,0,1.18,1.45c-.35-1.41-.35-2.24,0-2.5a2.1,2.1,0,0,0,.53-1.71.78.78,0,0,0-.53.26.32.32,0,0,1-.52,0,1.75,1.75,0,0,1-.53-1.31h-1a1.31,1.31,0,0,1-.26.65,1.3,1.3,0,0,0-.27.66,1.76,1.76,0,0,1-.39-.92,5.21,5.21,0,0,1-.13-.92v-.79h1c0-.87,0-1.93-.13-3.16a3,3,0,0,0-1.71-2.63v3.69l-.27-.27a.23.23,0,0,1-.26-.26l-.52-.53c-.53-.52-.79-.69-.79-.52l-.53-.26c-.88,0-1.36.35-1.45,1.05a2.74,2.74,0,0,1-1.18,1.84,3.21,3.21,0,0,1-1.05-.92,1.94,1.94,0,0,1-.53-1.19c0-.17.22-.39.66-.65a2.21,2.21,0,0,1,.92-.4v-.52c0-.88-.62-1.27-1.84-1.19s-1.93.13-2.1.13a3.6,3.6,0,0,1-.79-2.63,1.48,1.48,0,0,1,1.44.79,1.48,1.48,0,0,0,1.45.79h.26a2.16,2.16,0,0,0,.92-1,4.26,4.26,0,0,1,.66-1.05c.35-.35.88-.13,1.58.66a4.44,4.44,0,0,1,1,1.44h.53a6.43,6.43,0,0,0-1.19-2.76c-.44-.43-1.09-1.09-2-2-.18,0-.26-.17-.26-.53a.74.74,0,0,0-.27-.52,3.74,3.74,0,0,1,3.16-3.95l-2.63-7.63h-1.05a5.51,5.51,0,0,1-.26,2.24c-.18.26-.36.39-.53.39a1.17,1.17,0,0,0-.53.14c-.17.09-.26.57-.26,1.44v.27l.79.78c-.35,1.06-1.27,1.32-2.76.79s-2.59-.43-3.29.27a9.34,9.34,0,0,1,1.84-2.9,4.28,4.28,0,0,0,1.05-3.15,4.21,4.21,0,0,0-.52-1.84c-.36-.7-.79-1.06-1.32-1.06a7.1,7.1,0,0,0-1.44.14,13.29,13.29,0,0,0-1.45.39v-1a10,10,0,0,1,1-3.42q1-2.37,2.1-2.37a2,2,0,0,1,.79.27,2.12,2.12,0,0,0,.79.26.47.47,0,0,0,.53-.53v-.52a1.29,1.29,0,0,0-.13-.53,1.12,1.12,0,0,1-.13-.53l-.27-1.05a5.33,5.33,0,0,1,.13-.92,5.88,5.88,0,0,0,.14-1.18h-.27a2.28,2.28,0,0,0-.79,1.58h-.79v-1.58h-.52l-1,4.21c-.53-.53-.79-.88-.79-1.06a1.13,1.13,0,0,0-.53.14,1.11,1.11,0,0,1-.52.13,2.18,2.18,0,0,1-.79.26V210a12.57,12.57,0,0,0-.4-2.23,13.1,13.1,0,0,1-.39-2.24V205c0-.18.22-.31.66-.4s.65-.22.65-.39v-.27l.27-.52a2.26,2.26,0,0,1,.26-1c0-.18.17-.44.52-.79a.76.76,0,0,0,.27-.53h5a21.16,21.16,0,0,0-.27-2.23,27.86,27.86,0,0,0-.79-3.55q-.53-1.84-1.05-3.42c-.35-1.06-.7-1.67-1-1.84a2.8,2.8,0,0,1-1,1.31,7.51,7.51,0,0,0-.92.53,4.61,4.61,0,0,0-.79.65,2,2,0,0,0-.4,1.45,2.36,2.36,0,0,0,.79,2.1,2.38,2.38,0,0,1,.79,2.11,3,3,0,0,1-2.37-1.32,3.82,3.82,0,0,1-1-2.1,2.12,2.12,0,0,1,.26-.79,2,2,0,0,0,.27-.79,7,7,0,0,0-.4-1.45,4.37,4.37,0,0,0-.92-1.7l-1.31,2.89-.53-2.89,3.68-1.85.79.79h.27a5.16,5.16,0,0,0,3.41-3.68,1.31,1.31,0,0,0-1.31-1.45,2.08,2.08,0,0,1-1.84-1.44c.87-.17,1.35-.44,1.45-.79a7.55,7.55,0,0,0,.13-1.58q0-4.72-4-6.05a8.43,8.43,0,0,1,.26-2.23,7,7,0,0,0,.27-2,16.8,16.8,0,0,0-.4-3.28c-.26-1.32-.92-2-2-2a1.24,1.24,0,0,0-1.31,1.06,7.5,7.5,0,0,0-.27,1.84c0,.35,0,1.05.13,2.1s.4,1.58.93,1.58a.23.23,0,0,0,.26-.26,2,2,0,0,0,.66-.14,2.39,2.39,0,0,1,.65-.13v.27a5.06,5.06,0,0,1-1,3,5.09,5.09,0,0,0-1,3h-.79a1.71,1.71,0,0,0-.79-1.71,1.49,1.49,0,0,1-.79-1.45h1.32v-1.84l-.53-.26a1.78,1.78,0,0,1-1.31.52c.35-.17.52-.57.52-1.18v-1.19c0-.17-.31-.52-.92-1.05s-.92-.87-.92-1c-.18,0-.22-.35-.13-1.05s.13-1.14.13-1.32a7.55,7.55,0,0,0-2-3.28,4.82,4.82,0,0,1-1.45-3.55,4.33,4.33,0,0,1,2.63-4.34,12.72,12.72,0,0,1,5.26-1.19,4.15,4.15,0,0,1,4.08,2.63c.79,1.76,1.62,3.42,2.5,5a5.82,5.82,0,0,0,.13,1.18,5.33,5.33,0,0,1,.13.92v.79a.76.76,0,0,0-.26.53v.52c0,.18.26.53.79,1.06s.78.88.78,1.05a5.6,5.6,0,0,1,1.19,3.15c.09,1.23.17,2.5.26,3.82a9.83,9.83,0,0,0,.79,3.42,3,3,0,0,0,2.5,1.71c-.53.17-.79.7-.79,1.57,0,1.41,0,2.63.13,3.69a3.42,3.42,0,0,0,2,2.63l.53.26a.5.5,0,0,1-.13.39.55.55,0,0,0-.13.4.74.74,0,0,0-.27.52v3.95h1.85v1.84c-.71,0-1.06.44-1.06,1.32h1.58l.53,1.57a5.19,5.19,0,0,1,.39,1.19,4.55,4.55,0,0,0,.4,1.18v.53a1.25,1.25,0,0,1-.27.65,1.37,1.37,0,0,0-.26.66c.53,0,.92.35,1.18,1.05s.53,1.54.79,2.5.48,1.89.66,2.76a7.54,7.54,0,0,0,.53,1.84q.26,1.07,1,3.42t1.71,5q.91,2.63,1.71,5a27.75,27.75,0,0,0,1.31,3.42v3.15c-.88-.17-1.49.36-1.84,1.58a8.45,8.45,0,0,0-.26,2.1,1.59,1.59,0,0,0,.39.79,1.62,1.62,0,0,1,.4.79.78.78,0,0,0-.27.53v.52H1102a4.35,4.35,0,0,0-.66-2.36,5.44,5.44,0,0,1-.66-2.9c.53,0,1.19.75,2,2.24a32.53,32.53,0,0,1,2.1,5.13q.92,2.9,1.71,5.65a18.34,18.34,0,0,1,.79,3.55V247l-.79.79a3.62,3.62,0,0,1,2.5,2.1,9.67,9.67,0,0,1,.66,3.68c0,.88-.53,1.41-1.58,1.58a1.69,1.69,0,0,0-1.58,1.84,4.74,4.74,0,0,0,.39,2.1c.27.53.57,1.23.92,2.11H1107a1.62,1.62,0,0,1-1.7-1.05,1.65,1.65,0,0,0-1.71-1.06Zm-30-79.95a.23.23,0,0,0,.26-.26l.27-.26a3.64,3.64,0,0,1,.79,2.63,1,1,0,0,1-1.06-.79A4.47,4.47,0,0,1,1073.35,179.18Zm1.58,4.47h.26a1.81,1.81,0,0,1,.53,1.32h-1v-1.32Zm1.58-6.83c.35.87.66,1.36.92,1.44a6.69,6.69,0,0,0,1.71.13,3.19,3.19,0,0,0-.13-.92c-.09-.26.13-.48.65-.65a3,3,0,0,1,.53,2.1,4.33,4.33,0,0,1-.53,2.37c-.35-.53-.61-.75-.79-.66a2.65,2.65,0,0,1-1,.13,2.78,2.78,0,0,0,.26,1.58,1.49,1.49,0,0,1,.27,1v.26a3.08,3.08,0,0,1-.4,1.06c-.26.52-.57.78-.92.78l-.65-2a3.22,3.22,0,0,0-1.19-1.71Zm.79-9.74a4.73,4.73,0,0,1-.13,1.06,1.23,1.23,0,0,1-.66.79,2.16,2.16,0,0,1-.79-1.32v-.53Zm1.57,32.09a1.81,1.81,0,0,0-.39,1.58,1.51,1.51,0,0,1-.66,1.58,8.14,8.14,0,0,1-1-3.16Zm-1-12.62c-.17-.35,0-.53.53-.53s.7.18.52.53Zm.53-11.05c.35,0,.52.22.52.66s-.17.66-.52.66-.53-.22-.53-.66S1078,175.5,1078.35,175.5Zm3.42,36.29c-.36,0-.53.23-.53.66s.17.66.53.66c.17,0,.26-.22.26-.66S1081.94,211.79,1081.77,211.79Zm-.27-17.88q.8,0,1.32,1.32h-.26C1081.85,195.23,1081.5,194.79,1081.5,193.91Zm2.63-15.78v-1h-.79Zm0,24.2c0-.35-.13-.53-.39-.53s-.4.18-.4.53c0,.17.14.26.4.26S1084.13,202.5,1084.13,202.33Zm3.16,12.62c-.53.18-.79.66-.79,1.45v1.44c.53,0,.83-.13.92-.39a5.88,5.88,0,0,1,.66-1.18,7.15,7.15,0,0,0,.66-2.24,26.75,26.75,0,0,1,.65-2.76v-.53c0-.35-.3-.74-.92-1.18a3,3,0,0,1-1.18-1.45l-.53.53v3.94a2.83,2.83,0,0,1-.52-.79c-.36-.69-.7-1-1-1a2.06,2.06,0,0,1-.79.27c-.36,0-.57,0-.66.13a.54.54,0,0,1-.4.13,2.79,2.79,0,0,0,1.85,2A3.64,3.64,0,0,1,1087.29,215Zm-3.16,11.57v1.32a1.23,1.23,0,0,1-.79-1.32Zm.79-60.75q.27,0,.27.66c0,.44-.09.65-.27.65-.35,0-.52-.21-.52-.65S1084.57,165.77,1084.92,165.77Zm0,45.5q.27,0,.27.66c0,.44-.09.65-.27.65-.35,0-.52-.21-.52-.65S1084.57,211.27,1084.92,211.27Zm0,17.88a3.42,3.42,0,0,1,0,2.63c-.35.18-.52-.3-.52-1.44S1084.57,228.8,1084.92,229.15Zm.27-9.73c-.18,0-.27.26-.27.79s.09.79.27.79c.35,0,.52-.26.52-.79S1085.54,219.42,1085.19,219.42Zm1.57-47.34c.18,0,.27.13.27.4s-.09.39-.27.39c-.35,0-.52-.13-.52-.39S1086.41,172.08,1086.76,172.08Zm0,32.09c-.35,0-.52.22-.52.65s.17.66.52.66.53-.22.53-.66S1087.11,204.17,1086.76,204.17Zm1.58,20.51a4.25,4.25,0,0,1,.79,1,2.18,2.18,0,0,1,.26.79c0,.18-.35.44-1.05.79,0,.18-.22.26-.66.26a1.28,1.28,0,0,0-.92.27,2.06,2.06,0,0,0-.13-.66,2.06,2.06,0,0,1-.13-.66c0-1.4.61-2.1,1.84-2.1Zm-1-48.65a.53.53,0,1,1-.53.52A.46.46,0,0,1,1087.29,176Zm.26,53.12a4.08,4.08,0,0,1-.13,1,1.16,1.16,0,0,1-.66.79v-1.84Zm-.26,10.52c.88,0,1.36.57,1.45,1.71s.13,1.89.13,2.24c-.88,0-1.36-.48-1.45-1.45S1087.29,240.38,1087.29,239.67Zm2.63-41.81a.9.9,0,0,0,.66.26.93.93,0,0,1,.66.26v-.52a1.7,1.7,0,0,1-.4-.66,1.73,1.73,0,0,0-.39-.66l-.53.53v.79Zm.53,51h-.53v-.53Zm1.31-1.84h-1.31l.79-1.32Zm2.63,2.63a4.77,4.77,0,0,1-2.89.79h-1a8.68,8.68,0,0,1,1.57-.66,6.91,6.91,0,0,1,1.58-.13Zm-3.15,1.84c.34,0,.52.22.52.65s-.18.66-.52.66-.53-.22-.53-.66S1090.88,251.51,1091.24,251.51Zm.52-16c-.18,0-.26.14-.26.4s.08.31.26.13C1092.46,236,1092.46,235.82,1091.76,235.46Zm.79-9.46c0-.35-.13-.53-.39-.53s-.4.18-.4.53.13.52.4.52S1092.55,226.35,1092.55,226Zm.53-19.47V206h-.53Zm-.53,22.89c.7,0,1-.27,1-.79a1.79,1.79,0,0,0-.52-1.32h-.53Zm.53,10c-.36.35-.53.35-.53,0,0-.17.13-.26.39-.26S1093.25,239.24,1093.08,239.41Zm0,16.57c-.36.35-.53.35-.53,0,0-.17.13-.26.39-.26S1093.25,255.81,1093.08,256Zm0,2.63a13.9,13.9,0,0,1,1.18-1.05,2.28,2.28,0,0,1,1.45-.53c0,1.41-.44,2.1-1.32,2.1a4.22,4.22,0,0,0,.13,1.06c.09.35-.22.7-.92,1.05a3.2,3.2,0,0,0-.26-.92,3.13,3.13,0,0,1-.26-1.19v-.52Zm.52-26.3h.79l-.79-.53Zm.79,28.93a.53.53,0,1,1,0,1.05.53.53,0,0,1,0-1.05Zm0-26.83h.53l-.53-.79Zm0,17.62a7.87,7.87,0,0,1,.13-1.31c.09-.53.48-.61,1.19-.26v5a2.72,2.72,0,0,1-1.19-1.44A10.79,10.79,0,0,1,1094.39,252Zm1.84,10.26a1.23,1.23,0,0,1-1.31,1v-1Zm-.26,2.1c.53,0,.83.49.92,1.45s.13,1.54.13,1.71h-.79l-.52-3.16Zm.26-45.23a1.11,1.11,0,0,0,.13.52,1.8,1.8,0,0,1,.14.79,2.27,2.27,0,0,0,.26,1.06h1.58V221a4.45,4.45,0,0,1-.92-2,14.12,14.12,0,0,0-.66-2,1.06,1.06,0,0,0-.53,1.06Zm.53,43.92c1,.53,1.79.31,2.23-.66a2.12,2.12,0,0,1,2-1.44c0,.17,0,.78-.14,1.84s-.39,1.57-.92,1.57a6.21,6.21,0,0,1-1.7-.39A2.39,2.39,0,0,1,1096.76,263.08Zm1.58,4.73v.27a.74.74,0,0,0-.27.52.24.24,0,0,1-.26.27l-.26-.27.26-.52a.24.24,0,0,0,.26-.27l.27-.26Zm0-9.73a.46.46,0,0,1,.52.53.53.53,0,0,1-1,0A.47.47,0,0,1,1098.34,258.08Zm.52,12.1c.35,0,.53.22.53.66s-.18.66-.53.66-.52-.22-.52-.66S1098.51,270.18,1098.86,270.18Zm.53-3.68h-.53v-1.05Zm0,5.52c0,.18-.09.26-.27.26a.23.23,0,0,1-.26-.26c0-.17.13-.26.4-.26S1099.56,271.85,1099.39,272Zm0-20a.84.84,0,0,1,.52.79.83.83,0,0,1-.52.79q-.27.27-.27-.66C1099.12,252.34,1099.21,252,1099.39,252Zm.79-16c-.36,0-.53.26-.53.79s.17.79.53.79.52-.26.52-.79S1100.53,236,1100.18,236Zm0,18.15a.23.23,0,0,1,.26.26.23.23,0,0,1-.26.26c-.18.18-.27.09-.27-.26S1100,254,1100.18,254.14Zm5.78,35.24a11.61,11.61,0,0,0,.53-3v-3a5.74,5.74,0,0,0-.79-2.76,10.06,10.06,0,0,0-1.58-2.24,2.24,2.24,0,0,1-.79,1.58h-.52c-1.23-1.4-1.71-2.72-1.45-3.94a11.75,11.75,0,0,0,.13-4,5.79,5.79,0,0,0-.79-1.84,3.73,3.73,0,0,1-.52-2.1h1.57a6,6,0,0,0,1.19,3.68,10.57,10.57,0,0,1,1.71,3.42.84.84,0,0,0,.52-.79v-.79c1.41,0,2.24-.17,2.5-.53a3.11,3.11,0,0,0,.4-1.84,18.92,18.92,0,0,0-2.11.4c-1.23.26-1.84,0-1.84-.92v-.79a.78.78,0,0,1,.26-.53.74.74,0,0,1,.27-.52.24.24,0,0,1-.27-.27.76.76,0,0,1-.26-.52l-.26-.53c0-.88.35-1.31,1.05-1.31a.23.23,0,0,1,.26.26,3.21,3.21,0,0,1,1.06.39,5.12,5.12,0,0,1,1,.66V267a4.5,4.5,0,0,1-.66-.92c-.26-.43-.48-.83-.66-1.18-.17-.53.13-1.09.92-1.71a3.57,3.57,0,0,1,2-.92,2.26,2.26,0,0,0,.79,1.58c.17-.35.34-.7.52-1.05a2.4,2.4,0,0,0,.26-1.06,3.61,3.61,0,0,0-.52-1.18c-.36-.61-.62-1.09-.79-1.45v-1.05c0-1.4.53-2.1,1.58-2.1h.52l3.42,7.89h.79c.17,0,.48-.48.92-1.45a7,7,0,0,1,1.19-2,5.48,5.48,0,0,0,.65-1.84,5.4,5.4,0,0,1,.66-1.84c.35-1.4,1-2,2-1.84a6,6,0,0,0,3-.27.23.23,0,0,1,.26-.26l.26-.26c.35-.53.88-1.27,1.58-2.24s1.14-1.44,1.32-1.44c.17-.88.39-1.93.65-3.16a19.45,19.45,0,0,0,.4-2.1l-.79-.79a1.8,1.8,0,0,0,1.58-.79,6,6,0,0,0,.79-1.84c.17-.7.35-1.4.52-2.11a2.59,2.59,0,0,1,1-1.58.23.23,0,0,0-.26-.26c-.35,0-.52-.08-.52-.26V237a5.89,5.89,0,0,1,1-3,6.68,6.68,0,0,0,1-3.55v-1.32l-1.32.53v-.26a6.88,6.88,0,0,1,1.06-3.42,29.54,29.54,0,0,1,2.49-3.69c1-1.22,1.8-2.36,2.5-3.41a5.18,5.18,0,0,0,1.06-2.63l-.79-1.32a6.43,6.43,0,0,1,1-1.71,4.67,4.67,0,0,0,1.05-2v-.53l-1.31,1q4.73-10.24,9.46-21.82t9-21.57a21,21,0,0,0,.78-2.1,11.37,11.37,0,0,0,.53-1.85c.17-.17.66-.56,1.45-1.18s1.62-1.27,2.5-2,1.71-1.32,2.49-1.84a4.61,4.61,0,0,1,1.45-.79c1.23,0,1.84.35,1.84,1.05a10.4,10.4,0,0,1-2.1,5.52,27.71,27.71,0,0,0-2.9,5.26c-.52.88-1.14,1.93-1.84,3.16s-1.36,2.41-2,3.55-1.36,2.67-2.23,4.6v.53h1a19,19,0,0,1-1.84,3,20.19,20.19,0,0,0-2.37,4.34,50.76,50.76,0,0,1-3.29,9.73q-2.24,5-3.81,9.73a5.56,5.56,0,0,1-.79,4.48,28.57,28.57,0,0,0-2.37,3.94,9.41,9.41,0,0,1-.26,1.71,8.58,8.58,0,0,0-.26,1.71q-4.48,14.2-9.6,27.61t-9.08,27.88a3,3,0,0,1-.26.92,2.9,2.9,0,0,0-.26.92v7.89a2.62,2.62,0,0,0-.66,1.58,14.64,14.64,0,0,0-.13,1.84,3.77,3.77,0,0,0-2.11.53,3.71,3.71,0,0,1-2.1.52,2.34,2.34,0,0,1-1.18-.39,2.34,2.34,0,0,0-.92-.39v.78c0,.71.26,1.06.79,1.06l-2.9,1.57c.53,0,.79.36.79,1.06v.52a.71.71,0,0,1-.52-.26.76.76,0,0,1-.53-.26,2.07,2.07,0,0,0-.79.26,2,2,0,0,1-.79.26,3.52,3.52,0,0,1-2.76-2.36C1109.42,291.13,1108.07,290.08,1106,289.38Zm-5-16.57a.46.46,0,0,1,.52.53.53.53,0,0,1-1,0A.47.47,0,0,1,1101,272.81Zm1-32.61.79-.79v-.79l-.79-.53Zm0,1.84a2.28,2.28,0,0,0,.39.92,2.26,2.26,0,0,1,.4.92v.53c0-.18.08-.27.26-.27l.26-.26v-.53a3.33,3.33,0,0,0-.26-1.18,2.77,2.77,0,0,1-.26-.92A.7.7,0,0,0,1102,242Zm1.31,3.16a1.23,1.23,0,0,0,1.32.78.89.89,0,1,0,0-1.57A1.22,1.22,0,0,0,1103.33,245.2Zm.79,10.25c-.17-.7-.09-1.09.26-1.18a5.44,5.44,0,0,1,1.32-.13,7.24,7.24,0,0,0,1.45-.13c.43-.09.65-.49.65-1.19a3.25,3.25,0,0,0-.52-1.84l-1.32.53-.79-1-1.05.52Zm.53,0c-.36,0-.53.22-.53.66s.17.66.53.66.52-.22.52-.66S1105,255.45,1104.65,255.45Zm1.84,35.24-.53,1.06v-1.06Zm1.31-16c-.88,0-1.36.26-1.44.79a11.12,11.12,0,0,0-.13,1.84h1.57Zm0-5a.24.24,0,0,0,.27.27l.26.26h.79l-1.32-1.31v.78Zm4.48-8.41a.53.53,0,1,0,.52.52A.46.46,0,0,0,1112.28,261.24Zm5.26,6.31c-.36,0-.53.22-.53.66s.17.66.53.66c.17,0,.26-.22.26-.66S1117.71,267.55,1117.54,267.55Zm3.15-11.83a.85.85,0,0,0-.92.78,11,11,0,0,1-.39,1.58,13.24,13.24,0,0,0-1.06,4.21c-.35,2.28-.61,3.86-.78,4.73,1.4-.87,2.27-2.58,2.63-5.12A49.12,49.12,0,0,0,1120.69,255.72Zm-2.89,37.6v.53h-.26v-.53Zm1-2.1c.35,0,.53.22.53.66s-.18.66-.53.66c-.53,0-.79-.22-.79-.66S1118.32,291.22,1118.85,291.22Zm5-35.24c-.88.52-1.67,1.8-2.37,3.81a15.54,15.54,0,0,0-1,4.34l.26.79a33.19,33.19,0,0,0,1.84-4.47C1123.06,258.87,1123.49,257.38,1123.85,256Zm5-17.89c.35,0,.53.23.53.66s-.18.66-.53.66-.52-.22-.52-.66S1128.49,238.09,1128.84,238.09Zm1.85-7.62c.34,0,.52.22.52.65s-.18.66-.52.66q-.27,0-.27-.66C1130.42,230.69,1130.51,230.47,1130.69,230.47Zm25-37.61c0,.18-.22.52-.66,1s-.83,1-1.18,1.32l1.31-2.37Zm4.21-30.77c.17,0,.26.22.26.65s-.09.66-.26.66c-.36,0-.53-.22-.53-.66S1159.52,162.09,1159.88,162.09Zm.26,14.73c.35,0,.53,0,.53.13s-.18.13-.53.13c-.18.17-.26.13-.26-.13S1160,176.64,1160.14,176.82Z"/>
  </g>
</svg>
