<?xml version="1.0" ?><svg height="300" id="svg2" version="1.1" viewBox="0 0 281.25 281.25" width="300" xml:space="preserve" xmlns="http://www.w3.org/2000/svg" xmlns:cc="http://creativecommons.org/ns#" xmlns:dc="http://purl.org/dc/elements/1.1/" xmlns:rdf="http://www.w3.org/1999/02/22-rdf-syntax-ns#" xmlns:svg="http://www.w3.org/2000/svg"><defs id="defs4"/><g id="layer1" transform="translate(6984.8564,-3697.2496)"><g id="g2238"><path d="m -6862.213,3837.83 c -0.3114,6e-4 -0.623,0.01 -0.9338,0.022 -3.7295,0.1606 -7.3924,1.2332 -10.6329,3.1458 -4.1168,2.43 -7.3816,6.1121 -9.3018,10.4901 -1.1173,2.5472 -1.749,5.2699 -1.8878,8.0219 -2.4323,0.3073 -4.7915,1.1557 -6.8939,2.5213 -2.8027,1.8204 -4.9402,4.4242 -6.2,7.4286 -2.7569,-0.6136 -5.5244,-1.1759 -8.302,-1.6882 -1.1836,-0.4715 -2.4198,-0.7388 -3.6658,-0.7929 -1.4649,-0.064 -2.9432,0.1619 -4.3615,0.6812 -2.8366,1.0384 -5.0968,3.1263 -6.3593,5.8703 -1.1687,2.5405 -1.3543,5.373 -0.5255,8.0439 0.8034,2.5896 2.4798,4.764 4.7699,6.1999 10.5398,7.769 21.9005,14.4177 33.8379,19.7974 11.4585,5.1639 23.4404,9.1559 35.7056,11.9 a 4.6875,4.6875 0 0 0 0.465,0.029 4.6875,4.6875 0 0 0 0.4761,0.084 c 1.87,0.033 3.7404,0.033 5.6104,0 16.4875,-0.2947 32.719,-3.1807 48.4442,-7.2528 7.4491,-1.9289 14.8255,-4.1326 22.1118,-6.6064 a 4.6875,4.6875 0 0 0 2.9333,-5.9455 4.6875,4.6875 0 0 0 -5.9454,-2.9315 c -7.0676,2.3995 -14.2272,4.5358 -21.4526,6.4069 -15.2481,3.9485 -30.7539,6.6791 -46.2561,6.9562 -1.5957,0.028 -3.1926,0.026 -4.7882,0 -11.4869,-2.6015 -22.7157,-6.3523 -33.4534,-11.1914 -11.3911,-5.1335 -22.2359,-11.4883 -32.2852,-18.9129 a 4.6875,4.6875 0 0 0 -0.029,-0.017 4.6875,4.6875 0 0 0 -0.3552,-0.2362 c -0.354,-0.2112 -0.7109,-0.6703 -0.8331,-1.0639 -0.122,-0.3934 -0.084,-0.9733 0.088,-1.3476 0.1823,-0.3963 0.6542,-0.8315 1.0638,-0.9815 0.4096,-0.1499 1.0533,-0.1231 1.4484,0.062 a 4.6875,4.6875 0 0 0 1.0492,0.3314 4.6875,4.6875 0 0 0 0.1007,0.033 c 8.1373,1.4812 16.1918,3.4181 24.1131,5.7971 6.1684,1.8524 12.255,3.9742 18.2392,6.3556 0.3578,1.5052 0.9983,2.8905 1.8201,4.0979 1.4454,2.1237 3.3227,3.6072 5.1654,4.7076 3.5665,2.1299 7.5199,3.1139 11.3543,3.3673 3.8166,0.2522 7.4859,-0.2046 10.9223,-0.9027 4.9306,-1.0018 9.7379,-2.5852 14.3005,-4.7058 a 4.6875,4.6875 0 0 0 2.2742,-6.2256 4.6875,4.6875 0 0 0 -6.2274,-2.2741 c -3.8946,1.81 -8.0062,3.1622 -12.215,4.0173 -2.9282,0.5948 -5.7719,0.9102 -8.4357,0.7342 -2.646,-0.1748 -5.1572,-0.8598 -7.1667,-2.0599 -1.0221,-0.6104 -1.7892,-1.299 -2.2211,-1.9336 -0.4002,-0.588 -0.5336,-1.2426 -0.498,-1.5491 0.025,-0.2128 0.1455,-0.5606 0.3808,-0.8825 0.2445,-0.3346 0.6392,-0.7026 1.1536,-1.0163 1.0483,-0.6392 2.6482,-1.0727 4.6087,-1.3348 2.6773,-0.3579 5.6873,-0.4228 8.9759,-0.7471 3.2987,-0.3252 6.9171,-0.928 10.4352,-2.6275 4.0857,-1.9737 6.8505,-4.6943 9.3512,-6.3904 5.4967,-3.7279 12.5607,-5.4143 19.7351,-5.5847 9.9242,-0.2358 19.9583,2.2923 28.5864,7.2015 a 4.6875,4.6875 0 0 0 6.3922,-1.756 4.6875,4.6875 0 0 0 -1.756,-6.394 c -9.2946,-5.2885 -19.8729,-8.188 -30.5548,-8.4192 -1.6494,-2.5634 -3.8404,-4.7562 -6.4288,-6.405 -3.9215,-2.4981 -8.5492,-3.6107 -13.1159,-3.2373 -0.093,0.01 -0.1855,0.022 -0.2783,0.031 -2.0476,-3.7874 -5.255,-6.8866 -9.1882,-8.7818 -2.9735,-1.4327 -6.2403,-2.1217 -9.5123,-2.0324 -1.0907,0.03 -2.1819,0.1452 -3.263,0.3497 -2.8669,0.5424 -5.572,1.691 -7.9431,3.3417 -2.9395,-1.946 -6.3101,-3.2035 -9.8401,-3.6347 -0.9338,-0.114 -1.8708,-0.1704 -2.8052,-0.1684 z m 0.5805,9.3896 c 0.365,0.013 0.7276,0.04 1.0876,0.084 2.8798,0.3517 5.7247,1.7228 7.7948,3.7554 a 4.6875,4.6875 0 0 0 0.048,0.035 4.6875,4.6875 0 0 0 0.048,0.057 4.6875,4.6875 0 0 0 0.8643,0.6299 4.6875,4.6875 0 0 0 0.1996,0.088 4.6875,4.6875 0 0 0 0.8587,0.346 4.6875,4.6875 0 0 0 0.3956,0.075 4.6875,4.6875 0 0 0 0.7415,0.092 4.6875,4.6875 0 0 0 0.4303,-0.017 4.6875,4.6875 0 0 0 0.727,-0.1026 4.6875,4.6875 0 0 0 0.4119,-0.1116 4.6875,4.6875 0 0 0 0.6794,-0.2875 4.6875,4.6875 0 0 0 0.3698,-0.1959 4.6875,4.6875 0 0 0 0.6464,-0.5072 4.6875,4.6875 0 0 0 0.2087,-0.163 4.6875,4.6875 0 0 0 0.064,-0.071 4.6875,4.6875 0 0 0 0.028,-0.024 c 1.5974,-1.7222 3.8385,-2.9618 6.1468,-3.3985 2.3081,-0.4367 4.849,-0.1006 6.9654,0.9192 2.7608,1.3302 5.0475,4.0256 5.907,6.9672 a 4.6875,4.6875 0 0 0 0.011,0.028 4.6875,4.6875 0 0 0 0.01,0.046 4.6875,4.6875 0 0 0 0.2252,0.5146 4.6875,4.6875 0 0 0 0.1795,0.4083 4.6875,4.6875 0 0 0 0.3259,0.4559 4.6875,4.6875 0 0 0 0.2911,0.3937 4.6875,4.6875 0 0 0 0.4248,0.3772 4.6875,4.6875 0 0 0 0.3644,0.3113 4.6875,4.6875 0 0 0 0.4999,0.2746 4.6875,4.6875 0 0 0 0.4248,0.2216 4.6875,4.6875 0 0 0 0.553,0.1593 4.6875,4.6875 0 0 0 0.4541,0.1208 4.6875,4.6875 0 0 0 0.6042,0.031 4.6875,4.6875 0 0 0 0.4413,0.016 4.6875,4.6875 0 0 0 0.5823,-0.1007 4.6875,4.6875 0 0 0 0.4211,-0.073 4.6875,4.6875 0 0 0 0.051,-0.017 4.6875,4.6875 0 0 0 0.024,-0.01 c 2.8589,-0.8858 6.2388,-0.5554 8.9337,0.8185 -5.3608,1.0564 -10.611,3.0043 -15.3094,6.1908 -3.3817,2.2936 -5.8542,4.5877 -8.1684,5.7056 -1.9867,0.9597 -4.4915,1.4667 -7.2766,1.7413 -2.7954,0.2757 -5.9176,0.3316 -9.2999,0.7837 -2.5156,0.3363 -5.4359,0.9121 -8.2434,2.6239 -1.3653,0.8325 -2.6607,1.9305 -3.728,3.3453 -5.7658,-2.2489 -11.62,-4.2697 -17.547,-6.0498 -2.281,-0.685 -4.5747,-1.3303 -6.8756,-1.9446 0.5197,-0.7516 1.1618,-1.407 1.8823,-1.875 1.5866,-1.0305 3.8158,-1.3854 5.6451,-0.9027 a 4.6875,4.6875 0 0 0 0.7416,0.1081 4.6875,4.6875 0 0 0 0.2527,0.037 4.6875,4.6875 0 0 0 1.1462,-0.092 4.6875,4.6875 0 0 0 0.037,0 4.6875,4.6875 0 0 0 0.8789,-0.2838 4.6875,4.6875 0 0 0 0.075,-0.035 4.6875,4.6875 0 0 0 0.8258,-0.4816 4.6875,4.6875 0 0 0 0.061,-0.044 4.6875,4.6875 0 0 0 0.7379,-0.6904 4.6875,4.6875 0 0 0 0.01,-0.01 4.6875,4.6875 0 0 0 0.01,-0.011 4.6875,4.6875 0 0 0 0.5566,-0.824 4.6875,4.6875 0 0 0 0.039,-0.071 4.6875,4.6875 0 0 0 0.3552,-0.9119 4.6875,4.6875 0 0 0 0.011,-0.029 4.6875,4.6875 0 0 0 0.01,-0.026 4.6875,4.6875 0 0 0 0,-0.01 4.6875,4.6875 0 0 0 0.01,-0.044 4.6875,4.6875 0 0 0 0.066,-0.3186 4.6875,4.6875 0 0 0 0.024,-0.1611 4.6875,4.6875 0 0 0 0.029,-0.271 4.6875,4.6875 0 0 0 0.01,-0.1007 4.6875,4.6875 0 0 0 0.01,-0.3369 4.6875,4.6875 0 0 0 0,-0.077 4.6875,4.6875 0 0 0 -0.029,-0.4083 4.6875,4.6875 0 0 0 -0.07,-0.412 4.6875,4.6875 0 0 0 0,-0.017 c -0.5796,-2.7076 -0.2754,-5.684 0.8368,-8.2196 1.1122,-2.5356 3.0976,-4.7743 5.4822,-6.1816 2.1862,-1.2904 4.826,-1.9451 7.381,-1.8531 z" id="path5397" style="color:#000000;fill:#3d3d3d;fill-opacity:1;fill-rule:evenodd;stroke-linecap:round;stroke-linejoin:round"/><path d="m -6872.1373,3756.1411 a 4.6875,4.6875 0 0 0 -1.2927,0.1758 4.6875,4.6875 0 0 0 -0.3479,0.1154 4.6875,4.6875 0 0 0 -0.9338,0.4504 4.6875,4.6875 0 0 0 -0.2582,0.1538 4.6875,4.6875 0 0 0 -0.9339,0.8936 4.6875,4.6875 0 0 0 -0.1666,0.2545 4.6875,4.6875 0 0 0 -0.487,0.9082 4.6875,4.6875 0 0 0 -0.1319,0.3534 4.6875,4.6875 0 0 0 -0.092,0.2453 4.6875,4.6875 0 0 0 -0.1355,1.0181 4.6875,4.6875 0 0 0 0,0.016 4.6875,4.6875 0 0 0 0,0.01 c -0.063,2.9007 -0.5525,5.8035 -1.4465,8.5638 -1.7039,5.261 -5.5208,10.9361 -7.002,18.4113 -0.8031,4.0525 -0.7364,8.2906 0.3259,12.3596 1.0641,4.0757 3.1096,7.8974 6.048,11.0175 2.946,3.1281 6.682,5.431 10.7996,6.6595 2.9591,0.8829 6.058,1.1848 9.1186,0.9174 1.2294,1.9516 2.6482,3.7799 4.2408,5.4547 -0.8973,4.8498 -1.1513,9.8039 -0.7929,14.7162 2.1434,0.6451 4.1952,1.5664 6.0608,2.8015 1.0756,-0.7488 2.2271,-1.3774 3.4241,-1.9098 -0.3694,-3.4954 -0.3668,-7.0347 0.024,-10.5267 3.8153,1.0157 7.8809,1.0073 11.737,-0.1026 6.0282,-1.7351 11.0681,-6.0127 13.7604,-11.6785 1.9918,-4.1916 2.4691,-8.4569 2.8327,-12.1966 0.3623,-3.7244 0.6442,-7.0426 1.5582,-9.7412 1.1903,-3.5146 3.6915,-6.6856 6.8316,-8.6627 3.1403,-1.9772 7.0811,-2.8627 10.7648,-2.417 a 4.6875,4.6875 0 0 0 0.2289,-0.01 4.6875,4.6875 0 0 0 0.5292,-0.018 4.6875,4.6875 0 0 0 1.1407,-0.1831 4.6875,4.6875 0 0 0 0.5457,-0.1996 4.6875,4.6875 0 0 0 1.0071,-0.6225 4.6875,4.6875 0 0 0 0.3039,-0.1886 4.6875,4.6875 0 0 0 0.1813,-0.1923 4.6875,4.6875 0 0 0 0.099,-0.1044 4.6875,4.6875 0 0 0 0.7598,-1.1316 4.6875,4.6875 0 0 0 0.024,-0.044 4.6875,4.6875 0 0 0 0.3791,-1.333 4.6875,4.6875 0 0 0 0.018,-0.062 4.6875,4.6875 0 0 0 0.016,-0.2783 4.6875,4.6875 0 0 0 0.011,-0.1721 4.6875,4.6875 0 0 0 -0.013,-0.445 4.6875,4.6875 0 0 0 -0.01,-0.1519 4.6875,4.6875 0 0 0 -0.07,-0.4267 4.6875,4.6875 0 0 0 -0.031,-0.1684 4.6875,4.6875 0 0 0 -0.4193,-1.1188 4.6875,4.6875 0 0 0 0,-0.01 4.6875,4.6875 0 0 0 -0.3076,-0.4999 4.6875,4.6875 0 0 0 -0.092,-0.1153 4.6875,4.6875 0 0 0 -0.2765,-0.3388 4.6875,4.6875 0 0 0 -0.031,-0.038 c -4.7863,-5.1407 -10.8422,-9.023 -17.5122,-11.2244 -5.0019,-1.6509 -10.2935,-2.3366 -15.5383,-2.0361 -1.7479,0.1002 -3.4908,0.3096 -5.2167,0.6299 -6.5561,1.2166 -12.8165,4.0329 -18.0286,8.2818 -1.5022,-2.8895 -3.449,-5.5458 -5.7806,-7.8461 -3.9719,-3.9181 -8.9594,-6.7212 -14.372,-8.0749 a 4.6875,4.6875 0 0 0 -0.01,0 4.6875,4.6875 0 0 0 -0.013,0 4.6875,4.6875 0 0 0 -1.0235,-0.1355 z m 3.9075,11.2482 c 1.8036,0.9811 3.4747,2.2089 4.9255,3.6401 2.4287,2.3958 4.2952,5.4153 5.387,8.6628 -2.8336,4.0344 -4.8697,8.6316 -5.8539,13.526 -1.0666,5.3044 -0.8687,10.8116 0.5475,16.0235 -0.7769,-0.1032 -1.546,-0.2575 -2.2907,-0.4797 -2.509,-0.7486 -4.8607,-2.1991 -6.6558,-4.1052 -1.7949,-1.9059 -3.1231,-4.3538 -3.8031,-6.9581 -0.6816,-2.6107 -0.7386,-5.4503 -0.1996,-8.1701 1.0049,-5.0717 4.4863,-10.4378 6.7236,-17.3456 0.5088,-1.571 0.9124,-3.1729 1.2195,-4.7937 z m 43.1103,5.2094 c 3.4022,0.02 6.8051,0.5675 10.0232,1.6296 1.8528,0.6115 3.6519,1.4037 5.3705,2.3437 -1.6223,0.6097 -3.1901,1.3777 -4.6692,2.309 -5.0113,3.1552 -8.8175,7.9812 -10.7171,13.5901 -1.4306,4.224 -1.6616,8.2914 -2.0069,11.8414 -0.3438,3.5348 -0.8253,6.6706 -1.9702,9.0802 -1.4932,3.1424 -4.5448,5.7284 -7.8882,6.6907 -2.278,0.6557 -4.8342,0.5834 -7.1649,-0.1099 1.4183,-4.4384 3.4725,-8.6806 6.0974,-12.5244 a 4.6875,4.6875 0 0 0 -1.2268,-6.513 4.6875,4.6875 0 0 0 -3.5119,-0.7361 4.6875,4.6875 0 0 0 -3.003,1.9629 c -2.3089,3.3812 -4.2489,7.0059 -5.7879,10.794 -0.8989,-1.5325 -1.6474,-3.1521 -2.2046,-4.8285 -1.386,-4.1697 -1.6664,-8.755 -0.8002,-13.0627 1.0934,-5.4375 4.0671,-10.5929 8.2031,-14.4232 4.1457,-3.8393 9.5299,-6.4578 15.1758,-7.5055 1.9991,-0.371 4.0396,-0.5501 6.0809,-0.5383 z m -21.0772,78.457 a 4.6875,4.6875 0 0 1 -0.1337,0.1044 4.6875,4.6875 0 0 1 -0.6464,0.5072 4.6875,4.6875 0 0 1 -0.3698,0.1959 4.6875,4.6875 0 0 1 -0.6794,0.2875 4.6875,4.6875 0 0 1 -0.4046,0.1098 4.6875,4.6875 0 0 0 0.1282,-0.01 4.6875,4.6875 0 0 0 2.1057,-1.1975 z m -5.7294,0.6262 a 4.6875,4.6875 0 0 0 0.1025,0.075 4.6875,4.6875 0 0 1 -0.1025,-0.075 z m 1.6296,0.6134 a 4.6875,4.6875 0 0 0 0.3827,0.048 4.6875,4.6875 0 0 1 -0.3827,-0.048 z" id="path5425" style="color:#000000;fill:#dcac3e;fill-opacity:1;fill-rule:evenodd;stroke-linecap:round;stroke-linejoin:round"/></g></g></svg>