<?xml version="1.0" ?><svg height="300" id="svg2" version="1.1" viewBox="0 0 281.25 281.25" width="300" xml:space="preserve" xmlns="http://www.w3.org/2000/svg" xmlns:cc="http://creativecommons.org/ns#" xmlns:dc="http://purl.org/dc/elements/1.1/" xmlns:rdf="http://www.w3.org/1999/02/22-rdf-syntax-ns#" xmlns:svg="http://www.w3.org/2000/svg"><defs id="defs4"/><g id="layer1" transform="translate(6984.8564,-3994.3706)"><g id="g10504"><path d="m -6903.3513,4127.8397 c -0.3772,0.01 -0.7552,0.025 -1.1316,0.051 -3.011,0.2061 -5.9833,0.9689 -8.7451,2.2778 -4.9872,2.3636 -9.0472,6.3882 -11.4551,11.3544 -1.5776,3.254 -2.3943,6.8151 -2.4261,10.3967 -3.3622,0.536 -6.5665,1.934 -9.2651,4.1034 -4.2328,3.4029 -6.8866,8.4284 -7.3096,13.8428 -0.4645,5.9454 1.8063,11.8157 6.1487,15.9027 4.2413,3.9919 10.063,5.9007 15.8349,5.2204 h 64.3854 a 4.6875,4.6875 0 0 0 0.017,0 4.6875,4.6875 0 0 0 1.2323,-0.1666 c 4.2448,-1.1724 7.9997,-3.7098 10.6732,-7.2089 2.6736,-3.4992 4.1354,-7.7894 4.151,-12.193 0.018,-5.3347 -2.087,-10.4874 -5.8392,-14.2804 -2.8959,-2.9273 -6.6148,-4.8777 -10.6128,-5.6359 -2.1028,-5.7282 -6.4633,-10.4754 -12.0996,-13.0042 -2.7918,-1.2525 -5.7901,-1.9168 -8.8037,-1.9885 -1.7509,-0.042 -3.5055,0.1224 -5.2277,0.4816 -2.9945,-3.7523 -7.0646,-6.5784 -11.6821,-8.0365 -2.5501,-0.8054 -5.2037,-1.1736 -7.8443,-1.1152 z m 0.2124,9.3915 c 1.6378,-0.039 3.2771,0.1793 4.8084,0.6629 3.5002,1.1053 6.6688,3.6673 8.4814,6.8591 a 4.6875,4.6875 0 0 0 0.099,0.1318 4.6875,4.6875 0 0 0 0.4688,0.6171 4.6875,4.6875 0 0 0 0.2435,0.2838 4.6875,4.6875 0 0 0 0.7709,0.6006 4.6875,4.6875 0 0 0 0.1373,0.1025 4.6875,4.6875 0 0 0 1.0565,0.445 4.6875,4.6875 0 0 0 0.3186,0.06 4.6875,4.6875 0 0 0 0.8075,0.1117 4.6875,4.6875 0 0 0 0.4193,-0.015 4.6875,4.6875 0 0 0 0.7233,-0.09 4.6875,4.6875 0 0 0 0.4394,-0.1172 4.6875,4.6875 0 0 0 0.304,-0.082 c 3.2669,-1.2826 7.2275,-1.1876 10.4297,0.2491 3.8156,1.7118 6.8928,5.5812 7.6996,9.6844 a 4.6875,4.6875 0 0 0 0.048,0.1538 4.6875,4.6875 0 0 0 0.1245,0.3937 4.6875,4.6875 0 0 0 0.2765,0.6775 4.6875,4.6875 0 0 0 0.227,0.3863 4.6875,4.6875 0 0 0 0.4267,0.564 4.6875,4.6875 0 0 0 0.3039,0.3259 4.6875,4.6875 0 0 0 0.5878,0.456 4.6875,4.6875 0 0 0 0.3351,0.2252 4.6875,4.6875 0 0 0 0.813,0.3442 4.6875,4.6875 0 0 0 0.2453,0.095 4.6875,4.6875 0 0 0 1.1224,0.1557 4.6875,4.6875 0 0 0 0.057,0.01 c 2.7688,0.02 5.6699,1.2433 7.6172,3.2117 1.9472,1.9684 3.1407,4.8825 3.1311,7.652 -0.01,2.3077 -0.8236,4.7013 -2.2247,6.535 -1.2908,1.6893 -3.1729,3.0151 -5.2002,3.6951 h -63.891 a 4.6875,4.6875 0 0 0 -0.26,0.04 4.6875,4.6875 0 0 0 -0.39,0 c -2.9706,0.4143 -6.3432,-0.6599 -8.5273,-2.7155 -2.1841,-2.0558 -3.4617,-5.3575 -3.2281,-8.3477 0.2142,-2.7414 1.6929,-5.5428 3.836,-7.2657 2.1432,-1.7229 5.1959,-2.5642 7.9194,-2.1844 a 4.6875,4.6875 0 0 0 0.249,0 4.6875,4.6875 0 0 0 0.5878,0 4.6875,4.6875 0 0 0 0.628,-0.059 4.6875,4.6875 0 0 0 0.2307,-0.022 4.6875,4.6875 0 0 0 0.6629,-0.2105 4.6875,4.6875 0 0 0 0.088,-0.033 4.6875,4.6875 0 0 0 0.9925,-0.5621 4.6875,4.6875 0 0 0 0.075,-0.059 4.6875,4.6875 0 0 0 0.8111,-0.802 4.6875,4.6875 0 0 0 0.031,-0.035 4.6875,4.6875 0 0 0 0.5841,-0.9943 4.6875,4.6875 0 0 0 0.037,-0.084 4.6875,4.6875 0 0 0 0.3039,-1.1005 4.6875,4.6875 0 0 0 0.011,-0.038 4.6875,4.6875 0 0 0 0.02,-0.2234 4.6875,4.6875 0 0 0 0.013,-0.1374 4.6875,4.6875 0 0 0 0.01,-0.3332 4.6875,4.6875 0 0 0 0,-0.1154 4.6875,4.6875 0 0 0 -0.022,-0.3003 4.6875,4.6875 0 0 0 -0.017,-0.1611 4.6875,4.6875 0 0 0 -0.075,-0.4248 c 0,-0.01 0,-0.018 -0.01,-0.028 -0.7344,-3.2355 -0.3249,-6.8276 1.1224,-9.8126 1.4515,-2.9938 4.0283,-5.5477 7.0349,-6.9727 1.8658,-0.8842 3.9679,-1.36 6.0736,-1.4099 z m 104.3958,16.9849 c -2.9486,0.035 -5.8717,0.7652 -8.5181,2.1551 -3.4847,1.8302 -6.3111,4.712 -8.0713,8.2325 -0.8899,1.7823 -1.4853,3.6849 -1.7761,5.6341 -1.8628,0.1719 -3.6988,0.651 -5.4291,1.4337 -3.5401,1.6015 -6.4183,4.3679 -8.161,7.8406 -2.5713,5.124 -2.3782,11.2085 0.5164,16.1572 2.8944,4.9488 8.1032,8.1012 13.8299,8.3716 a 4.6875,4.6875 0 0 0 0.1319,-0.01 4.6875,4.6875 0 0 0 0.09,0.015 h 54.5764 a 4.6875,4.6875 0 0 0 0.013,0 4.6875,4.6875 0 0 0 0.018,0 c 4.1055,-0.028 8.0569,-1.546 11.1255,-4.2737 3.0686,-2.7275 5.0389,-6.473 5.5481,-10.5469 0.6908,-5.5266 -1.3854,-11.0433 -5.5481,-14.7436 -3.0293,-2.6926 -6.8849,-4.1708 -10.8435,-4.2645 -1.9484,-4.5253 -5.5378,-8.2408 -10.1147,-10.2924 -2.8847,-1.2931 -6.0045,-1.8569 -9.0894,-1.7065 -1.8028,0.088 -3.5921,0.4277 -5.3174,1.0016 -2.3443,-2.1695 -5.2178,-3.7272 -8.3624,-4.4843 -1.1072,-0.2665 -2.2287,-0.4302 -3.3527,-0.4926 -0.4215,-0.023 -0.844,-0.032 -1.2652,-0.027 z m -0.088,9.3951 c 0.8528,-0.032 1.7034,0.046 2.5104,0.2399 2.152,0.518 4.2148,1.9161 5.4913,3.7244 a 4.6875,4.6875 0 0 0 0.1648,0.1776 4.6875,4.6875 0 0 0 0.4925,0.5346 4.6875,4.6875 0 0 0 0.326,0.2839 4.6875,4.6875 0 0 0 0.6335,0.401 4.6875,4.6875 0 0 0 0.3552,0.1886 4.6875,4.6875 0 0 0 0.8533,0.2655 4.6875,4.6875 0 0 0 0.2399,0.066 4.6875,4.6875 0 0 0 1.1481,0.046 4.6875,4.6875 0 0 0 0.2526,-0.046 4.6875,4.6875 0 0 0 0.8716,-0.1978 4.6875,4.6875 0 0 0 0.3498,-0.152 4.6875,4.6875 0 0 0 0.465,-0.1995 c 2.7671,-1.5802 6.5772,-1.7667 9.4849,-0.4633 2.9774,1.3346 5.4161,4.4286 6.0169,7.6355 a 4.6875,4.6875 0 0 0 0.04,0.13 4.6875,4.6875 0 0 0 0.017,0.13 4.6875,4.6875 0 0 0 0.1355,0.3699 4.6875,4.6875 0 0 0 0.1813,0.487 4.6875,4.6875 0 0 0 0.2545,0.4468 4.6875,4.6875 0 0 0 0.2966,0.4541 4.6875,4.6875 0 0 0 0.3406,0.3662 4.6875,4.6875 0 0 0 0.39,0.3772 4.6875,4.6875 0 0 0 0.4193,0.2875 4.6875,4.6875 0 0 0 0.4615,0.2783 4.6875,4.6875 0 0 0 0.4815,0.1905 4.6875,4.6875 0 0 0 0.4981,0.1647 4.6875,4.6875 0 0 0 0.5127,0.079 4.6875,4.6875 0 0 0 0.5346,0.049 4.6875,4.6875 0 0 0 0.5036,-0.037 4.6875,4.6875 0 0 0 0.4028,-0.029 4.6875,4.6875 0 0 0 0.2252,-0.053 4.6875,4.6875 0 0 0 0.035,0 c 2.2603,-0.5576 5.0788,0.1397 6.8189,1.6864 1.7401,1.5467 2.7643,4.2652 2.4756,6.5754 -0.2188,1.7502 -1.1572,3.5285 -2.4756,4.7003 -1.3184,1.172 -3.1966,1.8941 -4.9604,1.9061 h -54.3914 c -2.3723,-0.1389 -4.913,-1.6883 -6.1103,-3.7353 -1.2089,-2.0666 -1.3046,-5.0799 -0.2307,-7.2199 0.7532,-1.501 2.1154,-2.8105 3.6457,-3.5028 1.53,-0.6922 3.4143,-0.8519 5.039,-0.4266 a 4.6875,4.6875 0 0 0 0.434,0.062 4.6875,4.6875 0 0 0 0.4229,0.062 4.6875,4.6875 0 0 0 0.8112,-0.026 4.6875,4.6875 0 0 0 0.2655,-0.01 4.6875,4.6875 0 0 0 0.108,-0.022 4.6875,4.6875 0 0 0 0.095,-0.02 4.6875,4.6875 0 0 0 0.9338,-0.2948 4.6875,4.6875 0 0 0 0.015,0 4.6875,4.6875 0 0 0 0.01,0 4.6875,4.6875 0 0 0 0.868,-0.5072 4.6875,4.6875 0 0 0 0.06,-0.046 4.6875,4.6875 0 0 0 0.7306,-0.6848 4.6875,4.6875 0 0 0 0.018,-0.024 4.6875,4.6875 0 0 0 0.5548,-0.824 4.6875,4.6875 0 0 0 0.029,-0.055 4.6875,4.6875 0 0 0 0.3625,-0.9375 4.6875,4.6875 0 0 0 0.01,-0.017 4.6875,4.6875 0 0 0 0.029,-0.1318 4.6875,4.6875 0 0 0 0.048,-0.2161 4.6875,4.6875 0 0 0 0.028,-0.1831 4.6875,4.6875 0 0 0 0.027,-0.2234 4.6875,4.6875 0 0 0 0,-0.01 4.6875,4.6875 0 0 0 0.01,-0.1098 4.6875,4.6875 0 0 0 0.015,-0.2674 4.6875,4.6875 0 0 0 0,-0.01 4.6875,4.6875 0 0 0 0,-0.1264 4.6875,4.6875 0 0 0 -0.01,-0.26 4.6875,4.6875 0 0 0 -0.046,-0.3991 c -0.3064,-1.8998 0.014,-3.9852 0.8753,-5.7111 0.8618,-1.7229 2.3375,-3.2277 4.043,-4.1235 1.2247,-0.6433 2.649,-1.0044 4.0704,-1.0584 z" id="path13922" style="color:#000000;fill:#3d3d3d;fill-opacity:1;fill-rule:evenodd;stroke-linecap:round;stroke-linejoin:round"/><g id="g10480" style="fill:#dcac3e;fill-opacity:1"><path d="m -6838.6836,4065.9844 c -10.2264,0.3202 -20.3936,2.5371 -29.8164,6.6269 -18.8456,8.1795 -34.2485,23.6525 -42.3418,42.5352 a 4.6875,4.6875 0 0 0 2.4629,6.1543 4.6875,4.6875 0 0 0 6.1543,-2.461 c 7.1202,-16.6124 20.8792,-30.4328 37.459,-37.6289 16.5797,-7.1961 36.0708,-7.8067 53.0683,-1.6621 14.7982,5.3496 27.8117,15.7855 36.2481,29.0684 8.4363,13.2827 12.3492,29.4994 10.9004,45.168 a 4.6875,4.6875 0 0 0 4.2363,5.0976 4.6875,4.6875 0 0 0 5.0996,-4.2363 c 1.6448,-17.787 -2.7454,-35.9761 -12.3223,-51.0547 -9.5769,-15.0787 -24.1756,-26.7865 -40.9746,-32.8594 -9.6602,-3.4922 -19.9474,-5.0683 -30.1738,-4.748 z" id="path13962" style="color:#000000;fill:#dcac3e;fill-opacity:1;fill-rule:evenodd;stroke-linecap:round;stroke-linejoin:round;-inkscape-stroke:none"/><path d="m -6834.3398,4080.2578 c -11.199,-0.4063 -22.4737,1.977 -32.5372,6.9844 -13.418,6.6766 -24.4139,17.8831 -30.8339,31.4258 a 4.6875,4.6875 0 0 0 2.2285,6.2441 4.6875,4.6875 0 0 0 6.2441,-2.2285 c 5.4964,-11.5943 15.0496,-21.3328 26.5371,-27.0488 11.4876,-5.7161 25.0189,-7.4637 37.5821,-4.8555 12.8698,2.6717 24.8474,9.9517 33.1464,20.1445 8.2992,10.1929 13.0002,23.3968 13.0079,36.541 a 4.6875,4.6875 0 0 0 4.6894,4.6856 4.6875,4.6875 0 0 0 4.6856,-4.6914 c -0.01,-15.357 -5.4171,-30.5464 -15.1133,-42.4551 -9.6962,-11.9087 -23.4754,-20.2828 -38.5117,-23.4043 -3.6686,-0.7616 -7.3921,-1.2063 -11.125,-1.3418 z" id="path13966" style="color:#000000;fill:#dcac3e;fill-opacity:1;fill-rule:evenodd;stroke-linecap:round;stroke-linejoin:round;-inkscape-stroke:none"/><path d="m -6836.3613,4094.5449 c -1.763,-0.025 -3.5304,0.038 -5.293,0.1934 -9.3687,0.8251 -18.4472,4.1766 -26.1035,9.6387 -7.6563,5.4622 -13.7805,12.9546 -17.6094,21.5449 a 4.6875,4.6875 0 0 0 2.3731,6.1895 4.6875,4.6875 0 0 0 6.1894,-2.3731 c 3.1368,-7.0375 8.2199,-13.2556 14.4922,-17.7304 6.2725,-4.4748 13.8052,-7.2577 21.4805,-7.9336 11.4909,-1.012 23.5034,2.8554 32.2461,10.3808 8.7427,7.5255 14.3551,18.8282 15.0644,30.3418 a 4.6875,4.6875 0 0 0 4.9668,4.3907 4.6875,4.6875 0 0 0 4.3906,-4.9668 c -0.8704,-14.1284 -7.5764,-27.6366 -18.3046,-36.8711 -9.3872,-8.0803 -21.5519,-12.6278 -33.8926,-12.8067 z" id="path13970" style="color:#000000;fill:#dcac3e;fill-opacity:1;fill-rule:evenodd;stroke-linecap:round;stroke-linejoin:round;-inkscape-stroke:none"/><path d="m -6835.9355,4109.8457 c -5.8534,-0.074 -11.7013,1.1669 -17.0274,3.6523 -7.1016,3.3141 -13.1046,8.7613 -17.0918,15.5079 a 4.6875,4.6875 0 0 0 1.6504,6.4199 4.6875,4.6875 0 0 0 6.4199,-1.6504 c 3.005,-5.0846 7.6344,-9.2837 12.9864,-11.7813 5.352,-2.4976 11.544,-3.3477 17.371,-2.3847 6.208,1.0259 12.1452,4.1455 16.5118,8.6758 4.3665,4.5302 7.2657,10.5789 8.0625,16.8203 a 4.6875,4.6875 0 0 0 5.2422,4.0547 4.6875,4.6875 0 0 0 4.0566,-5.2422 c -1.0584,-8.2904 -4.8113,-16.1212 -10.6113,-22.1387 -5.8001,-6.0175 -13.4886,-10.0572 -21.7344,-11.4199 -1.933,-0.3195 -3.8848,-0.4891 -5.8359,-0.5137 z" id="path13974" style="color:#000000;fill:#dcac3e;fill-opacity:1;fill-rule:evenodd;stroke-linecap:round;stroke-linejoin:round;-inkscape-stroke:none"/></g></g></g></svg>