<svg id="Layer_1" data-name="Layer 1" xmlns="http://www.w3.org/2000/svg" viewBox="0 0 200 200"><defs><style>.cls-1{fill:#3f2918;}.cls-2{fill:#4d9480;}.cls-3{fill:#da853d;}.cls-4,.cls-6{fill:#eeec9e;}.cls-5{fill:#aa5f2a;}.cls-6{font-size:11.06px;font-family:InkFree, Ink Free;letter-spacing:0.11em;}</style></defs><circle class="cls-1" cx="100" cy="100" r="97.77"/><circle class="cls-2" cx="100.11" cy="100.25" r="93.38"/><path class="cls-1" d="M99.87,188.52c38.52,0,71-23.67,81.19-56H18.68C28.86,164.85,61.36,188.52,99.87,188.52Z"/><path class="cls-1" d="M53.23,124.46H148a16.31,16.31,0,0,0,16.31-16.08l.42-31.63a16.26,16.26,0,0,0-7.57-14l-.19-.11-2.29-1.52c-2.25-1.58-4.45-3.23-6.53-5-1.29-1.12-2.53-2.3-3.73-3.52a15.72,15.72,0,0,1-1.2-1.39c-1.19-1.55-3.57-4.44-5.3-4.54s-6.15,4.32-6.43,4.15c-2.76-1.66-2.18-1.27-4.42-3.59-1.18-1.23-2.25-2.65-3.8-3.36-1.31-.6-2.83-.62-4.16-1.17a8.33,8.33,0,0,1-1.81-1.08c-1.38-1.48-3.77-4-6.19-6.06a8.23,8.23,0,0,0-1.63-1.37,19.55,19.55,0,0,1-3.58-2.56c-.88-1-1.59-2.29-2.88-2.5s-2.27.71-3.15,1.56L98.2,32.25a15.43,15.43,0,0,1-10.63,4.06,5.67,5.67,0,0,0-2.13.43,10.12,10.12,0,0,0-2,1.23c-6.37,4.65-9.23,6.53-15.6,11.17-.45-.54-.91-1.07-1.36-1.6a1.54,1.54,0,0,0-.58-.5c-.56-.22-4.64,3-5.07,3.38l-7.61,7.14a30,30,0,0,1-4.86,3.93c-1.64,1-3.51,1.68-4.82,3.07A15.25,15.25,0,0,0,41.81,67a9.31,9.31,0,0,1-1.25,1.26c-1,.83-2.8,2.69-3.1,3.87h0v.1a.82.82,0,0,0,0,.22s0,0,0,0l-.5,35.42A16.3,16.3,0,0,0,53.23,124.46Z"/><path class="cls-3" d="M92,42c.38-3.7,3.4-6.57,6.52-8.6,2.17-1.42,4.81-2.64,7.28-1.87,2.71.86,4.3,3.84,7,4.73a6.39,6.39,0,0,0-3-3.7,20.73,20.73,0,0,1-4-2.82c-1-1.06-1.76-2.53-3.18-2.76s-2.51.79-3.48,1.72l-7.94,7.63c-2.59-1.08-5.44-2-8-.94a11.54,11.54,0,0,0-2.22,1.37L59.93,52.17l-1.5-1.77a1.81,1.81,0,0,0-.65-.55c-.61-.24-1.25.24-1.73.69l-8.41,7.89a32.9,32.9,0,0,1-5.36,4.35c-1.82,1.09-3.88,1.85-5.34,3.39-1.62,1.72-2.35,4.29-4.37,5.52l.06-.25a.78.78,0,0,0-.12.75c1.31.34,2.45-.82,3.45-1.72,3.73-3.36,9.36-4.17,12.68-7.91a61.48,61.48,0,0,1-2.1,15.56c2.47-3.24,5-6.69,5.47-10.74.23-2.11-.12-4.3.57-6.3.81-2.33,2.88-3.95,4.85-5.44a50.16,50.16,0,0,0,11.31,8.77,42.58,42.58,0,0,0,8.42,7.08c-1.75-3.23-6.84-8.39-5.66-11.87s8.53-5.4,10.61-8.43a7.4,7.4,0,0,1,2.46-2.57,2.53,2.53,0,0,1,3.23.59,3.23,3.23,0,0,1-.27,3.11,26,26,0,0,0-1.65,3.13,3.55,3.55,0,0,0,.33,3.38q1.88-3.22,3.74-6.45A14.27,14.27,0,0,0,92,47.28C92.25,45.54,91.82,43.77,92,42ZM80.7,46.49a33,33,0,0,1-3.27,2.88c-1.27,1-2.67,1.71-4,2.59a28.62,28.62,0,0,0-6.53,6c-1-.45-2.08-.85-3.13-1.23l-1.67-2c.38-.17.82-.34,1.42-.58,2.38-.93,5.33-1.05,6.83-3.11.82-1.12,1-2.61,1.81-3.72l2.35-1.59c1.31-.43,2.82-.58,4.1-1.14a6.29,6.29,0,0,0,3.62-4.89,5.58,5.58,0,0,1,1.85-1.15c1.39-.47,2.9,0,4.36,0h.45Q84.79,42.54,80.7,46.49Z"/><path class="cls-3" d="M83.7,61.09a1,1,0,0,1,.36.32.57.57,0,0,1,.13-.08Z"/><path class="cls-3" d="M81.31,65.94a1,1,0,0,0,0,.53.63.63,0,0,0,.89.24,1.85,1.85,0,0,0,.65-.81c.32-.64.65-1.27,1-1.9a4.22,4.22,0,0,0,.55-1.52,1.6,1.6,0,0,0-.29-1.07C82.43,62.19,81.78,64.17,81.31,65.94Z"/><path class="cls-3" d="M112.12,48.93c-1.5-2.22-3.07-4.85-2.29-7.41a11.25,11.25,0,0,1,5.86,4.33c.06-1.9-1.55-3.38-3-4.57l-6.45-5.2a10.82,10.82,0,0,0-3.08-1.94l.37.82c1.48,1.29,3,2.72,3.44,4.64.3,1.49-.16,3,.13,4.53a9.21,9.21,0,0,0,1.51,3.16q5.19,8,10.37,16a6.69,6.69,0,0,0,2.38,2.54c-.89-4.53-3.53-8.49-6.11-12.32Z"/><path class="cls-3" d="M97.61,37.89,95.22,41A8.18,8.18,0,0,0,94,43a2.79,2.79,0,0,0,0,2.14,9,9,0,0,1,1.16-1.86l5-6.75C99.18,36.14,98.24,37.07,97.61,37.89Z"/><path class="cls-3" d="M94,45.2s0-.07,0-.11c0,.13-.11.26-.15.39Z"/><path class="cls-3" d="M162.84,67.63l-.15-1.86a13,13,0,0,0,3.75,1.14,135.12,135.12,0,0,1-13.89-10.09c-1.71-1.48-3.34-3-4.9-4.69-.93-1.24-1.82-2.51-2.74-3.75-.18-.23-.4-.49-.69-.48a.89.89,0,0,0-.59.36,57.42,57.42,0,0,0-5,6,1,1,0,0,0,0-.24,1.62,1.62,0,0,0-.75-.71A40.26,40.26,0,0,1,129.25,47c-1.31-1.36-2.49-2.92-4.2-3.71-1.45-.66-3.12-.69-4.6-1.29-1.94-.8-3.38-2.53-5.13-3.63l-.15-.13a3.88,3.88,0,0,0-2.27-1.11,5.89,5.89,0,0,0,3.33,3.2c.94.73,2,1.39,2.92,2.09a51.51,51.51,0,0,1,4.52,3.84L131,53a2.55,2.55,0,0,1,.68.82,2.15,2.15,0,0,1,.05,1.35c-.63,2.63-3.39,4.66-3.1,7.34a20.41,20.41,0,0,0,5-6.57c1,.64.57,2.14,0,3.19L128.26,70c.3.52,1,.22,1.46-.24a19.56,19.56,0,0,0,7.14-6.5c.7-1.06,1.29-2.19,2-3.22A18.38,18.38,0,0,1,140.69,58a14.17,14.17,0,0,0-.47,1.57c-.12.5-.19,1-.35,1.5-.35,1.14-1.11,2.32-.65,3.42.61-.86,1.23-1.71,1.85-2.57l2.49-3.45a12.94,12.94,0,0,0,1.66-2.73,6.72,6.72,0,0,0,.49-3l0,0A107.18,107.18,0,0,0,154.27,61l7.37,6.61a2.24,2.24,0,0,0,1.24.67h0a.89.89,0,0,0,.23,0A1.94,1.94,0,0,0,162.84,67.63Z"/><path class="cls-1" d="M132.69,25.53a10,10,0,0,0,2,.48c-.48-.25-1.09-.41-1.61-.64a12.71,12.71,0,0,1-1.49-.84,4.15,4.15,0,0,0-2.24-1,7.67,7.67,0,0,0-2.62.51.65.65,0,0,0-.48-.8c-.53-.11-.91.43-1,.93a3.9,3.9,0,0,1-1-.3,14.47,14.47,0,0,0-2.07-1.07,2.52,2.52,0,0,0-1.36.12c-.47.11-.95.18-1.41.32a12.37,12.37,0,0,0-2.57,1.13,12.12,12.12,0,0,0,1.59,0,5.85,5.85,0,0,1,2.07.05,8.31,8.31,0,0,0,2.88,1.06l.44,0a2.63,2.63,0,0,1-.44.3c-.4.22-1,.5-.53.94a1.51,1.51,0,0,0,.8.36,6.27,6.27,0,0,0,1.3.19c.15,0,.57,0,.55-.1a2.49,2.49,0,0,1,.48-1.81,16.53,16.53,0,0,0,1.74-.19c.56-.11,1.55-.47,1.85-.47A32.77,32.77,0,0,1,132.69,25.53Z"/><path class="cls-1" d="M139.17,35.39a5.56,5.56,0,0,0-1.77-.82,2.76,2.76,0,0,0-1.12.31,4.77,4.77,0,0,1-1.23.44c.07-.39,0-.9-.47-.87s-.49.62-.54,1c-.18,0-1.38-.81-1.89-.95a3.21,3.21,0,0,0-1.71-.06,5.34,5.34,0,0,0-1.11.86,3.55,3.55,0,0,0-.87,1c.17,0,.39-.14.55-.2a6.29,6.29,0,0,1,2.88-.46,11.46,11.46,0,0,1,1.87.76h0a1.46,1.46,0,0,1-.4.78c-.2.23-.32.33,0,.54a1.07,1.07,0,0,0,.55.16,2.31,2.31,0,0,0,.83,0c.35-.1.24-.16.12-.47a1.53,1.53,0,0,1,0-1l.3-.09c.52-.12,1-.22,1.53-.3a7,7,0,0,1,1.88.1c.45,0,.87.17,1.33.2a3.56,3.56,0,0,0,1,.1C140.56,35.89,139.65,35.63,139.17,35.39Z"/><path class="cls-1" d="M122.57,10.59s-5.18,1.66-8.41,1.58c-2.44-.07-6.29,1.87-8,2.81-.26-.41-.71-.92-1.28-.78a1.14,1.14,0,0,0-.76.82,22.22,22.22,0,0,0-4.81-1.37c-2.35-.26-8.71-1.57-8.71-1.57,2.54,2.36,5.48,1.66,9.49,3.67s5.18,1.83,5.18,1.83.88,2.19,1.57,2.28a20.47,20.47,0,0,0,3.91-1.14l-2.25-1.84a21.58,21.58,0,0,1,7.24-3.4A22.58,22.58,0,0,0,122.57,10.59Z"/><path class="cls-1" d="M64,30.46a3.65,3.65,0,0,0-2-.86,6.78,6.78,0,0,0-2.3.46.57.57,0,0,0-.42-.71c-.47-.09-.8.38-.93.82a3.89,3.89,0,0,1-.86-.27A13.49,13.49,0,0,0,55.76,29a2.22,2.22,0,0,0-1.2.11c-.41.1-.83.16-1.24.28a10.59,10.59,0,0,0-2.25,1,9.28,9.28,0,0,0,1.39,0,5.15,5.15,0,0,1,1.82.05,7.42,7.42,0,0,0,2.52.93l.39,0a2.21,2.21,0,0,1-.39.26c-.35.19-.84.44-.46.83a1.35,1.35,0,0,0,.7.31,5.49,5.49,0,0,0,1.14.16c.13,0,.5.05.48-.08a2.21,2.21,0,0,1,.43-1.59c.51,0,1-.07,1.52-.16s1.36-.42,1.63-.42,2.44.61,2.8.72a8.76,8.76,0,0,0,1.73.42c-.43-.22-1-.36-1.42-.56A9.37,9.37,0,0,1,64,30.46Z"/><path class="cls-1" d="M85.46,17.59a10.27,10.27,0,0,0-2.8-1,5.13,5.13,0,0,0-1.75.39,8.63,8.63,0,0,1-1.93.56c.1-.49-.07-1.13-.74-1.1s-.78.79-.85,1.29c-.29-.05-2.18-1-3-1.21a6.38,6.38,0,0,0-2.68-.07A8.18,8.18,0,0,0,70,17.52a4.68,4.68,0,0,0-1.37,1.28c.27,0,.61-.17.87-.25A12.24,12.24,0,0,1,74,18a21.07,21.07,0,0,1,2.94,1h0a1.78,1.78,0,0,1-.63,1c-.32.29-.51.42-.07.68a1.76,1.76,0,0,0,.85.21,5.12,5.12,0,0,0,1.3-.06c.56-.13.39-.21.2-.6a1.55,1.55,0,0,1,0-1.31l.47-.1c.81-.16,1.59-.28,2.4-.39a14,14,0,0,1,3,.13c.71.06,1.37.22,2.08.26a6.76,6.76,0,0,0,1.54.12C87.64,18.23,86.21,17.9,85.46,17.59Z"/><path class="cls-1" d="M75.83,25.23a3.65,3.65,0,0,0-1.35-.57,2.3,2.3,0,0,0-1,.24,4.26,4.26,0,0,1-1.17.14c.08-.35,0-.81-.36-.79s-.44.54-.49.89a2.73,2.73,0,0,1-.43-.16c-.42-.17-.88-.3-1.3-.44a2.62,2.62,0,0,0-1.44-.1,2.56,2.56,0,0,0-.8.42,3,3,0,0,0-.77.88c.14,0,.33-.11.47-.16a5,5,0,0,1,2.44-.32c.54.07,1,.56,1.54.74h0a1.4,1.4,0,0,1-.37.69c-.18.2-.29.29-.06.48a.8.8,0,0,0,.45.17,2.06,2.06,0,0,0,.7,0c.3-.08.21-.14.12-.42a1.4,1.4,0,0,1,.07-.92l.26-.07c.44-.09.86-.16,1.3-.22a5.65,5.65,0,0,1,1.58.15c.38.06.73.18,1.11.22a2.59,2.59,0,0,0,.82.12C77,25.73,76.23,25.46,75.83,25.23Z"/><path class="cls-4" d="M23.75,130.83c-1.73.19-3.71-.12-5.29.63,1,1.25,4.93,1.25,6.37.8-1.64.86-1.36,1.69.43,1.59,1.3-.07,2.42-.75,3.65-1V134a3.38,3.38,0,0,0,0,.45v2h144a2.91,2.91,0,0,0-.31-.75c.92.43,5.13.77,7.93.39.27-.93.52-1.87.75-2.81a15.3,15.3,0,0,0-2.78-.42,28.27,28.27,0,0,1-5.33-.82c1.46-.32,2.14-.76.47-1.57-1.3-.64-2.81-.72-4.14-1.28a36,36,0,0,1-4.46-2.67l-.53-.36h0c1.42.43,2.85.8,4.31,1.17s9.13,2,8.71-.27c-.39-2.07-5-2.49-6.29-3.06a1.6,1.6,0,0,0,1.58-.66c-1.43-1.22-4.16-1.19-5.93-1.79a11.32,11.32,0,0,1-4.13-3.23,1.71,1.71,0,0,0,1.88-.69c.88.62,2.49,2.93,3.63,2.7,1.31-.26.31-2.08,0-2.94a28.54,28.54,0,0,0,5.78,2.66c1.74.62,3.43,1.78,5.35,1.61.62-2.74-6.27-4.35-8.17-4.82,1.51,0,2.69-.57.78-1.35-1.45-.59-3.12-.65-4.57-1.37-.54-.27-1-.55-1.59-.86,1.62.67,3.12.8,3.09-1,1.3,0,6.93,2.66,7.52.65.47-1.64-3.69-2.19-4.73-2.54-2.05-.66-4.06-.82-5.91-2a10.82,10.82,0,0,1-3.17-3.19c.71.33,1.48.31,2.5.64,1.53.5,3.18,2.94,4.47.83a11.68,11.68,0,0,0,4.27,1.33c1.95,0,.91-1-.27-1.66a24.29,24.29,0,0,0-4.39-1.45c-1.19-.38-3.17-.5-4-1.47,1.64-1.61.31-2.33-1.05-3.37a3.49,3.49,0,0,1-1.35-4c.8.62,1.66,1.19,2.29,1.61a1.83,1.83,0,0,0,.7-1.76c1.62.44,4.58,1.42,6.12.39a6.34,6.34,0,0,0-2.38-1.73,11.2,11.2,0,0,1-1.63-.78c-.34-.46.18-.83-.11-1.25-.55-.82-3.53-1.6-4.57-2,.07-.34-.1-.8,0-1.16a6.24,6.24,0,0,1-1.09-.35c.07-.08.15-.15.18-.18.41-.24.83-.23,1.21-.47,2.14-1.33-1.08-1.81-1.32-3.37a2.51,2.51,0,0,0,.91-.19c.73-.26.57-.62,1.35-.41.53.13,1,.91,1.48,1.21.92.56,2.6.26,1.39-1,2,1.24,4.34,3,6.81,2.55.55-2.55-6-4-7.75-4.38,2.62-.46-1-1.81-1.82-2.07s-3.78-1.51-2.83-2.81c1.11.6,2.36.93,3.12.41-.34-1.11-1.85-1.46-2.12-2.55,1.88,0,3.72,2.06,5.62,1.3-.29-1.95-7.23-3.48-6-5.93l.88.09c.84.13,1.51.64,2.37.51-.1-.88-1.53-1.32-2.06-1.95-.67-.81.16-.91-.59-1.71s-1.46-1-1.88-2c0,0,0,0,0-.08,0-.34,0-.66,0-1,.8-1,1.67-1.72,1.35-3.15A21.16,21.16,0,0,0,161,59.09c0-.47-.07-1-.09-1.35a25.05,25.05,0,0,0-.4-3.92c0-.39-.07-.76-.1-1.13,0,.14,0,.3-.06.47,0-.12-.09-.23-.12-.34a3.87,3.87,0,0,0-.37.24c-.1,1.66-.05,4-1.24,5.21l.75,1.19-.06,0a2.17,2.17,0,0,1,.34.88l-.21.06c-.56.75-1.06,1.09-.7,2.13.24.7.86,1,1.3,1.5v.21a6.79,6.79,0,0,1-.86,1.57c-.52.78-1.4,1.19-1.92,2-.81,1.17.1,1.74.89,2.54.34.34.8.71.67,1.31a1.34,1.34,0,0,1-.73.72l.18.1c-.26.22-.54.42-.8.65-.81.68-1.82,1.1-2.62,1.75,0,.1.13.13.2.23-1,1.8-4.26.42-5.57,2.13,2.48,1.26,4.9-.34,7-1.43-.23,1.49.86.55,1.43.22.32-.19.65-.37,1-.53,0,.1,0,.19,0,.29A5.2,5.2,0,0,1,157.37,77c-1,.51-3.15.93-3.21,2.23,1.31.13,2.13-1,3.25-1a2.13,2.13,0,0,1,1.51.76c-.2.13-.41.26-.59.39A28.5,28.5,0,0,1,156,81.16c-.88.46-5.23.88-2.44,2a16.37,16.37,0,0,1-4.4,1.92c-.65-.56-1-1.16-.65-1.82l.8.1c.76.11,1.38.56,2.16.45-.1-.8-1.4-1.2-1.89-1.77-.6-.73.17-.81-.52-1.56a8.55,8.55,0,0,0-.65-.57,6.43,6.43,0,0,0,1.6-.19,3.34,3.34,0,0,0-1.89-3,2.09,2.09,0,0,0,.41-1.86,15.89,15.89,0,0,0-1.33-2.43c0-.44-.05-.86-.07-1.24a22.73,22.73,0,0,0-.36-3.55l-.09-1a2.84,2.84,0,0,0-.05.42c0-.09-.08-.21-.12-.3l-.34.21c-.1,1.51,0,3.6-1.12,4.74l.68,1.07-.06,0a1.9,1.9,0,0,1,.31.79l-.2.07c-.45.63-.89.94-.68,1.73-3.77-1.28-8.58-2.17-10.09-4.69,1.71-.76,4.13-1.5,3.51-3.41-.33-1-2-1.71-2.71-2.63A5.44,5.44,0,0,1,135,62c.1,0,.18.12.25.15.78.57,4.77,2.86,4.35.33,1.09.35,2.45,1.13,3.61.68a5.61,5.61,0,0,0-.39-1.2c1.28-.09,3.78.52,4.53-.85-.5-.63-1.92-.7-2.7-.94l-2.79-.91c-.77-.26-1.9-.65-3.06-1.14,1.27,0,2.49-.58.78-1.43a32.84,32.84,0,0,1-3.41-1.59,6.55,6.55,0,0,1-1.23-1.46,5.7,5.7,0,0,1,.11-1.94,6,6,0,0,1,.81.28c.7.33,2,1.27,2.68,1.28,1.08,0,1.08-1,.65-1.65a13.26,13.26,0,0,0,5,.48c-.47-1.26-4-1.51-5.17-1.83A9.91,9.91,0,0,1,136.12,49c-.92-.65-1.33-.94-1.35-1.9a3.3,3.3,0,0,0,1.76.46,1.08,1.08,0,0,0-.49-1.06c.47.16,3.83,1.64,3.49.36-.27-1.11-2.89-1.38-3.49-2.38.54-.08,1.27-.06,1.64-.42a12.23,12.23,0,0,0-2.84-1.83c.68-.65,1.2-2.29.76-3a14,14,0,0,0-1.36-1.6c0-.3,0-.57,0-.87a1.68,1.68,0,0,0,1.48.07c1.34-.44-.34-1.89-1.39-3.07,0-.41.39-.67.45-1.14.1-.65-.32-.88-.83-1a2.35,2.35,0,0,0,0-.27c.08-.31.27-.69.3-.93a1.4,1.4,0,0,0-.45-1.14c-.05-.6-.1-1.2-.16-1.77a30,30,0,0,0-.3,3.14,3.85,3.85,0,0,0-.71,1.72c-.6.41-1.35.68-1.61,1.22a2.86,2.86,0,0,0,1.59.14c0,.28-.06.72-.06.88a1.27,1.27,0,0,0,0,.7c-.55.36-.77.88-.54,1.87.18.84.68,1.38.7,2.13A4.67,4.67,0,0,1,130.53,42c-.83.64-4.35,1.92-4.21,2.91,1,.08,1.47-.57,2.36-.6s1.4.52,2.29.18a3.15,3.15,0,0,0,.59-.33,2.75,2.75,0,0,1,.09.95c-.29,2.19-3.21,3.34-4.87,4.09-.62.28-4.29,1.84-2.47,2.32,1.57.43,3.15-.91,4.32-1.67-.26,1.37-.24,1.77,1.14.83.26-.16,1-1,1.27-1s.39.49.92.57h.2a5.93,5.93,0,0,1-1.69,4.47c-1.4,1.61-3.32,2.22-5,3.23a30,30,0,0,1-3.75,1.8c-.59.26-2.6.8-2.8,1.66C118.64,62.76,121.29,63,122,63a4.07,4.07,0,0,0,2.32-1c.26-.21.81-1,1.17-.93a.94.94,0,0,1,.18-.14c-.28.91-.36,2,.6,1.3.67-.46,1-1.56,1.68-2.1s1.34-1,1.82-.18c.61,1-.75,2.42-1.39,3s-4.81,2.7-2.22,3.3a3.84,3.84,0,0,0,3-1c.78-.67,1.09-1.84,1.77-2.51a1.44,1.44,0,0,0,1.62,1.55c-.32.45-.65.94-.82,1.15A15.69,15.69,0,0,1,127.27,69c-1.34.7-2.62,1-4,1.58-.45.19-1.67.54-1.46,1.33s1.49.51,2,.51a5.6,5.6,0,0,0-1.45.4c-.57-1-2.88-1.66-3.57-2.06-1.53-.91-2.73-2.37-2.44-4.23.66-.16,1.31-.82,1.2-1.43a6.91,6.91,0,0,0-1.2-2.06,1.51,1.51,0,0,1-.2-.53,2.64,2.64,0,0,0,1.5.58c.08-.84-.91-1.45-1-2.26a3.15,3.15,0,0,0,.67-.24c-.21-.39-1-1.19-1.5-1.85-.1-.47,0-1.16-.1-1.6s-.06-1.23-.21-1.82-.24-.35-.26.09-.06.79-.08,1.2,0,.57-.06.84a5.16,5.16,0,0,0-.62,1,1.36,1.36,0,0,0-.16,1.25,4,4,0,0,0,.44.68,3.71,3.71,0,0,1-.69,1.06c-.44.47-1.07.89-.22,1.36a4,4,0,0,0,.76.28,4,4,0,0,0-.83.91,1.65,1.65,0,0,0,0,1.93c.21.34.44.41.51.85a.63.63,0,0,1,0,.27c-.42.33-.8.7-1.2,1-.57.46-2.12,1.06-2.18,1.76-.11,1.41,2.19.14,2.79.39-.16.44-.82.36-1,.79s.23.75.64.75,1.09-.78,1.57-1a8.84,8.84,0,0,1-3.46,3l-.23.1c-.86-.23-1.57-.39-2-.52,3.07-.51-1.17-2.08-2.12-2.39s-4.42-1.79-3.3-3.3c1.28.72,2.76,1.09,3.64.47-.39-1.28-2.15-1.69-2.47-3,2.17,0,4.33,2.41,6.54,1.52-.32-2.28-8.44-4.07-7-6.94l1,.13c1,.13,1.76.73,2.76.58-.11-1-1.78-1.54-2.42-2.29-.76-.94.21-1-.66-2S103.49,55,103,53.94a.18.18,0,0,0,0-.1c0-.39,0-.78,0-1.17.92-1.19,2-2,1.57-3.69a22.84,22.84,0,0,0-1.72-3.13c0-.57-.06-1.11-.1-1.58a29.84,29.84,0,0,0-.45-4.58c0-.46-.08-.89-.13-1.33,0,.18,0,.35-.07.55,0-.13-.09-.28-.13-.41-.13.08-.29.2-.43.3-.12,1.93,0,4.63-1.45,6.09l.88,1.36-.08,0a2.55,2.55,0,0,1,.39,1l-.25.09c-.63.87-1.23,1.28-.81,2.48.29.81,1,1.19,1.53,1.76v.24a7.64,7.64,0,0,1-1,1.84c-.6.9-1.64,1.38-2.24,2.27-.95,1.36.11,2,1,3,.4.4.92.84.78,1.54a1.58,1.58,0,0,1-.86.84l.22.12c-.31.24-.63.49-.94.75-1,.79-2.13,1.28-3,2.06,0,.1.16.14.22.26C95.06,66.06,92.79,65.6,91,66c-.65-.54-2.08-.8-2.46-1.43.42-.08,1,0,1.3-.34a9.73,9.73,0,0,0-2.24-1.43,2.42,2.42,0,0,0,.6-2.34,10.25,10.25,0,0,0-1.07-1.27c0-.23,0-.45,0-.66a1.36,1.36,0,0,0,1.17,0c1-.34-.28-1.46-1.11-2.41,0-.32.31-.52.36-.89s-.26-.7-.65-.81v-.23c.06-.24.21-.52.24-.71a1.28,1.28,0,0,0-.36-.91c0-.47-.09-.93-.13-1.38-.11.6-.17,1.46-.24,2.47a3.2,3.2,0,0,0-.57,1.34c-.47.31-1,.52-1.25,1a2.39,2.39,0,0,0,1.25.12c0,.22,0,.55,0,.68a1.12,1.12,0,0,0,0,.55c-.44.28-.6.68-.42,1.46s.54,1.09.54,1.68a3.68,3.68,0,0,1-1.66,2.19c-.65.49-3.43,1.49-3.32,2.27.78.07,1.16-.44,1.86-.47s1.1.41,1.8.15A3,3,0,0,0,85,64.4a2.6,2.6,0,0,1,.08.73c-.25,1.72-2.52,2.63-3.84,3.22-.49.22-3.36,1.44-1.93,1.83,1.23.33,2.47-.71,3.39-1.31-.21,1.07-.19,1.38.9.65.19-.13.75-.75,1-.77s.31.39.73.46h.15a4.66,4.66,0,0,1-1.32,3.51,12,12,0,0,1-3.61,2.34C77,73.92,72.82,73,71.42,70.67c1.72-.76,4.13-1.5,3.51-3.41-.33-1-2-1.71-2.71-2.63a5.44,5.44,0,0,1-.9-2.64c.1,0,.18.12.25.15.79.57,4.77,2.86,4.35.33,1.09.35,2.47,1.13,3.61.68a5.61,5.61,0,0,0-.39-1.2c1.28-.09,3.8.52,4.53-.85-.5-.63-1.92-.7-2.7-.94l-2.79-.91c-.76-.26-1.9-.65-3.06-1.14,1.27,0,2.49-.58.8-1.43a32.21,32.21,0,0,1-3.43-1.59,6.55,6.55,0,0,1-1.23-1.46,5.7,5.7,0,0,1,.11-1.94,6,6,0,0,1,.81.28c.7.33,2,1.27,2.68,1.28,1.08,0,1.08-1,.67-1.65a13.11,13.11,0,0,0,5,.48c-.47-1.26-4-1.51-5.17-1.83A10.15,10.15,0,0,1,72.49,49c-.92-.65-1.33-.94-1.35-1.9a3.3,3.3,0,0,0,1.76.46,1,1,0,0,0-.49-1.06c.47.16,3.84,1.64,3.51.36-.29-1.11-2.91-1.38-3.51-2.38.54-.08,1.27-.06,1.66-.42a12.84,12.84,0,0,0-2.86-1.83c.7-.65,1.2-2.29.78-3a16.53,16.53,0,0,0-1.38-1.6c0-.3,0-.57,0-.87a1.68,1.68,0,0,0,1.48.07c1.34-.44-.34-1.89-1.39-3.07,0-.41.39-.67.45-1.14.1-.65-.32-.88-.83-1v-.27c.08-.31.26-.69.31-.93a1.54,1.54,0,0,0-.45-1.14c-.07-.6-.12-1.2-.17-1.77-.14.77-.22,1.85-.31,3.14A4.09,4.09,0,0,0,69,32.33c-.6.41-1.35.68-1.61,1.22a2.86,2.86,0,0,0,1.59.14c0,.28-.06.72-.06.88a1.27,1.27,0,0,0,0,.7c-.55.36-.77.88-.54,1.87.18.84.68,1.38.7,2.13A4.59,4.59,0,0,1,66.9,42c-.83.64-4.35,1.92-4.21,2.91,1,.08,1.47-.57,2.36-.6s1.4.52,2.29.18a2.62,2.62,0,0,0,.59-.33,2.75,2.75,0,0,1,.09.95c-.29,2.19-3.21,3.34-4.87,4.09-.62.28-4.29,1.84-2.47,2.32,1.58.43,3.15-.91,4.32-1.67-.26,1.37-.24,1.77,1.14.83.26-.16,1-1,1.27-1s.39.49.92.57h.2a5.89,5.89,0,0,1-1.69,4.47c-1.4,1.61-3.32,2.22-5,3.23a31.13,31.13,0,0,1-3.73,1.8c-.61.26-2.62.8-2.82,1.66C55,62.76,57.66,63,58.34,63a4.07,4.07,0,0,0,2.32-1c.26-.21.82-1,1.17-.93l.18-.14c-.27.91-.36,2,.6,1.3.67-.46,1-1.56,1.68-2.1s1.36-1,1.83-.18c.62,1-.76,2.42-1.4,3s-4.8,2.7-2.22,3.3a3.88,3.88,0,0,0,3-1c.77-.67,1.08-1.84,1.76-2.51a1.45,1.45,0,0,0,1.64,1.55c-.34.45-.67.94-.84,1.15A15.69,15.69,0,0,1,63.64,69c-1.34.7-2.6,1-4,1.58-.45.19-1.67.54-1.46,1.33s1.51.51,2,.51a13.92,13.92,0,0,0-4.18,1.73c-.58.34-1.23.78-1.87,1.25,0-.27,0-.53,0-.81.73-.92,1.52-1.56,1.23-2.86a19.1,19.1,0,0,0-1.33-2.43c0-.44-.07-.86-.08-1.24a22.85,22.85,0,0,0-.36-3.56c0-.34-.07-.68-.1-1a3.19,3.19,0,0,1-.05.42c0-.11-.08-.21-.11-.31l-.33.22c-.09,1.51,0,3.6-1.12,4.74l.67,1.07-.07,0a1.76,1.76,0,0,1,.31.8l-.18,0c-.5.68-1,1-.63,2,.21.62.78.91,1.17,1.35V74a5.2,5.2,0,0,1-.78,1.41c-.45.74-1.27,1.09-1.74,1.78-.73,1.07.1,1.59.81,2.3.33.31.72.65.61,1.2a1.21,1.21,0,0,1-.67.65l.18.09c-.25.21-.49.39-.73.6-.75.61-1.66,1-2.39,1.59.05.08.13.11.18.19-.81,1.55-3.54.51-4.84,1.73l-.43-.23a2,2,0,0,0,0-.41,1.86,1.86,0,0,0-.47-1,3.58,3.58,0,0,0,.52-.34,4.42,4.42,0,0,0-.41-.62c1,.14,2,.55,2.94.13-.3-1.22-2.69-2.31-4.64-3.33,1.25-.26,1.46-.6,2.86-.08s3,1.18,4.37.53c-.41-.76-3.38-2.08-5.75-3.43l.6.1c.31-.55-.12-1.09-.8-1.56.8,0,1-.55,1.79-.36a3.8,3.8,0,0,0,1.92.15c.13-1.2-2.88-2.08-3.69-2.55-1.53-.91-2.73-2.37-2.44-4.22.67-.18,1.32-.83,1.2-1.43a6.44,6.44,0,0,0-1.2-2.07,1.64,1.64,0,0,1-.2-.53,2.8,2.8,0,0,0,1.5.58c.08-.84-.91-1.44-1-2.26a2.68,2.68,0,0,0,.67-.24c-.21-.41-1-1.19-1.5-1.85-.09-.47,0-1.16-.09-1.59-.12-.6-.07-1.25-.22-1.82s-.24-.36-.26.08-.06.79-.08,1.2,0,.57-.06.84a5.39,5.39,0,0,0-.62,1,1.38,1.38,0,0,0-.16,1.26,5.11,5.11,0,0,0,.44.69,3.67,3.67,0,0,1-.69,1.05c-.43.47-1.07.89-.22,1.37a7,7,0,0,0,.78.27,3.71,3.71,0,0,0-.85.91,1.67,1.67,0,0,0,0,1.94c.21.34.44.4.51.84a.69.69,0,0,1,0,.28c-.41.32-.8.69-1.2,1-.57.45-2.11,1-2.18,1.75-.11,1.41,2.19.15,2.8.39-.17.44-.83.36-1,.8s.23.74.64.74,1.09-.78,1.57-.95a8.89,8.89,0,0,1-3.46,3,14.94,14.94,0,0,0-3.16,1.41c-.51.39-1.42,1.84-.85,2.51s1.9-.43,2.6-.35c-.1,1.16.52,1.14,1.32.39.42-.39.37-.34,1-.39a3.15,3.15,0,0,0,.69-.16A3.6,3.6,0,0,1,36,81.6c-1,1-2.35,1.32-3.42,2.15.35.76,1.33.66,2.09.63-.89,1.93-7.21,2.83-6.92,5.25,3.17,1.07,5.69-1.41,8-3.1-.11,1,.42,1,1,.71-.1,1,.29,1.79-1.12,3-.91.8-3.28,1.87-3.32,3.15a4.75,4.75,0,0,0,2.26-.22,5.17,5.17,0,0,0-1.2,2.64,4.21,4.21,0,0,0,2.55-.63,16.46,16.46,0,0,1-2.71,2.21c-.81.54-6.14,2.68-3.8,4.21.61.4,1.9.19,3.2-.26a.9.9,0,0,0,.32.71c-1.1.75-2.92.93-3.74,1.81.91.76,2.54.14,3.4-.34a2.84,2.84,0,0,0,3,.12l-.89.72c-1.36,1-3.52,1.12-4.58,2.08a3.23,3.23,0,0,0,1.51.63c-2,1.34-6.29.67-8,2.7a2.33,2.33,0,0,0,1.9.44c-1.69.75-3.17,2.63-.26,1.7a25.78,25.78,0,0,0,4.79-2.24c-1.84,2-1.23,2.39,1.14,1.76a17.77,17.77,0,0,0,3.75-1.53,22.58,22.58,0,0,1-6.86,3c-1.1.29-4.61,1.15-1.57,1.59,2.09.3,3.33-.78,5.08-1.56.36,1.4,2,.43,2.62-.11.44.63,1.54.52,2.32.2l0,0a12,12,0,0,1-4.5,1.8c-.64.11-2.85.18-3,.94s1.08,1.06,1.76,1.08a26.36,26.36,0,0,0-5.58.94c-1.15.26-3.16.52-3.77,1.62,2.47,2,8.57.51,11.33-.39-.62.65-1.72,1.35-1.59,2.34a6.88,6.88,0,0,0,2.35-.24,6.25,6.25,0,0,0,1.34-.07,13.29,13.29,0,0,1-2.05,1.35c-1.64.7-3.92.44-5.31,1.4.92,1.33,4.07,1,5.46.6.71-.19,1.65-1,2.4-.73.34.11.54.58.83,1A20.25,20.25,0,0,1,32.65,126a34.48,34.48,0,0,1-3.75.62c-1,.14-3.07.24-2.1,1.48.62.74,2.08,1.13,3.71,1.31-.52.16-1,.29-1.47.42A36.36,36.36,0,0,1,23.75,130.83Z"/><path class="cls-2" d="M71.43,133.12A52.43,52.43,0,0,1,60,123c-2,1.72-4.09,3.6-4.91,6.3-.7,2.31-.35,4.84-.58,7.27h20C73.43,135.44,72.4,134.32,71.43,133.12Z"/><path class="cls-2" d="M43.31,136.53h7.53c.13-1.85.22-3.7.23-5.56C49,133.6,46.12,135,43.31,136.53Z"/><path class="cls-2" d="M158.11,129.12a117.31,117.31,0,0,1-8.66-9.53v0a9.07,9.07,0,0,1-.5,3.44,16.55,16.55,0,0,1-1.68,3.17q-1.27,2-2.53,4c-.62,1-1.25,2-1.88,3-.46-1.27.31-2.64.67-4,.16-.57.23-1.16.35-1.74a16.24,16.24,0,0,1,.48-1.82,20,20,0,0,0-1.81,2.37c-.77,1.19-1.37,2.51-2.08,3.74a22.1,22.1,0,0,1-3.68,4.75h28.56Z"/><path class="cls-2" d="M69.58,125.63a31,31,0,0,1,6.62-6.93c1.34-1,2.75-1.9,4-3a38.66,38.66,0,0,0,3.31-3.34l8.31-9.13h-.45c-1.49-.08-3-.59-4.42,0a5.62,5.62,0,0,0-1.88,1.33,7.23,7.23,0,0,1-3.67,5.66,40.8,40.8,0,0,1-4.15,1.32l-2.38,1.84c-.81,1.29-1,3-1.83,4.31-1.52,2.38-4.52,2.52-6.93,3.6-.61.28-1.05.47-1.44.67l1.7,2.28C67.47,124.65,68.53,125.12,69.58,125.63Z"/><path class="cls-2" d="M137.17,123.28a23.66,23.66,0,0,1-5,7.6c-.29-3.1,2-5,2.67-8a2.79,2.79,0,0,0,0-1.57,3,3,0,0,0-.7-1c-2.48-2.59-4.49-5.67-7-8.26-1.48-1.55-3.42-2.61-5-4-1-.81-2-1.57-3-2.42a6.69,6.69,0,0,1-3.1-3c-3-2.75-5.53-6.43-7.46-7.13-2.51-.9-4.72,0-6.92,1.68-3.16,2.35-6.22,5.67-6.6,10-.19,2,.25,4.07,0,6.09a17.64,17.64,0,0,1-2.11,5.91c-1.26,2.49-2.52,5-3.8,7.46a4.63,4.63,0,0,1-.33-3.9,32.18,32.18,0,0,1,1.67-3.63,4.21,4.21,0,0,0,.28-3.6,2.35,2.35,0,0,0-3.27-.68,8.13,8.13,0,0,0-2.5,3c-2.11,3.51-9.56,5.73-10.75,9.76-.76,2.56,1,5.9,2.92,9h55.93l4.14-9.56C137.75,125.76,138.16,124,137.17,123.28Zm-50.48,9.36-1,2.2a2.15,2.15,0,0,1-.65.94.61.61,0,0,1-.91-.28,1.27,1.27,0,0,1,0-.61c.47-2,1.14-4.34,2.79-5.25a1.27,1.27,0,0,0-.36-.37l.49.28-.13.09a2.08,2.08,0,0,1,.29,1.24A5.18,5.18,0,0,1,86.69,132.64Zm11.49-24A11.54,11.54,0,0,0,97,110.75s0,.09,0,.13l-.19.32c0-.15.1-.3.15-.45a3.64,3.64,0,0,1,0-2.48A9.81,9.81,0,0,1,98.27,106l2.42-3.59c.64-1,1.59-2,2.59-1.63Zm24.14,23.24L111.81,113.3a11.54,11.54,0,0,1-1.54-3.67c-.29-1.72.18-3.52-.13-5.24-.39-2.22-2-3.88-3.48-5.37l-.38-1a10.54,10.54,0,0,1,3.12,2.25l6.54,6c1.5,1.38,3.14,3.09,3.07,5.29a11.62,11.62,0,0,0-5.93-5c-.8,3,.79,6,2.31,8.57l3.14,5.32c2.62,4.43,5.3,9,6.2,14.26A7.42,7.42,0,0,1,122.32,131.83Z"/><path class="cls-5" d="M171.84,133.83c-1.62-.6-3.22-.75-4.68-1.85a9.25,9.25,0,0,1-2.51-2.88,20,20,0,0,0,2,.58c1.21.45,2.52,2.65,3.53.74a8.39,8.39,0,0,0,3.39,1.21c1.54,0,.72-.9-.22-1.5a17.08,17.08,0,0,0-3.47-1.31c-.94-.35-2.51-.45-3.14-1.33,1.3-1.46.24-2.1-.84-3a3.43,3.43,0,0,1-1.07-3.63c.63.56,1.32,1.07,1.82,1.45a1.79,1.79,0,0,0,.55-1.59c1.29.4,2.78.91,4,0-.44-.74-.37-.79-1-1.2-.23-.17-1.13-.49-1.29-.71-.27-.41.14-.75-.09-1.13-.43-.74-2.79-1.44-3.61-1.85,0-.31-.08-.72,0-1a4.59,4.59,0,0,1-.86-.33,1.31,1.31,0,0,1,.14-.16c.32-.22.66-.21,1-.43,1.7-1.2-.85-1.63-1-3a1.92,1.92,0,0,0,.72-.17c.58-.24.45-.56,1.07-.37.42.12.79.82,1.17,1.09.73.51,2.06.23,1.1-.88,1.56,1.11,2.44,1.87,4.4,1.51.44-2.31-3.79-2.78-5.14-3.17,2.07-.42-.8-1.64-1.44-1.87s-3-1.37-2.24-2.54c.87.54,1.86.84,2.47.37-.27-1-1.47-1.33-1.69-2.31,1.5,0,2.95,1.86,4.45,1.17-.23-1.76-5.72-3.14-4.74-5.36l.69.09c.67.12,1.2.57,1.88.46-.08-.8-1.21-1.19-1.63-1.77-.53-.73.13-.82-.47-1.54s-1.15-.91-1.49-1.76a.24.24,0,0,0,0-.08c0-.3,0-.6,0-.91l.44-.6c-.68-1-1.39-2-2.11-3a1.44,1.44,0,0,0-.2,1.41c.19.63.68.92,1,1.35v.19a5.85,5.85,0,0,1-.69,1.43c-.41.7-1.1,1.07-1.51,1.76-.65,1.06.07,1.57.7,2.29a1.39,1.39,0,0,1,.53,1.19,1.09,1.09,0,0,1-.58.65l.14.09c-.2.2-.42.38-.63.58-.64.62-1.44,1-2.07,1.59,0,.09.11.12.16.21-.76,1.63-3.37.38-4.41,1.92,2,1.15,3.88-.31,5.51-1.29-.18,1.35.68.5,1.13.2.26-.17.52-.34.79-.48,0,.09,0,.17,0,.26a4.27,4.27,0,0,1-1.15,1.13c-.76.46-2.49.84-2.54,2,1,.11,1.68-.92,2.57-.87a1.62,1.62,0,0,1,1.19.69c-.15.12-.32.23-.46.35a23.75,23.75,0,0,1-1.81,1.56c-.7.41-4.14.79-1.93,1.78a12.64,12.64,0,0,1-3.49,1.73,1.42,1.42,0,0,1-.51-1.65l.63.09c.6.11,1.09.52,1.71.41-.08-.72-1.11-1.08-1.49-1.6s.13-.73-.41-1.41c-.17-.19-.35-.35-.52-.51a4.36,4.36,0,0,0,1.26-.18,3.1,3.1,0,0,0-1.49-2.7,2.11,2.11,0,0,0,.32-1.68,15.43,15.43,0,0,0-1.05-2.2c0-.4,0-.78,0-1.12a25.18,25.18,0,0,0-.29-3.21c0-.31-.05-.62-.07-.93a2.33,2.33,0,0,0,0,.38,2.29,2.29,0,0,1-.09-.28l-.27.2c-.08,1.36,0,3.26-.89,4.29l.54,1,0,0a1.9,1.9,0,0,1,.24.72l-.15.06c-.36.58-.71.85-.54,1.57-3-1.16-6.79-2-8-4.24,1.35-.69,3.27-1.35,2.78-3.09-.26-.94-1.61-1.54-2.15-2.38a5.44,5.44,0,0,1-.71-2.38l.2.14c.61.51,3.78,2.58,3.44.29.87.32,1.95,1,2.86.62a5.21,5.21,0,0,0-.31-1.09c1-.07,3,.47,3.59-.76-.4-.58-1.52-.64-2.14-.86l-2.21-.82c-.6-.23-1.5-.59-2.42-1,1,0,2-.53.62-1.29a25.05,25.05,0,0,1-2.7-1.44,5.74,5.74,0,0,1-1-1.32,6.35,6.35,0,0,1,.09-1.75,5,5,0,0,1,.65.25c.55.29,1.58,1.15,2.12,1.16.85,0,.85-1,.51-1.5a9.24,9.24,0,0,0,4,.44c-.37-1.14-3.15-1.36-4.09-1.66a7.33,7.33,0,0,1-2.29-1.14c-.73-.59-1.05-.85-1.07-1.72a2.39,2.39,0,0,0,1.39.41,1,1,0,0,0-.38-1c.37.14,3,1.48,2.76.32-.22-1-2.29-1.25-2.76-2.15.42-.07,1-.06,1.3-.38a9.73,9.73,0,0,0-2.26-1.66,3,3,0,0,0,.57-1.08c-.76-.53-1.53-1-2.3-1.55A4.14,4.14,0,0,1,139.2,72c-.66.58-3.45,1.74-3.33,2.63.78.08,1.15-.51,1.86-.54s1.11.47,1.81.16A2.13,2.13,0,0,0,140,74a2.7,2.7,0,0,1,.07.85c-.23,2-2.54,3-3.85,3.7-.49.25-3.4,1.66-2,2.1,1.25.39,2.5-.82,3.42-1.51-.2,1.23-.19,1.6.9.75.21-.15.76-.87,1-.87s.3.44.73.52h.15a5.84,5.84,0,0,1-1.33,4c-1.11,1.45-2.63,2-4,2.92a22.65,22.65,0,0,1-3,1.63c-.46.24-2.05.72-2.21,1.5-.22,1.14,1.88,1.39,2.42,1.34a3.12,3.12,0,0,0,1.84-.87c.2-.19.64-.88.92-.84a.67.67,0,0,1,.15-.13c-.22.82-.29,1.76.47,1.17.53-.41.82-1.41,1.33-1.89s1.06-.87,1.44-.16c.49.91-.59,2.19-1.1,2.72s-3.8,2.43-1.76,3a2.8,2.8,0,0,0,2.37-.9c.62-.6.86-1.66,1.4-2.26,0,1,.66,1.48,1.29,1.4-.26.41-.52.85-.66,1a12.93,12.93,0,0,1-3.5,3.16,33.69,33.69,0,0,1-3.14,1.42c-.36.18-1.32.49-1.15,1.21s1.18.45,1.62.45a4.59,4.59,0,0,0-1.15.37c-.45-.87-2.27-1.5-2.83-1.87A4,4,0,0,1,128,94.15a1.31,1.31,0,0,0,1-1.29A6.09,6.09,0,0,0,128,91a1.62,1.62,0,0,1-.15-.49,2,2,0,0,0,1.18.53c.07-.76-.72-1.31-.79-2a2.39,2.39,0,0,0,.52-.22c-.16-.36-.78-1.08-1.18-1.68-.08-.42,0-1-.08-1.44s0-1.11-.16-1.64-.2-.33-.21.07,0,.72-.06,1.09l-.06.76a5.23,5.23,0,0,0-.48.91,1.4,1.4,0,0,0-.13,1.13,4.43,4.43,0,0,0,.34.62,3.07,3.07,0,0,1-.54,1c-.34.42-.84.8-.18,1.23a3.38,3.38,0,0,0,.61.25,3.6,3.6,0,0,0-.66.82,1.71,1.71,0,0,0,0,1.75c.17.31.35.37.4.76a.43.43,0,0,1,0,.25c-.33.3-.63.64-.95.94s-1.67,1-1.73,1.59c-.09,1.28,1.74.13,2.22.35-.13.4-.66.33-.79.72a.5.5,0,0,0,.5.68c.35,0,.87-.71,1.25-.87a7.3,7.3,0,0,1-2.74,2.72l-.18.09c-.68-.21-1.25-.35-1.61-.47,2.43-.46-.92-1.88-1.68-2.16s-3.5-1.62-2.61-3c1,.64,2.19,1,2.88.42-.31-1.16-1.7-1.53-2-2.67,1.73,0,3.44,2.17,5.19,1.36-.26-2-6.69-3.67-5.55-6.27l.83.12c.77.12,1.39.66,2.18.53-.09-.93-1.41-1.4-1.91-2.07-.61-.86.16-.94-.53-1.8s-1.36-1-1.75-2a.29.29,0,0,0,0-.09c0-.35,0-.71,0-1.06.74-1.07,1.55-1.82,1.25-3.33a23.84,23.84,0,0,0-1.36-2.84c0-.51-.05-1-.08-1.42a29.32,29.32,0,0,0-.36-4.15c0-.41-.06-.8-.1-1.2,0,.16,0,.32,0,.5,0-.12-.08-.25-.11-.37l-.34.27c-.09,1.74,0,4.18-1.15,5.51l.7,1.23-.07,0a2.4,2.4,0,0,1,.31.93l-.19.07c-.5.8-1,1.16-.65,2.25.24.73.8,1.07,1.21,1.59V81a7.14,7.14,0,0,1-.79,1.66c-.48.82-1.3,1.25-1.78,2-.75,1.24.09,1.85.82,2.68a1.58,1.58,0,0,1,.62,1.39,1.37,1.37,0,0,1-.68.77l.18.1c-.24.22-.5.44-.75.68-.75.72-1.68,1.16-2.41,1.86,0,.09.12.13.18.24a1.59,1.59,0,0,1-.62.68,27.59,27.59,0,0,0,3.63,2.85c1.23.94,6.42,5.77,7.63,8.07a11.57,11.57,0,0,0,3.29,2.4c1.5.71,2.27,1.38,3.74,2.15,1.73.9,2,2.86,3.31,4.43a42.07,42.07,0,0,0,8.71,7.32,1.78,1.78,0,0,1,.76.82,1.28,1.28,0,0,1,.05.27,68.63,68.63,0,0,1,5-7c.17-.19.36-.41.6-.41s.52.29.7.56c.93,1.44,2.85,2.22,3.8,3.65a71.12,71.12,0,0,0,5,5.43c4.22,4.17,7.94,8.35,12.51,11.93.65.12,1.87.63,3,1h2.43a.89.89,0,0,0,.25-.41C176,134.64,172.66,134.14,171.84,133.83Z"/><path class="cls-5" d="M102.11,89.28c-.4-.58-1.52-.64-2.14-.86l-2.21-.82c-.6-.23-1.5-.59-2.42-1,1,0,2-.53.63-1.29a25.19,25.19,0,0,1-2.71-1.44,5.74,5.74,0,0,1-1-1.32,6.35,6.35,0,0,1,.09-1.75A5,5,0,0,1,93,81c.55.29,1.58,1.15,2.12,1.16.85,0,.85-1,.53-1.5a9.11,9.11,0,0,0,4,.44c-.37-1.14-3.15-1.36-4.09-1.66a7.44,7.44,0,0,1-2.29-1.14c-.73-.59-1.05-.85-1.07-1.72a2.37,2.37,0,0,0,1.39.41,1,1,0,0,0-.38-1c.37.14,3,1.48,2.77.32-.23-1-2.3-1.25-2.77-2.15.42-.07,1-.06,1.31-.38a10,10,0,0,0-2.27-1.66,3,3,0,0,0,.62-2.69,14.83,14.83,0,0,0-1.09-1.45c0-.27,0-.52,0-.78a1.18,1.18,0,0,0,1.17.06c1.06-.4-.27-1.7-1.1-2.78,0-.36.31-.6.36-1,.07-.58-.26-.79-.66-.94v-.25c.07-.27.21-.61.25-.83a1.56,1.56,0,0,0-.36-1c-.05-.51-.09-1-.13-1.51h0c-.1.68-.17,1.63-.23,2.74a4,4,0,0,0-.56,1.56c-.48.37-1.07.62-1.28,1.1a2,2,0,0,0,1.26.13c0,.25,0,.65,0,.8a1.33,1.33,0,0,0,0,.63c-.43.32-.6.79-.42,1.69a13.26,13.26,0,0,1,.55,1.92A4.13,4.13,0,0,1,88.84,72c-.66.58-3.45,1.74-3.33,2.63.78.08,1.15-.51,1.86-.54s1.11.47,1.81.16a1.93,1.93,0,0,0,.47-.29,2.7,2.7,0,0,1,.07.85c-.23,2-2.54,3-3.85,3.7-.49.25-3.4,1.66-2,2.1,1.25.39,2.5-.82,3.42-1.51-.2,1.23-.19,1.6.9.75.21-.15.76-.87,1-.87s.31.44.74.52h.15a5.71,5.71,0,0,1-1.34,4c-1.1,1.45-2.62,2-4,2.92a23.78,23.78,0,0,1-2.95,1.63l-.16.07c0-.46-.1-.92-.18-1.36s-.07-.81-.11-1.2a4.28,4.28,0,0,1,0,.49c0-.11-.07-.25-.1-.36l-.35.26c0,.78,0,1.69-.15,2.58-.53.26-1,.59-1.13,1s.22.8.66,1a3.47,3.47,0,0,1-.52.9l.69,1.23-.06,0a2.51,2.51,0,0,1,.31.92l-.2.08c-.5.79-1,1.16-.64,2.25.23.73.8,1.07,1.21,1.58v.22a6.64,6.64,0,0,1-.8,1.66,5,5,0,0,1-.89,1,2.18,2.18,0,0,0,.36-1.73,18.4,18.4,0,0,0-1.06-2.2c0-.4,0-.78-.06-1.12a23.46,23.46,0,0,0-.28-3.21c0-.31-.06-.62-.08-.93,0,.12,0,.25,0,.38l-.09-.28-.26.2c-.07,1.36,0,3.26-.89,4.29l.53,1,0,0a1.87,1.87,0,0,1,.25.72l-.15,0c-.4.62-.77.91-.5,1.76.17.56.62.82.93,1.22v.18a5.13,5.13,0,0,1-.62,1.27c-.36.67-1,1-1.38,1.61-.57,1,.08,1.44.65,2.08a1.37,1.37,0,0,1,.47.91l6.78-5.64a10.81,10.81,0,0,1,2.25-1.59c2.57-1.23,5.46-.17,8.08,1.09l.55-.61a5.29,5.29,0,0,1-2.38-2.09c1.36-.69,3.27-1.35,2.78-3.09-.26-.94-1.61-1.54-2.15-2.38a5.44,5.44,0,0,1-.71-2.38l.2.14c.63.51,3.78,2.58,3.44.29.87.32,2,1,2.86.62A5.89,5.89,0,0,0,98.52,90C99.54,90,101.53,90.51,102.11,89.28ZM82.22,99.93a1.36,1.36,0,0,1-.1-.21.11.11,0,0,0,0-.08v-.39c.33.34,1.13.22,1.49.22A5.07,5.07,0,0,0,82.22,99.93Zm7.53-6.7a12.93,12.93,0,0,1-3.5,3.16,32.55,32.55,0,0,1-3.14,1.42,5.81,5.81,0,0,0-.77.4,3.44,3.44,0,0,0,1-3A22.69,22.69,0,0,0,82,92.41c0-.52,0-1-.07-1.43h.17a3.12,3.12,0,0,0,1.84-.87c.2-.19.64-.88.92-.84a.67.67,0,0,1,.15-.13c-.22.82-.29,1.76.47,1.17.53-.41.82-1.41,1.33-1.89s1.08-.87,1.45-.16c.49.91-.61,2.19-1.11,2.72s-3.8,2.43-1.76,3a2.83,2.83,0,0,0,2.38-.9c.6-.6.85-1.66,1.39-2.26,0,1,.65,1.48,1.3,1.4C90.15,92.6,89.89,93,89.75,93.23Z"/><path class="cls-5" d="M70.6,103.87c.51-.33-.22-1.13-.82-1.87.49-.09.68-.45,1.24-.3a2.66,2.66,0,0,0,1.52.14c.11-1.09-2.27-1.88-2.92-2.31l-.09-.07a.29.29,0,0,0,0-.09,1.24,1.24,0,0,0-.28-.82c0-.43-.08-.84-.1-1.25-.07.44-.12,1-.16,1.73a3.75,3.75,0,0,1-1.32-3.32,1.32,1.32,0,0,0,1-1.29,6.14,6.14,0,0,0-1-1.87,1.48,1.48,0,0,1-.15-.48,2.07,2.07,0,0,0,1.18.53c.07-.77-.72-1.31-.79-2a2,2,0,0,0,.52-.22c-.16-.36-.78-1.07-1.18-1.67-.08-.43,0-1-.08-1.44s0-1.13-.16-1.65-.2-.32-.21.08,0,.72-.06,1.08l-.06.77a5.14,5.14,0,0,0-.48.9,1.43,1.43,0,0,0-.13,1.14,5.08,5.08,0,0,0,.34.62,2.92,2.92,0,0,1-.54,1c-.34.43-.85.81-.18,1.24a5.32,5.32,0,0,0,.62.25,3.06,3.06,0,0,0-.67.82,1.67,1.67,0,0,0,0,1.75c.17.31.35.36.4.76a.43.43,0,0,1,0,.25c-.32.29-.63.63-1,.94s-.55.39-.89.63c-.72-.89-3.06-1.1-3.91-1.36A7.25,7.25,0,0,1,58,95.24c-.74-.58-1.06-.85-1.07-1.72a2.39,2.39,0,0,0,1.39.42,1,1,0,0,0-.39-1c.38.15,3,1.48,2.78.32-.23-1-2.3-1.25-2.78-2.14.43-.07,1-.06,1.32-.38A9.73,9.73,0,0,0,57,89.12a3.1,3.1,0,0,0,.62-2.69A16.8,16.8,0,0,0,56.48,85c0-.26,0-.51,0-.77a1.18,1.18,0,0,0,1.17,0c1.05-.39-.27-1.7-1.11-2.77,0-.37.31-.6.36-1,.08-.59-.25-.79-.65-.94v-.25c.06-.28.2-.62.24-.84a1.48,1.48,0,0,0-.36-1c-.05-.54-.09-1.08-.13-1.6-.11.69-.18,1.68-.24,2.84a3.93,3.93,0,0,0-.57,1.55c-.47.37-1.06.62-1.27,1.11a2.08,2.08,0,0,0,1.26.13c0,.25,0,.65,0,.79a1.32,1.32,0,0,0,0,.63c-.44.33-.6.8-.42,1.69a13.37,13.37,0,0,1,.55,1.93A4.13,4.13,0,0,1,53.54,89c-.65.57-3.44,1.73-3.33,2.63.79.07,1.16-.51,1.87-.54s1.1.47,1.81.16a2,2,0,0,0,.46-.3,2.47,2.47,0,0,1,.08.86c-.23,2-2.55,3-3.86,3.7-.49.25-3.39,1.66-2,2.1,1.25.38,2.49-.82,3.42-1.51-.21,1.23-.19,1.6.9.74.21-.14.76-.86,1-.86s.31.44.74.51h.15a5.74,5.74,0,0,1-1.34,4c-1.1,1.46-2.62,2-4,2.93a23.9,23.9,0,0,1-3,1.63c-.47.23-2.07.72-2.22,1.49-.22,1.15,1.88,1.4,2.42,1.34a3.07,3.07,0,0,0,1.84-.87c.2-.19.64-.88.92-.83a.92.92,0,0,1,.14-.14c-.22.83-.28,1.77.48,1.18.53-.41.82-1.41,1.32-1.9s1.08-.86,1.46-.16c.49.91-.61,2.19-1.11,2.72s-3.81,2.44-1.76,3a2.82,2.82,0,0,0,2.38-.89c.6-.61.85-1.66,1.39-2.27,0,1,.65,1.49,1.3,1.4-.27.41-.53.85-.67,1a12.61,12.61,0,0,1-3.5,3.16c-1.06.63-2.06.91-3.14,1.43-.36.17-1.32.48-1.16,1.2s1.2.46,1.62.46A10,10,0,0,0,45,118a16.24,16.24,0,0,0-1.48,1.13c0-.25,0-.49,0-.73.58-.84,1.21-1.41,1-2.59a17.35,17.35,0,0,0-1.05-2.2c0-.4,0-.78-.06-1.12a23.63,23.63,0,0,0-.29-3.22c0-.31-.05-.61-.07-.92,0,.11,0,.25,0,.38,0-.1-.07-.19-.09-.28l-.26.19c-.08,1.37,0,3.26-.89,4.29l.53,1-.05,0a1.63,1.63,0,0,1,.24.72l-.14,0c-.4.62-.77.91-.5,1.77.17.55.62.82.93,1.22v.17a5,5,0,0,1-.62,1.28c-.36.66-1,1-1.38,1.6-.58,1,.08,1.44.65,2.09a1.23,1.23,0,0,1,.47,1.08,1,1,0,0,1-.53.59l.15.08c-.2.19-.39.35-.58.54-.6.56-1.32.9-1.89,1.44,0,.07.1.1.14.17-.65,1.4-2.81.46-3.83,1.56l-.34-.2a2.42,2.42,0,0,0,0-.37,1.87,1.87,0,0,0-.38-1,2.86,2.86,0,0,0,.41-.3,3.5,3.5,0,0,0-.32-.56c.76.13,1.6.5,2.33.12-.24-1.11-2.14-2.09-3.68-3,1-.23,1.16-.54,2.27-.07s2.36,1.07,3.45.48c-.32-.69-2.67-1.88-4.55-3.09l.48.08c.24-.5-.09-1-.63-1.41.63,0,.78-.5,1.41-.32a2.73,2.73,0,0,0,1.52.13c.1-1.09-2.28-1.88-2.92-2.3a4,4,0,0,1-1.93-3.82,1.33,1.33,0,0,0,1-1.3,6.06,6.06,0,0,0-1-1.86,1.32,1.32,0,0,1-.15-.49,2,2,0,0,0,1.18.53c.06-.66-.53-1.16-.73-1.76-.71,1.63-1.38,3.3-2,5,0,0,0,.06,0,.11a.72.72,0,0,1,0,.25,2.18,2.18,0,0,0-.22.21q-.48,1.35-.93,2.73a1.13,1.13,0,0,1,.68-.06c-.12.39-.65.32-.78.72a.49.49,0,0,0,.5.67c.35,0,.86-.7,1.25-.87a7.45,7.45,0,0,1-2.6,2.63c-.39,1.35-.75,2.72-1.09,4.1.19.13.5,0,.87-.42s.3-.31.76-.36a2.52,2.52,0,0,0,.54-.14,3.62,3.62,0,0,1-.64,2.42,10.93,10.93,0,0,1-2.23,1.57l-.15.78a2.34,2.34,0,0,0,1.32.16,3.51,3.51,0,0,1-1.63,1.44c-.18.95-.34,1.91-.48,2.87a24,24,0,0,0,2.94-2.37c-.09.88.33.88.79.65-.07.87.24,1.61-.88,2.73-.72.72-2.6,1.69-2.63,2.85a3.39,3.39,0,0,0,1.79-.2,9.89,9.89,0,0,0-.71,1.31H38.27a10.35,10.35,0,0,1,.94-1.37c1.47-1.79,3.57-2.67,5.41-3.93a34.8,34.8,0,0,0,5.43-5l8.52-9.13c.13-.13.27-.27.42-.4a4.8,4.8,0,0,1-1.87-1.81l.78-.38a1.22,1.22,0,0,0-.08.6c2.51,1,4.5-1.28,6.3-2.8-.05.51.07.72.28.76-.76.41-1.87,1.12-1,1.38a1.85,1.85,0,0,0,1.48-.3,2.61,2.61,0,0,1-.84,1.54,14.55,14.55,0,0,0-2.39,2.14c.29.39.58.77.86,1.16l10-8.35c-.55-.44-1.57-.68-1.85-1.23a3.75,3.75,0,0,0,.81-.16,1.49,1.49,0,0,0,.77-.16c-.15-.7-1-1.35-1.94-2a2.29,2.29,0,0,0,.14-1.26l.39.14c1,.45,2.36,1.08,3.46.49C74,105.86,72.28,104.9,70.6,103.87Zm-7.47,14.52-.11,0,.17-.06Zm1.22-10.57c-.76.85-1.86,1.19-2.71,1.93.28.7,1,.61,1.66.58-.38.94-2,1.6-3.38,2.36a1.81,1.81,0,0,0,0-.92c-.26-.94-1.61-1.54-2.15-2.38A5.35,5.35,0,0,1,57,107a2,2,0,0,1,.19.13c.63.52,3.79,2.59,3.45.3.86.32,2,1,2.86.61a5.79,5.79,0,0,0-.31-1.08c.41,0,1,0,1.55,0A2.65,2.65,0,0,1,64.35,107.82Zm.56-2.4.08,0a.11.11,0,0,1,0,0Zm-1.14-3.11a11.39,11.39,0,0,0-2.51,1.27,2.12,2.12,0,0,0-.27.34l-.94-.42c1,0,2-.53.63-1.29A27.11,27.11,0,0,1,58,100.77a5.79,5.79,0,0,1-1-1.33,5.9,5.9,0,0,1,.09-1.74,3,3,0,0,1,.64.25c.56.29,1.59,1.14,2.13,1.16.84,0,.84-1,.52-1.5a8.74,8.74,0,0,0,3.38.46,1,1,0,0,0-.42.64c-.09,1.28,1.74.13,2.22.35-.13.4-.66.32-.79.72a.5.5,0,0,0,.5.68c.35,0,.86-.71,1.25-.87A7.37,7.37,0,0,1,63.77,102.31Z"/><path class="cls-5" d="M107.92,86.43A14.91,14.91,0,0,0,106.84,85c0-.26,0-.51,0-.77a1.18,1.18,0,0,0,1.17,0c1.06-.39-.27-1.7-1.1-2.77,0-.37.3-.6.36-1,.07-.59-.26-.79-.66-.94a2.09,2.09,0,0,0,0-.25c.06-.28.22-.62.24-.84a1.39,1.39,0,0,0-.36-1c0-.54-.08-1.08-.13-1.6-.1.69-.18,1.68-.23,2.84a3.78,3.78,0,0,0-.57,1.55c-.34.27-.74.48-1,.75,0-.18,0-.37-.05-.56,0,.21-.06.46-.09.74a.81.81,0,0,0-.12.18l.1,0c0,.38,0,.81-.08,1.28a3.18,3.18,0,0,0-.45,1.22c-.37.28-.82.47-1,.86a1.66,1.66,0,0,0,1,.11c0,.2,0,.5,0,.61a1,1,0,0,0,0,.5c-.35.25-.48.62-.33,1.32a9.78,9.78,0,0,1,.42,1.52c0,.11-.06.21-.09.32-.82.59-3.32,1.68-3.21,2.53a1.6,1.6,0,0,0,.87-.19c-.75.43-1.56.94-1.51,1.38.62.06.92-.4,1.47-.43a1,1,0,0,1,.34,0c.18-.2.36-.41.55-.61,1-1.08,2.18-2.24,3.53-2a10.12,10.12,0,0,1,3,1.28,1.18,1.18,0,0,0,.73-.3,9.19,9.19,0,0,0-2.25-1.66A3.09,3.09,0,0,0,107.92,86.43ZM105,87.8l-.16-.21c0-.21,0-.41,0-.61a.81.81,0,0,0,.57.12A2.8,2.8,0,0,1,105,87.8Zm-.13-3a.94.94,0,0,1,.13-.4s0,.06,0,.09a3.67,3.67,0,0,0,.25.81Zm.57-2.63a1.32,1.32,0,0,0,0,.63,1.18,1.18,0,0,0-.45.66.84.84,0,0,0-.36-.2v-.21c.06-.22.17-.47.2-.64a1.33,1.33,0,0,0-.29-.83c0-.07,0-.15,0-.22a2.39,2.39,0,0,0,1,0C105.5,81.67,105.46,82.07,105.46,82.21Z"/><text class="cls-6" transform="translate(41.23 150.65) scale(0.92 1)">лучше сгореть до тла, <tspan x="22.45" y="13.27">чем покрыться </tspan><tspan x="48.56" y="26.54">пылью</tspan></text></svg>