<?xml version="1.0" ?><svg height="300" id="svg2" version="1.1" viewBox="0 0 281.25 281.25" width="300" xml:space="preserve" xmlns="http://www.w3.org/2000/svg" xmlns:cc="http://creativecommons.org/ns#" xmlns:dc="http://purl.org/dc/elements/1.1/" xmlns:rdf="http://www.w3.org/1999/02/22-rdf-syntax-ns#" xmlns:svg="http://www.w3.org/2000/svg"><defs id="defs4"/><g id="layer1" transform="translate(6111.1064,-3399.5356)"><g id="g2526"><path d="m -5985.6486,3596.7185 c -3.1184,0.01 -6.2293,0.6732 -9.104,1.9483 -3.8567,1.7108 -7.1815,4.4586 -9.5874,7.9248 -1.0563,1.5218 -1.9206,3.161 -2.58,4.8779 -1.8021,-0.6307 -3.6983,-0.9978 -5.6305,-1.073 -4.3728,-0.1703 -8.6828,1.1533 -12.2076,3.7463 -4.2853,3.1525 -7.0928,7.9539 -7.7362,13.2349 a 4.6875,4.6875 0 0 0 4.0869,5.2185 4.6875,4.6875 0 0 0 5.2203,-4.0869 c 0.3194,-2.6211 1.8575,-5.2506 3.9844,-6.8152 1.7693,-1.3016 4.0912,-2.0154 6.286,-1.9299 2.1947,0.085 4.4567,0.9763 6.1194,2.4115 a 4.6875,4.6875 0 0 0 0.2948,0.2014 4.6875,4.6875 0 0 0 0.357,0.2454 4.6875,4.6875 0 0 0 0.6629,0.3241 4.6875,4.6875 0 0 0 0.39,0.1519 4.6875,4.6875 0 0 0 0.8038,0.1557 4.6875,4.6875 0 0 0 0.2729,0.053 4.6875,4.6875 0 0 0 0.051,0 4.6875,4.6875 0 0 0 1.1426,-0.082 4.6875,4.6875 0 0 0 0.1959,-0.06 4.6875,4.6875 0 0 0 0.8881,-0.3058 4.6875,4.6875 0 0 0 0.3259,-0.1886 4.6875,4.6875 0 0 0 0.6391,-0.4303 4.6875,4.6875 0 0 0 0.3112,-0.2893 4.6875,4.6875 0 0 0 0.2765,-0.2545 4.6875,4.6875 0 0 0 0.3406,-0.456 4.6875,4.6875 0 0 0 0.035,-0.049 4.6875,4.6875 0 0 0 0.509,-1.0437 4.6875,4.6875 0 0 0 0.02,-0.057 4.6875,4.6875 0 0 0 0.2215,-1.1517 4.6875,4.6875 0 0 0 0.01,-0.024 c 0.1486,-2.4655 1.0068,-4.9434 2.4152,-6.9726 1.4085,-2.0292 3.4292,-3.7024 5.6872,-4.704 3.2935,-1.4608 7.3688,-1.4845 10.5396,-0.026 2.1046,0.968 3.9695,2.6174 5.1892,4.5868 1.2198,1.9694 1.8636,4.3734 1.7926,6.6889 a 4.6875,4.6875 0 0 0 0.022,0.2142 4.6875,4.6875 0 0 0 0.07,0.7031 4.6875,4.6875 0 0 0 0.081,0.4303 4.6875,4.6875 0 0 0 0.2875,0.7599 4.6875,4.6875 0 0 0 0.13,0.3003 4.6875,4.6875 0 0 0 0.6464,0.91 4.6875,4.6875 0 0 0 0.022,0.02 4.6875,4.6875 0 0 0 0.1374,0.1172 4.6875,4.6875 0 0 0 0.7489,0.6134 4.6875,4.6875 0 0 0 0.3314,0.1758 4.6875,4.6875 0 0 0 0.6976,0.3149 4.6875,4.6875 0 0 0 0.4285,0.1172 4.6875,4.6875 0 0 0 0.6976,0.1135 4.6875,4.6875 0 0 0 0.2417,0.039 4.6875,4.6875 0 0 0 0.2033,-0.02 4.6875,4.6875 0 0 0 0.7269,-0.073 4.6875,4.6875 0 0 0 0.4156,-0.077 4.6875,4.6875 0 0 0 0.7416,-0.2802 4.6875,4.6875 0 0 0 0.3259,-0.141 4.6875,4.6875 0 0 0 0.9046,-0.6445 c 1.7633,-1.6229 3.8661,-2.9096 6.1139,-3.7408 3.3957,-1.2556 7.2331,-1.4691 10.6878,-0.5695 2.5566,0.6658 4.9882,1.9483 6.98,3.6841 a 4.6875,4.6875 0 0 0 0.8917,0.6079 4.6875,4.6875 0 0 0 0.304,0.1208 4.6875,4.6875 0 0 0 0.7727,0.2784 4.6875,4.6875 0 0 0 0.1117,0.04 4.6875,4.6875 0 0 0 0.3058,0.026 4.6875,4.6875 0 0 0 0.7232,0.06 4.6875,4.6875 0 0 0 0.4505,-0.031 4.6875,4.6875 0 0 0 0.6903,-0.1227 4.6875,4.6875 0 0 0 0.4394,-0.1337 4.6875,4.6875 0 0 0 0.6556,-0.3094 4.6875,4.6875 0 0 0 0.3589,-0.2033 4.6875,4.6875 0 0 0 0.6591,-0.5566 4.6875,4.6875 0 0 0 0.2088,-0.1904 4.6875,4.6875 0 0 0 0.042,-0.038 4.6875,4.6875 0 0 0 0.6299,-0.9302 4.6875,4.6875 0 0 0 0.4138,-1.1462 c 0.4984,-2.2823 2.0893,-4.4917 4.0961,-5.6872 2.0068,-1.1956 4.7082,-1.5437 6.9525,-0.8954 2.4591,0.7105 4.7419,2.7626 5.7092,5.1324 0.9673,2.3697 0.7724,5.4329 -0.487,7.6612 a 4.6875,4.6875 0 0 0 1.7743,6.3867 4.6875,4.6875 0 0 0 6.3867,-1.7743 c 2.7326,-4.8349 3.1036,-10.6747 1.0052,-15.8167 -2.0993,-5.1416 -6.4527,-9.0512 -11.7883,-10.5926 -1.2074,-0.3488 -2.4369,-0.5696 -3.6713,-0.6628 v 0 c -3.7033,-0.2797 -7.4395,0.5788 -10.6787,2.5086 -2.4094,1.4353 -4.4281,3.3951 -5.9289,5.7 -1.7883,-0.9373 -3.6821,-1.6714 -5.6452,-2.1826 -2.7,-0.7031 -5.4784,-0.9688 -8.2306,-0.8203 -2.7523,0.1486 -5.48,0.711 -8.0731,1.6699 -0.9124,0.3374 -1.8035,0.7254 -2.6733,1.1554 -0.4933,-1.3331 -1.1168,-2.6213 -1.8714,-3.8397 -2.2092,-3.567 -5.4295,-6.4133 -9.2413,-8.1665 -2.9083,-1.3376 -6.035,-1.983 -9.1534,-1.9739 z" id="path5849" style="color:#000000;fill:#3d3d3d;fill-opacity:1;fill-rule:evenodd;stroke-linecap:round;stroke-linejoin:round"/><path d="m -5993.1065,3445.3764 c -0.9753,0 -1.9493,0.044 -2.9169,0.1336 v 0 c -5.8058,0.5479 -11.4155,2.7318 -16.062,6.3318 -6.755,5.2337 -11.0208,13.1745 -11.8195,21.6009 -4.5203,0.7361 -8.8079,2.6821 -12.3413,5.6598 -4.7413,3.9953 -7.8866,9.642 -8.7872,15.7764 -0.6892,4.6941 -0.049,9.5138 1.8457,13.8647 1.1241,2.5819 2.6734,4.9519 4.5612,7.0166 -2.498,2.8868 -4.3116,6.3416 -5.2387,10.0855 -1.3943,5.6304 -0.7224,11.6245 1.886,16.8054 2.2672,4.5032 5.9025,8.2118 10.3583,10.5707 2.542,1.3457 5.2968,2.22 8.1225,2.6037 -0.2691,2.7479 -0.087,5.5381 0.553,8.2453 1.1364,4.8041 3.6802,9.1924 7.2839,12.5665 3.1669,2.9651 7.0659,5.0679 11.283,6.0864 2.2436,0.5418 4.5464,0.7663 6.839,0.6812 v 16.7303 c 0.8916,-0.5523 1.8227,-1.0444 2.7869,-1.4721 2.0995,-0.9313 4.3256,-1.5266 6.5881,-1.789 v -18.891 a 4.6875,4.6875 0 0 0 0,-0.079 v -58.7805 a 4.6875,4.6875 0 0 0 -4.6875,-4.6875 4.6875,4.6875 0 0 0 -4.6875,4.6875 v 10.4791 l -3.8104,-3.5156 a 4.6875,4.6875 0 0 0 -3.3655,-1.2378 4.6875,4.6875 0 0 0 -3.2575,1.5069 4.6875,4.6875 0 0 0 0.2674,6.623 l 10.166,9.3768 v 31.6534 c -1.5598,0.091 -3.1353,-0.038 -4.6399,-0.401 -2.6173,-0.6321 -5.1097,-1.9756 -7.0752,-3.8159 -2.2299,-2.0879 -3.8653,-4.9081 -4.5685,-7.8808 -0.7032,-2.9728 -0.5051,-6.2254 0.553,-9.0912 a 4.6875,4.6875 0 0 0 0.13,-0.4102 4.6875,4.6875 0 0 0 0.095,-0.445 4.6875,4.6875 0 0 0 0.013,-0.119 4.6875,4.6875 0 0 0 0.038,-0.3149 4.6875,4.6875 0 0 0 0,-0.1319 4.6875,4.6875 0 0 0 0.01,-0.3369 4.6875,4.6875 0 0 0 -0.01,-0.09 4.6875,4.6875 0 0 0 -0.028,-0.3424 4.6875,4.6875 0 0 0 0,-0.04 4.6875,4.6875 0 0 0 -0.01,-0.028 4.6875,4.6875 0 0 0 -0.3076,-1.1517 4.6875,4.6875 0 0 0 0,-0.01 4.6875,4.6875 0 0 0 -0.6006,-1.04 4.6875,4.6875 0 0 0 -0.013,-0.018 4.6875,4.6875 0 0 0 -0.8276,-0.8295 4.6875,4.6875 0 0 0 -0.059,-0.048 4.6875,4.6875 0 0 0 -1.0034,-0.5786 4.6875,4.6875 0 0 0 -0.059,-0.024 4.6875,4.6875 0 0 0 -0.141,-0.061 4.6875,4.6875 0 0 0 -0.5164,-0.1171 4.6875,4.6875 0 0 0 -0.5877,-0.1319 4.6875,4.6875 0 0 0 -0.6079,0 4.6875,4.6875 0 0 0 -0.5237,0 c -3.027,0.3976 -6.2573,-0.1846 -8.9557,-1.6131 -2.6977,-1.4283 -4.999,-3.7739 -6.3721,-6.5003 -1.5715,-3.1224 -1.9992,-6.9415 -1.159,-10.3345 0.8403,-3.3936 3.0007,-6.5687 5.8483,-8.5968 a 4.6875,4.6875 0 0 0 0.3186,-0.2508 4.6875,4.6875 0 0 0 0,-0.01 4.6875,4.6875 0 0 0 0.7947,-0.8789 4.6875,4.6875 0 0 0 0.022,-0.024 4.6875,4.6875 0 0 0 0.042,-0.066 4.6875,4.6875 0 0 0 0.141,-0.2271 4.6875,4.6875 0 0 0 0.1025,-0.1849 4.6875,4.6875 0 0 0 0.1135,-0.2326 4.6875,4.6875 0 0 0 0.079,-0.1794 4.6875,4.6875 0 0 0 0.082,-0.2197 4.6875,4.6875 0 0 0 0.075,-0.2289 4.6875,4.6875 0 0 0 0.059,-0.2234 4.6875,4.6875 0 0 0 0.05,-0.2252 4.6875,4.6875 0 0 0 0.033,-0.2014 4.6875,4.6875 0 0 0 0.031,-0.2601 4.6875,4.6875 0 0 0 0.013,-0.1977 4.6875,4.6875 0 0 0 0,-0.2802 4.6875,4.6875 0 0 0 -0.01,-0.1666 4.6875,4.6875 0 0 0 -0.02,-0.2728 4.6875,4.6875 0 0 0 -0.028,-0.1978 4.6875,4.6875 0 0 0 -0.051,-0.2819 4.6875,4.6875 0 0 0 -0.029,-0.1337 4.6875,4.6875 0 0 0 -0.092,-0.3186 4.6875,4.6875 0 0 0 -0.042,-0.1245 4.6875,4.6875 0 0 0 -0.119,-0.3022 4.6875,4.6875 0 0 0 -0.057,-0.1263 4.6875,4.6875 0 0 0 -0.1446,-0.282 4.6875,4.6875 0 0 0 -0.071,-0.1245 4.6875,4.6875 0 0 0 -0.1758,-0.2765 4.6875,4.6875 0 0 0 -0.029,-0.044 4.6875,4.6875 0 0 0 -0.015,-0.016 4.6875,4.6875 0 0 0 -1.1426,-1.1261 c -2.4385,-1.6824 -4.4333,-4.106 -5.6158,-6.8225 -1.1826,-2.716 -1.5968,-5.8281 -1.1664,-8.7598 0.558,-3.8005 2.6145,-7.4949 5.5518,-9.9701 2.9372,-2.4753 6.9265,-3.8772 10.7666,-3.7829 a 4.6875,4.6875 0 0 0 0.2234,-0.024 4.6875,4.6875 0 0 0 0.1666,0.016 4.6875,4.6875 0 0 0 0.7727,-0.1171 4.6875,4.6875 0 0 0 0.088,-0.018 4.6875,4.6875 0 0 0 1.0785,-0.4156 4.6875,4.6875 0 0 0 0.071,-0.042 4.6875,4.6875 0 0 0 0.9155,-0.6683 4.6875,4.6875 0 0 0 0.046,-0.042 4.6875,4.6875 0 0 0 0.7416,-0.9173 4.6875,4.6875 0 0 0 0.024,-0.044 4.6875,4.6875 0 0 0 0.4669,-1.0528 4.6875,4.6875 0 0 0 0.02,-0.064 4.6875,4.6875 0 0 0 0.1831,-1.1536 4.6875,4.6875 0 0 0 0,-0.027 4.6875,4.6875 0 0 0 -0.01,-0.2161 4.6875,4.6875 0 0 0 0,-0.1758 c -0.4029,-6.8403 2.8854,-14.0772 8.302,-18.2739 4.2439,-3.2881 9.9145,-4.9263 15.2582,-4.4074 5.3435,0.5188 10.5908,3.215 14.1229,7.2583 a 4.6875,4.6875 0 0 0 0.2417,0.2015 4.6875,4.6875 0 0 0 0.4156,0.4211 4.6875,4.6875 0 0 0 0.2857,0.1666 4.6875,4.6875 0 0 0 0.4339,0.2527 4.6875,4.6875 0 0 0 0.813,0.3278 4.6875,4.6875 0 0 0 0.4834,0.1318 4.6875,4.6875 0 0 0 0.9632,0.064 4.6875,4.6875 0 0 0 0.3881,0 4.6875,4.6875 0 0 0 1.3147,-0.3333 4.6875,4.6875 0 0 0 0.2088,-0.119 4.6875,4.6875 0 0 0 0.9503,-0.5951 4.6875,4.6875 0 0 0 0.1154,-0.073 4.6875,4.6875 0 0 0 0.5877,-0.6243 4.6875,4.6875 0 0 0 0.035,-0.035 c 1.5274,-1.9699 3.8981,-3.4306 6.3446,-3.9075 2.4467,-0.4768 5.1946,-0.014 7.3499,1.2378 2.521,1.4645 4.61,4.1827 5.8264,7.326 1.2357,3.1928 1.6953,6.9058 1.7193,10.8069 10e-5,0.01 0,0.015 0,0.022 a 4.6875,4.6875 0 0 0 0,0.026 c 0.018,3.4266 -0.2754,6.8584 -0.8752,10.232 a 4.6875,4.6875 0 0 0 -0.011,0.2618 4.6875,4.6875 0 0 0 -0.035,0.7562 4.6875,4.6875 0 0 0 0.039,0.423 4.6875,4.6875 0 0 0 0.1556,0.7105 4.6875,4.6875 0 0 0 0.1337,0.4083 4.6875,4.6875 0 0 0 0.3607,0.694 4.6875,4.6875 0 0 0 0.1849,0.3112 4.6875,4.6875 0 0 0 0.6867,0.7526 4.6875,4.6875 0 0 0 0.093,0.097 4.6875,4.6875 0 0 0 0.9558,0.6116 4.6875,4.6875 0 0 0 0.3497,0.13 4.6875,4.6875 0 0 0 0.5567,0.2088 c 2.0951,0.527 4.0934,1.8511 5.3942,3.576 1.3007,1.725 2.025,4.0115 1.9556,6.1707 -0.059,1.8372 -0.6809,3.7192 -1.7285,5.2295 -1.0477,1.5105 -2.5955,2.7543 -4.2957,3.4533 a 4.6875,4.6875 0 0 0 -0.3588,0.1978 4.6875,4.6875 0 0 0 -0.3919,0.2142 4.6875,4.6875 0 0 0 -0.5841,0.4633 4.6875,4.6875 0 0 0 -0.3003,0.2673 4.6875,4.6875 0 0 0 -0.6134,0.824 4.6875,4.6875 0 0 0 -0.092,0.1556 4.6875,4.6875 0 0 0 -0.3918,0.9924 4.6875,4.6875 0 0 0 -0.031,0.077 4.6875,4.6875 0 0 0 -0.037,0.3076 4.6875,4.6875 0 0 0 -0.086,0.7452 4.6875,4.6875 0 0 0 0.024,0.4523 4.6875,4.6875 0 0 0 0.1025,0.6921 4.6875,4.6875 0 0 0 0.1246,0.4413 4.6875,4.6875 0 0 0 0.082,0.2875 4.6875,4.6875 0 0 0 0.2033,0.3698 4.6875,4.6875 0 0 0 0.2051,0.3736 4.6875,4.6875 0 0 0 0.4907,0.6189 4.6875,4.6875 0 0 0 0.2362,0.2655 4.6875,4.6875 0 0 0 0.8936,0.6665 4.6875,4.6875 0 0 0 0.027,0.02 4.6875,4.6875 0 0 0 1.0565,0.4175 4.6875,4.6875 0 0 0 0.077,0.031 c 3.0408,0.7653 5.8853,2.9374 7.4249,5.669 1.5398,2.7318 1.9251,6.2893 1.0053,9.2871 -0.5892,1.9202 -1.7079,3.727 -3.1641,5.1105 -1.4562,1.3835 -3.3183,2.4083 -5.2661,2.8985 a 4.6875,4.6875 0 0 0 -0.1209,0.048 4.6875,4.6875 0 0 0 -0.5475,0.2179 4.6875,4.6875 0 0 0 -0.5767,0.2655 4.6875,4.6875 0 0 0 -0.1117,0.051 4.6875,4.6875 0 0 0 -0.2399,0.2106 4.6875,4.6875 0 0 0 -0.7013,0.6152 4.6875,4.6875 0 0 0 -0.3094,0.3919 4.6875,4.6875 0 0 0 -0.4505,0.7525 4.6875,4.6875 0 0 0 -0.1959,0.4541 4.6875,4.6875 0 0 0 -0.2106,0.9339 4.6875,4.6875 0 0 0 -0.059,0.3973 4.6875,4.6875 0 0 0 0.1209,1.3513 4.6875,4.6875 0 0 0 0,0.01 4.6875,4.6875 0 0 0 0.01,0.02 4.6875,4.6875 0 0 0 0.5255,1.2268 4.6875,4.6875 0 0 0 0.044,0.1008 c 1.7635,2.7942 2.447,6.4199 1.82,9.6643 -0.627,3.2443 -2.6103,6.355 -5.2881,8.291 -2.9139,2.1066 -7.0232,3.1806 -11.5539,3.8489 -3.9722,0.5858 -7.9839,0.9022 -11.9989,0.9539 v -18.6639 l 9.19,-7.2327 a 4.6875,4.6875 0 0 0 0.7856,-6.5826 4.6875,4.6875 0 0 0 -3.1293,-1.756 4.6875,4.6875 0 0 0 -3.4552,0.9705 l -3.3911,2.6696 v -5.8447 a 4.6875,4.6875 0 0 0 -4.6875,-4.6875 4.6875,4.6875 0 0 0 -4.6875,4.6875 v 60.2106 c 2.273,0.2523 4.5187,0.856 6.6467,1.8347 0.9485,0.4362 1.8595,0.9411 2.7283,1.507 v -17.7356 c 2.6704,-0.032 5.3388,-0.1736 7.998,-0.4193 v 27.7478 c 0.1278,0.3026 0.2725,0.5986 0.3864,0.9063 0.8698,-0.43 1.7609,-0.818 2.6733,-1.1554 2.0394,-0.7541 4.1629,-1.2535 6.3153,-1.5088 v -27.3303 c 1.3947,-0.2926 2.8078,-0.6515 4.2151,-1.1114 l -0.082,28.266 c 1.9664,0.065 3.9312,0.3338 5.8557,0.8349 1.2017,0.3129 2.3724,0.7203 3.5138,1.1957 l 0.079,-27.215 c 6.2741,0.4839 12.6456,-1.2249 17.8363,-4.931 4.8911,-3.4921 8.4582,-8.557 10.1715,-14.2529 2.7226,0.1279 5.4629,-0.3405 8.0163,-1.4044 4.2007,-1.7503 7.6171,-4.989 9.5911,-9.0894 2.254,-4.6816 2.4422,-10.1094 0.5182,-14.9359 -0.5655,-1.4186 -1.3034,-2.7473 -2.1808,-3.9661 1.6394,-0.8922 3.1671,-2.0016 4.5282,-3.3178 3.9336,-3.8039 6.2256,-9.0335 6.3574,-14.5038 0.1373,-5.701 -2.0842,-11.2452 -6.1194,-15.2747 -2.5967,-2.5929 -5.8202,-4.4285 -9.3072,-5.3723 0.5013,-3.4711 0.2975,-7.0338 -0.6354,-10.4443 -1.4523,-5.3095 -4.6016,-10.045 -8.9374,-13.4363 -4.9638,-3.8825 -11.2505,-5.8133 -17.5378,-5.387 v 0 c -3.2639,0.2213 -6.4389,1.0767 -9.3549,2.4756 -0.3599,-1.8941 -0.8697,-3.7916 -1.5948,-5.6652 -1.8406,-4.7561 -5.0571,-9.2581 -9.8603,-12.0484 -3.1327,-1.8199 -6.6921,-2.7432 -10.2758,-2.7008 -1.1945,0.014 -2.3908,0.1369 -3.5761,0.368 -3.0244,0.5895 -5.8521,1.8722 -8.2727,3.7134 -4.7293,-3.9128 -10.5803,-6.3861 -16.734,-6.9836 -0.9751,-0.095 -1.9508,-0.1417 -2.926,-0.1428 z m 63.966,30.3039 c 3.6871,-0.07 7.497,1.1859 10.3913,3.4497 2.7088,2.1186 4.7616,5.2083 5.6689,8.5254 0.9073,3.3172 0.7113,7.0204 -0.542,10.2228 a 4.6875,4.6875 0 0 0 -0.079,0.3168 4.6875,4.6875 0 0 0 -0.1428,0.5786 4.6875,4.6875 0 0 0 -0.066,0.6244 4.6875,4.6875 0 0 0 -0.033,0.3094 4.6875,4.6875 0 0 0 0.046,0.2857 4.6875,4.6875 0 0 0 0.095,0.6115 4.6875,4.6875 0 0 0 0.1648,0.5732 4.6875,4.6875 0 0 0 0.2545,0.5712 4.6875,4.6875 0 0 0 0.3076,0.5091 4.6875,4.6875 0 0 0 0.3882,0.4797 4.6875,4.6875 0 0 0 0.4376,0.4212 4.6875,4.6875 0 0 0 0.4944,0.3588 4.6875,4.6875 0 0 0 0.5255,0.2912 4.6875,4.6875 0 0 0 0.2637,0.1446 4.6875,4.6875 0 0 0 0.3186,0.079 4.6875,4.6875 0 0 0 0.5786,0.1428 4.6875,4.6875 0 0 0 0.6097,0.064 4.6875,4.6875 0 0 0 0.3205,0.035 c 3.0402,-0.077 6.2671,1.2092 8.4192,3.3581 2.1519,2.1489 3.4442,5.3755 3.3709,8.4155 -0.07,2.9243 -1.3982,5.9573 -3.5009,7.9908 -2.1025,2.0332 -5.1785,3.2608 -8.1043,3.2336 a 4.6875,4.6875 0 0 0 -0.3845,0.048 4.6875,4.6875 0 0 0 -0.6207,0.075 4.6875,4.6875 0 0 0 -0.5658,0.1703 4.6875,4.6875 0 0 0 -0.5841,0.2344 4.6875,4.6875 0 0 0 -0.5036,0.3112 4.6875,4.6875 0 0 0 -0.498,0.3754 4.6875,4.6875 0 0 0 -0.4083,0.4321 4.6875,4.6875 0 0 0 -0.3846,0.4908 4.6875,4.6875 0 0 0 -0.2856,0.5291 4.6875,4.6875 0 0 0 -0.1904,0.3553 4.6875,4.6875 0 0 0 -0.051,0.216 4.6875,4.6875 0 0 0 -0.1355,0.5731 4.6875,4.6875 0 0 0 -0.088,0.6281 4.6875,4.6875 0 0 0 -0.029,0.2051 4.6875,4.6875 0 0 0 0.046,0.379 4.6875,4.6875 0 0 0 0.077,0.628 4.6875,4.6875 0 0 0 0.1666,0.5549 4.6875,4.6875 0 0 0 0.2399,0.5969 4.6875,4.6875 0 0 0 0.3039,0.4925 4.6875,4.6875 0 0 0 0.3791,0.5054 4.6875,4.6875 0 0 0 0.4376,0.412 4.6875,4.6875 0 0 0 0.4834,0.379 4.6875,4.6875 0 0 0 0.542,0.2912 4.6875,4.6875 0 0 0 0.3442,0.1849 c 2.3091,0.8782 4.3623,2.8982 5.2771,5.1929 0.9148,2.2949 0.8134,5.1716 -0.2582,7.3974 -0.9469,1.9668 -2.7346,3.663 -4.7497,4.5026 -2.015,0.8396 -4.4808,0.9158 -6.5442,0.2032 a 4.6875,4.6875 0 0 0 -0.039,-0.01 4.6875,4.6875 0 0 0 -1.0052,-0.2234 4.6875,4.6875 0 0 0 -0.073,0 4.6875,4.6875 0 0 0 -0.65,0.018 4.6875,4.6875 0 0 0 -0.5694,0.033 4.6875,4.6875 0 0 0 -0.6464,0.1941 4.6875,4.6875 0 0 0 -0.5145,0.1703 4.6875,4.6875 0 0 0 -0.564,0.3461 4.6875,4.6875 0 0 0 -0.4724,0.3113 4.6875,4.6875 0 0 0 -0.4559,0.4852 4.6875,4.6875 0 0 0 -0.3662,0.412 4.6875,4.6875 0 0 0 -0.3113,0.5713 4.6875,4.6875 0 0 0 -0.2582,0.5163 4.6875,4.6875 0 0 0 -0.035,0.071 4.6875,4.6875 0 0 0 -0.1135,0.5548 4.6875,4.6875 0 0 0 -0.1172,0.4908 c -0.5073,4.8814 -3.3009,9.68 -7.2949,12.5317 -3.1977,2.2831 -7.3419,3.403 -11.3397,3.2025 3.0726,-3.1595 5.196,-7.1743 6.0406,-11.5448 0.7416,-3.8379 0.4661,-7.7896 -0.7452,-11.4569 1.541,-0.8611 2.9758,-1.9103 4.2645,-3.1348 2.6437,-2.5119 4.601,-5.6708 5.6708,-9.1571 1.7014,-5.5449 1.0461,-11.588 -1.8018,-16.6406 -1.4079,-2.4978 -3.3015,-4.6619 -5.5353,-6.383 0.4639,-0.5314 0.8993,-1.0887 1.3037,-1.6718 2.0978,-3.0243 3.2766,-6.5954 3.3948,-10.274 0.14,-4.3552 -1.2163,-8.6371 -3.8397,-12.1161 -1.7497,-2.3201 -3.9988,-4.1925 -6.5552,-5.5005 0.2353,-1.9995 0.3784,-4.0095 0.4303,-6.0224 2.6035,-2.1262 5.9334,-3.475 9.2597,-3.7005 0.2444,-0.017 0.4902,-0.028 0.736,-0.033 z" id="path5775" style="color:#000000;fill:#dcac3e;fill-opacity:1;fill-rule:evenodd;stroke-linecap:round;stroke-linejoin:round"/></g></g></svg>